<?xml version="1.0" encoding="UTF-8" standalone="no"?>
<!DOCTYPE svg PUBLIC "-//W3C//DTD SVG 1.1//EN" "http://www.w3.org/Graphics/SVG/1.1/DTD/svg11.dtd">
<svg width="100%" height="100%" viewBox="0 0 384 333" version="1.1" xmlns="http://www.w3.org/2000/svg" xmlns:xlink="http://www.w3.org/1999/xlink" xml:space="preserve" xmlns:serif="http://www.serif.com/" style="fill-rule:evenodd;clip-rule:evenodd;stroke-linejoin:round;stroke-miterlimit:2;">
    <g transform="matrix(1,0,0,1,72,61.5)">
        <g id="cactus_scrub" transform="matrix(0.715694,0,0,0.670586,-1.189001,40.04245)">
            <path d="M172.012,18.509C172.315,20.422 172.281,20.419 172.339,20.575C173.034,22.45 173.031,22.473 173.014,85.508C172.639,86.172 172.264,86.836 171.889,87.5C171.081,90.314 172.007,110.471 172.064,110.5C172.208,110.572 172.212,110.511 174.064,110.643C174.335,110.844 174.155,111.388 174.427,111.589C175.485,112.371 179.618,109.604 180.666,107.598C184.797,99.688 183.177,98.743 184.287,95.409C185.611,91.436 183.993,91.187 185.26,87.393C186.324,84.209 185.945,84.19 186.012,62.5C186.027,57.89 186.398,58.013 187.075,53.442C187.642,49.617 192.023,46.74 193.572,47.263C199.467,49.253 198.206,54.389 200,58.675C200.173,59.087 200.247,92.066 199.739,93.609C198.617,97.015 199.802,97.162 198.685,100.575C197.897,102.981 198.324,102.985 197.947,105.547C197.239,110.362 196.634,110.119 194.327,114.392C193.472,115.974 188.013,126.083 176.453,128.005C172.774,128.616 173.928,131.535 173.923,137.499C173.893,174.679 174.191,175.545 172.587,175.781C167.782,176.487 166.66,176.078 163.923,183.638C162.962,186.29 158.453,184.595 158.427,184.591C158.005,182.634 158.179,182.65 157.568,181.47C154.744,176.018 156.595,175.552 155.65,173.429C153.734,169.125 155.458,130.817 154.823,124.427C154.379,119.961 147.759,127.564 135.26,114.743C135.198,113.709 136.519,114.503 136.459,113.5C136.444,113.259 136.415,112.768 135.025,110.846C133.236,108.371 132.826,110.655 132.288,110.608C131.886,109.659 128.115,100.778 127.949,98.475C127.411,91.042 127.007,91.142 127.02,90.5C127.595,61.569 124.544,60.043 130.736,54.763C132.852,52.959 136.925,55.039 137.66,56.399C140.21,61.117 140.029,61.204 140.02,66.501C139.995,81.315 141.032,81.226 140.979,82.507C140.7,89.137 142.297,88.937 142.121,91.493C142.081,92.066 141.869,95.134 143.328,98.574C143.73,99.522 146.313,105.614 152.423,107.688C155.291,108.661 154.934,106.42 154.85,87.499C154.821,80.917 155.989,81.036 155.988,74.499C155.981,19.039 155.516,18.987 156.256,16.386C158.659,7.94 155.78,5.504 163.405,2.28C165.855,1.244 170.235,5.27 170.677,6.409C172.925,12.2 171.903,12.348 172.012,18.509ZM165,37.37C165.691,40.389 165.217,40.366 165.224,66.499C165.228,84.538 165.301,84.439 165.208,102.499C165.172,112.523 165.172,112.426 165.18,122.5C165.182,151.646 166.199,152.937 164.353,152.882C162.261,152.821 162.876,106.593 162.865,91.502C162.831,43.514 162.476,43.461 163.812,38.712C164.208,38.264 164.604,37.817 165,37.37ZM134.499,85.5C134.485,88.622 134.061,88.635 135.232,91.587C136.208,94.047 134.826,94.315 136.085,96.66C136.131,96.745 137.026,101.077 139.111,104.86C139.676,105.885 144.207,111.404 150.507,113.464C151.38,113.749 151.195,113.962 151.963,114.519C150.537,115.481 150.212,116.065 144.758,113.004C137.42,108.885 135.847,102.646 135.559,101.504C135.539,99.787 135.746,99.68 134.556,98.48C133.554,95.055 133.893,95.052 133.004,91.654C133.136,91.165 133.086,91.244 134.499,85.5ZM191.508,88.5C192.41,92.491 193.091,94.052 193.292,94.512C191.043,110.836 186.999,116.889 179.629,119.123C179.447,116.555 180.741,117.273 182.461,115.461C183.993,113.848 188.535,110.406 189.68,102.505C190.202,98.9 191.442,97.802 191.508,88.5ZM192.368,68.907L193.169,68.755C193.244,70.814 193.726,84.196 193.292,94.512C193.091,94.052 192.41,92.491 191.508,88.5C191.412,71.483 190.984,71.303 192.368,68.907ZM132.737,76.632L133.387,76.247C133.402,76.264 134.502,76.26 134.541,77.494C134.562,78.134 134.538,78.087 134.499,85.5C133.086,91.244 133.136,91.165 133.004,91.654C132.794,90.47 131.987,85.92 132.737,76.632ZM178.568,119.949C175.758,120.352 176.691,118.935 176.798,118.805C177.231,118.281 177.397,118.388 177.448,118.421C178.283,118.961 177.727,119.406 178.568,119.949Z"/>
            <path d="M81.249,80.412C80.465,81.111 80.652,81.275 79.755,81.745C79.65,81.8 79.672,81.814 78.582,82.657C77.032,83.855 78.164,85.861 80.15,84.165C81.348,83.141 81.339,83.258 82.62,82.283C82.928,82.595 85.976,85.683 81.595,87.678C79.231,88.754 78.966,88.906 79.029,91.498C79.422,107.512 64.431,108.128 69.777,111.007C70.794,111.554 77.409,115.117 78.526,122.483C79.908,131.589 79.624,119.233 83.436,115.436C85.591,113.288 89.857,112.555 90.257,112.204C96.823,106.436 96.154,114.091 95.248,115.325C93.941,117.107 96.013,122.372 94.256,124.277C87.053,132.086 84.219,129.895 82.383,130.074C80.415,130.266 80.923,138.058 78.692,144.579C75.531,153.821 74.43,153.596 74.754,154.376C75.167,155.37 84.842,152.395 82.231,156.293C80.634,158.678 55.91,158.884 55.295,156.62C54.453,153.526 63.545,156.166 60.255,152.692C56.777,149.018 56.059,148.625 51.272,139.617C48.481,134.364 49.382,132.337 48.665,130.428C47.049,126.13 48.227,121.57 48.289,121.416C50.026,117.14 46.524,119.28 41.526,119.02C40.228,118.952 34.681,116.066 33.327,113.607C30.779,108.98 31.456,107.113 31.653,106.569C33.19,102.331 30.243,100.807 29.787,100.257C25.467,95.035 33.409,94.607 33.949,93.942C37.283,89.831 41.472,95.951 38.081,98.241C32.566,101.965 39.283,100.18 39.464,100.132C41.881,99.49 46.375,103.609 47.007,104.735C47.366,105.375 49.644,109.437 49.899,113.437C50.255,119.019 55.743,109.215 59.446,109.065C60.114,109.037 60.792,109.318 61.448,109.19C63.097,108.867 61.951,108.153 60.665,104.43C56.733,93.043 60.918,87.865 61.184,87.303C63.162,83.13 52.785,88.714 49.264,75.604C48.077,71.186 52.769,69.145 48.404,67.71C44.46,66.414 44.593,60.984 45.789,59.789C49.742,55.836 51.765,63.863 51.916,64.46C52.272,65.873 55.525,66.878 54.367,62.555C52.73,56.449 59.129,56.627 60.272,57.739C63.731,61.101 58.283,64.622 57.77,64.954C57.57,65.083 55.849,66.331 59.592,67.32C60.832,67.648 63.878,73.807 63.927,75.449C63.986,77.437 63.831,79.428 63.902,81.416C63.985,83.719 68.692,80.144 71.58,81.297C75.071,82.691 73.387,79.421 74.283,77.406C78.035,68.975 85.503,75.702 81.249,80.412Z" style="fill-opacity:1;"/>
            <path d="M294.594,101.551C295.323,95.209 296.853,94.586 297.426,94.353C305.125,91.219 302.607,107.156 303.403,109.542C304.401,112.534 301.899,115.151 303.395,119.546C303.704,120.451 303.019,120.488 303.461,131.5C303.646,136.112 302.01,135.849 301.914,140.502C301.772,147.352 300.648,147.385 301.022,147.843C303.924,151.393 305.146,140.076 305.672,138.577C308.974,129.165 313.218,137.272 311.702,141.581C310.819,144.089 311.711,144.222 310.7,146.582C307.944,153.012 302.545,154.669 301.599,154.959C298.968,155.766 299.673,156.541 297.207,161.179C294.721,163.425 294.394,163.012 283.498,163.026C283.006,162.697 282.957,163.281 282.498,162.973C282.372,162.889 281.39,162.231 281.274,161.536C281.264,161.479 286.049,150.898 278.396,147.73C278.164,147.634 275.501,146.531 275.5,146.532C274.971,146.76 274.789,147.508 274.26,147.736C267.766,140.862 269.67,139.842 268.94,130.449C267.852,116.457 273.541,119.151 274.274,119.765C278.329,123.16 273.963,143.868 279.489,143.472C281.108,143.356 278.462,121.56 280.492,108.499C281.041,104.966 279.613,105.082 279.821,101.529C279.947,99.39 278.46,81.167 286.476,81.995C290.482,82.408 290.909,89.791 290.674,90.565C289.652,93.922 291.548,94.115 290.336,97.423C289.669,99.245 290.222,112.541 289.953,123.5C289.891,126.014 291.101,125.977 290.306,128.425C289.761,130.105 290.178,130.159 289.882,150.499C289.876,150.891 289.768,158.336 291.975,154.925C292.717,153.78 292.507,148.842 293.67,145.578C293.78,145.27 293.698,145.276 294.05,141.503C294.242,141.3 295.52,141.509 296.002,139.446C296.164,138.749 297.177,134.408 296.176,130.5C295.777,129.836 295.377,129.172 294.977,128.508C295.138,124.916 293.559,124.918 294.682,121.574C294.741,121.399 295.526,116.129 294.744,112.429C294.512,111.332 295.614,104.458 294.597,103.448C294.2,103.054 293.647,103.813 293.744,103.252C293.863,102.561 294.63,103.251 294.76,102.5L294.594,101.551Z"/>
            <path d="M75.228,194.476C75.152,191.699 73.347,175.691 81.547,177.087C85.33,177.73 88.156,186.207 84.784,198.553C84.386,200.011 86.606,200.092 87.232,198.402C87.591,197.432 87.821,193.695 90.309,189.383C91.985,186.479 98.722,181.223 99.055,190.502C99.254,196.07 88.022,212.184 97.784,200.873C102.665,195.218 113.117,191.779 108.681,203.592C108.111,205.111 94.209,215.812 105.593,210.706C110.38,208.559 117.617,211.799 113.302,215.272C113.101,215.434 106.316,218.043 104.507,218.044C104.35,218.044 104.362,218.039 102.539,217.972L101.5,216.907C99.7,216.353 95.714,216.289 95.208,216.28C95.085,215.249 95.581,214.756 94.483,214.74C93.432,214.724 93.62,215.123 91.582,217.743C88.942,218.796 88.988,219.59 86.326,218.697C86.356,218.609 85.823,218.475 89.264,212.395C90.576,210.076 88.748,208.969 87.713,210.632C85.085,214.854 84.466,217.549 84.318,218.196C79.406,220.276 78.391,221.046 75.275,216.692C74.199,215.189 68.484,209.488 69.156,213.587C69.241,214.109 75.79,219.006 70.496,219.171C66.408,219.298 66.299,220 62.574,218.345C62.005,218.092 54.175,218.371 47.368,214.703C42.647,212.158 53.177,208.742 56.559,210.36C57.564,210.841 57.524,210.795 58.51,211.239C59.74,211.809 59.786,212.692 60.763,211.743C61.956,210.584 60.493,210.753 59.401,209.565C58.924,209.125 49.82,202.394 52.677,197.596C57.843,188.921 67.335,208.888 67.78,203.618C67.829,203.034 64.5,198.613 64.069,195.551C63.821,193.792 61.355,187.92 65.413,186.326C68.483,185.12 71.116,189.577 71.237,189.727C72.689,191.522 73.277,195.472 73.544,196.49C73.647,196.746 76.378,203.506 76.364,198.482C76.363,198.072 75.329,194.794 75.228,194.476ZM81.507,208.5C80.649,216.201 79.522,207.681 79.532,207.504C79.54,207.366 79.613,206.056 80.478,206.055C82.096,206.052 81.352,206.842 81.507,208.5Z"/>
            <path d="M254.732,182.25C259.219,187.511 262.273,204.122 262.383,195.477C262.395,194.511 261.555,194.648 260.893,183.495C260.74,180.922 264.832,167.814 269.322,175.594C269.523,175.942 269.248,175.95 270.707,180.417C272.618,186.267 269.481,186.427 270.703,192.515C270.767,192.836 271.31,193.047 271.207,193.356C270.78,194.633 269.896,194.073 269.726,195.485C269.578,196.706 271.418,197.073 272.104,195.348C273.234,192.509 273.084,186.954 278.741,181.783C279.703,180.904 285.152,180.561 282.335,188.425C282.041,189.244 282.399,193.496 278.49,198.492C278.392,198.617 275.609,203.939 279.794,199.99C281.165,198.696 288.336,189.776 292.603,191.292C294.822,192.081 294.145,197.256 292.244,199.266C291.116,200.459 284.302,205.978 287.576,206.118C287.818,206.128 299.37,204.752 299.384,208.5C299.387,209.209 299.391,210.324 291.605,212.743C288.055,213.846 285.902,211.779 280.561,213.857C279.163,214.401 279.011,213.302 278.867,213.251C281.612,210.008 281.109,209.741 281.093,209.705C280.942,209.376 280.307,208.51 277.301,212.179C275.114,213.464 275.071,213.263 272.608,213.119C270.923,209.191 275.67,207.887 273.36,206.826C272.624,206.488 270.446,208.28 269.382,213.005C266.392,212.97 266.49,213.477 263.506,213.413C263.337,213.409 263.377,213.324 261.761,212.209C258.386,206.079 254.58,207.081 256.068,208.704C258.012,210.827 258.289,210.59 259.275,213.313C253.635,215.497 253.55,213.093 247.503,212.973C241.132,212.846 230.545,210.155 234.739,206.778C237.739,204.363 251.616,208.477 246.351,204.725C245.353,204.014 241.73,203.528 238.269,195.597C237.298,193.372 240.481,189.228 246.736,194.218C249.505,196.427 249.538,196.291 251.904,199.008C255.808,203.491 253.341,197.718 253.264,197.58C251.879,195.13 251.546,195.333 251.014,192.544L252.309,191.5C253.524,184.053 251.876,184.028 252.238,183.5C252.49,183.132 253.248,183.423 253.5,183.055L254.732,182.25Z"/>
            <path d="M229.725,99.281C231.128,101.073 230.299,101.631 232.208,102.954C238.626,107.4 233.458,113.21 235.33,118.572C236.392,121.614 233.842,121.307 233.931,124.508C234.046,128.633 233.476,128.517 232.337,132.436C231.523,135.236 235.649,138.337 236.49,138.336C238.62,138.331 237.977,132.825 238.063,131.455C238.275,128.077 242.426,125.103 244.281,126.752C249.615,131.493 247.688,132.49 247.096,135.433C245.771,142.008 243.513,140.562 238.982,145.511C239.467,146.735 241.619,152.176 235.976,161.697C233.411,166.026 238.488,162.006 241.629,163.297C246.379,165.249 236.21,166.811 233.329,168.005C231.32,168.838 220.583,166.781 218.294,165.975C216.647,165.394 216.501,162.498 221.573,162.991C225.05,163.328 221.627,160.251 221.32,159.594C218.848,154.315 219.667,154.125 218.922,148.392C218.679,146.52 217.533,147.618 215.257,145.783C213.71,144.243 213.608,144.472 212.213,142.752C211.543,141.927 211.449,142.078 210.765,141.284C208.806,139.011 211.641,136.543 210.229,134.716C206.649,130.084 213.812,125.818 217.254,129.723C217.741,130.276 217.484,130.354 219.004,138.76C219.529,141.663 220.955,139.334 221.043,139.192C223.529,135.132 226.362,135.383 224.214,132.743C222.286,130.374 222.924,130.091 221.295,124.574C220.395,121.526 222.593,120.438 221.211,118.737C218.356,115.226 222.101,113.726 221.667,111.452C220.777,106.792 220.523,106.293 224.206,103.215C225.162,102.415 225.187,95.439 229.725,99.281Z"/>
            <path d="M31.765,166.48C29.799,172.827 31.037,173.006 31.578,173.02C32.241,173.036 33.109,169.441 33.453,168.489C34.304,165.645 34.233,165.633 34.372,165.417C38.401,159.192 38.225,159.132 38.682,158.684C38.957,158.414 41.005,156.409 42.567,155.825C46.356,154.408 42.208,157.441 38.719,167.594C38.276,168.882 32.519,177.017 34.534,177.146C37.603,177.342 34.58,172.16 47.632,166.989C50.385,165.898 49.998,169.518 43.403,173.34C42.243,174.013 41.715,175.782 41.169,176.312C37.325,180.041 44.136,177.711 47.315,177.965C47.793,178.003 48.149,180.14 46.619,180.711C37.892,183.966 37.347,183.964 36.497,183.96C24.928,183.913 11.704,185.085 8.175,181.706C7.904,181.447 6.587,177.799 12.544,179.987C16.685,181.509 9.784,173.169 2.695,169.15C1.362,168.394 1.673,166.421 3.641,167.076C11.087,169.556 11.796,170.007 15.203,173.9C15.368,174.089 22.726,182.494 18.264,174.58C16.266,171.036 16.178,171.178 14.686,167.421C13.439,164.279 7.884,158.827 10.557,158.632C14.947,158.311 20.151,169.235 20.684,170.354C20.724,170.703 20.64,171.06 20.68,171.409C21.174,175.793 22.992,173.685 23.092,173.453C23.237,173.115 23.127,172.612 23.111,172.541C22.717,170.732 21.71,171.049 21.505,170.831C22.201,169.755 22.707,169.84 22.204,168.58C20.257,163.704 20.078,163.787 20.038,162.497C19.981,160.664 15.82,147.546 16.003,145.333C16.466,139.75 22.764,151.854 24.091,156.58C25.26,160.745 24.579,160.833 24.976,162.332C25.974,166.104 25.387,168.896 25.706,169.385C27.841,172.658 27.496,164.915 27.478,164.499C27.412,163.028 27.038,154.654 30.153,146.28C32.611,139.669 32.15,148.997 32.372,149.563C32.658,150.292 34.639,155.342 33.001,159.33C31.14,163.863 31.987,164.171 31.765,166.48Z"/>
            <path d="M183.625,187.987C179.029,188.115 178.946,188.949 174.578,187.333C172.72,186.646 164.563,187.575 168.326,181.39C172.885,173.894 180.534,182.65 179.843,178.42C179.484,176.226 175.429,176.657 178.355,169.421C178.708,168.55 181.998,166.001 184.179,171.745C186.888,178.883 185.321,166.566 187.756,163.729C190.891,160.078 191.401,163.4 192.743,167.385C193.6,169.93 190.193,175.81 193.41,173.368C194.758,172.345 193.536,171.039 197.443,169.223C199.159,168.426 199.278,171.387 198.665,172.564C197.006,175.744 195.592,176.553 197.388,176.708C197.542,176.722 206.99,170.245 204.697,176.593C204.044,178.401 197.666,181.246 200.677,182.057C201.297,182.224 202.372,181.593 202.504,181.516C204.231,180.504 211.778,183.561 205.586,185.713C198.322,188.238 193.418,187.794 192.352,187.697C192.547,187.396 191.972,186.938 192.167,186.637C192.503,186.118 193.21,185.971 193.707,185.605C194.233,185.218 194.219,184.642 194.217,184.548C194.154,182.027 190.565,186.903 190.342,187.205C189.695,187.382 189.66,188.204 186.58,187.005C186.387,186.75 178.291,176.033 182.967,185.291C183.437,186.222 182.685,186.408 182.698,186.5C182.783,187.078 183.54,187.409 183.625,187.987Z"/>
            <path d="M169.261,204.398C171.569,207.394 171.554,207.344 171.745,207.607C169.703,212.88 171.972,213.306 169.945,218.641C169.881,218.808 169.182,226.008 171.876,219.758C173.358,216.321 177.673,212.686 179.587,211.937C185.221,209.734 169.499,227.742 176.582,224.745C177.465,224.371 177.709,223.739 183.568,224.047C185.867,224.167 186.6,226.725 184.456,227.064C176.223,228.363 176.773,230.955 168.5,230.937C158.213,230.915 158.199,230.84 148.401,227.728C148.106,227.634 143.055,226.029 145.705,224.958C150.419,223.052 153.157,224.724 153.703,225.058C161.642,229.906 143.956,210.672 151.588,214.215C157.611,217.011 159.318,222.858 159.788,223.103C162.697,224.615 159.029,217.493 159.017,214.495C159.004,211.307 156.633,205.301 157.513,204.513C160.115,202.182 164.293,217.01 164.643,217.284C166.422,218.673 165.458,214.025 169.261,204.398Z"/>
            <path d="M317.877,172.225C319.748,170.897 319.705,170.543 318.83,168.39C317.482,165.072 318.091,162.808 317.792,161.471C316.433,155.394 320.001,160.541 320.082,160.717C323.153,167.389 321.459,167.813 321.793,168.342C323.456,170.974 324.144,163.731 325.27,160.405C325.893,158.567 330.042,153.204 330.619,152.967C334.297,151.457 328.987,159.091 328.978,162.494C328.963,168.399 324.341,170.012 328.028,172.032C330.606,164.773 336.658,165.347 334.291,168.336C329.249,174.701 329.816,175.493 330.467,175.556C331.027,175.61 337.371,172.157 336.738,175.566C336.595,176.338 330.353,181.323 327.502,181.132C320.669,180.673 319.95,182.078 311.726,178.031C305.199,174.819 312.232,174.927 312.477,174.982C312.931,175.085 316.181,177.324 315.401,174.514C314.445,171.069 306.003,161.125 314.29,165.965C316.542,167.28 317.727,171.668 317.877,172.225Z"/>
            <path d="M120.253,157.285C122.164,162.71 121.624,162.806 121.789,163.273C121.9,163.589 122.253,162.993 125.338,165.5L126.765,164.532C127.276,164.764 127.642,165.949 129.544,163.813C132.331,163.118 132.309,163.022 132.554,163.062C144.133,164.965 120.545,172.054 115.67,170.013C112.766,168.797 112.631,169.402 109.718,168.025C104.374,165.499 103.429,168.213 102.303,166.651C101.906,166.1 101.106,162.417 110.504,164.472C114.638,165.376 108.413,158.836 107.567,158.39C102.516,155.725 107.331,155.161 107.565,155.253C114.432,157.95 112.675,160.061 114.514,161.48C117.952,164.133 114.863,156.785 114.706,156.411C113.16,152.732 114.594,152.437 113.173,148.629C112.266,146.198 113.833,144.398 115.084,146.718C117.602,151.389 118.509,151.097 118.66,156.467C118.667,156.708 118.744,159.471 118.745,159.472C121.413,163.367 120.293,157.493 120.253,157.285Z"/>
            <path d="M120.253,157.285C121.623,153.777 121.102,152.761 121.118,152.45C121.396,147.023 128.208,140.475 125.87,146.615C123.607,152.557 126.107,153.479 124.623,156.55C123.004,159.9 124.066,159.958 125.083,161.192C125.141,161.668 124.617,162.095 124.675,162.571C124.698,162.761 125.305,161.808 126.788,163.704C126.959,163.921 126.594,164.314 126.765,164.532L125.338,165.5C122.253,162.993 121.9,163.589 121.789,163.273C121.624,162.806 122.164,162.71 120.253,157.285Z"/>
            <path d="M134.499,85.5C134.485,88.622 134.061,88.635 135.232,91.587C136.208,94.047 134.826,94.315 136.085,96.66C136.131,96.745 137.026,101.077 139.111,104.86C139.676,105.885 144.207,111.404 150.507,113.464C151.38,113.749 151.195,113.962 151.963,114.519C150.537,115.481 150.212,116.065 144.758,113.004C137.42,108.885 135.847,102.646 135.559,101.504C135.539,99.787 135.746,99.68 134.556,98.48C133.554,95.055 133.893,95.052 133.004,91.654C133.136,91.165 133.086,91.244 134.499,85.5Z" style="fill-opacity:0.06;"/>
            <path d="M173.014,85.508C173.283,87.216 173.361,87.123 174.006,88.67C174.047,88.766 174.062,108.885 174.064,110.643C172.212,110.511 172.208,110.572 172.064,110.5C172.007,110.471 171.081,90.314 171.889,87.5C172.264,86.836 172.639,86.172 173.014,85.508Z"/>
            <path d="M285.027,119.515C284.943,117.285 283.973,91.601 284.873,91.625C287.23,91.685 286.541,98.021 286.848,107.48C286.946,110.505 287.164,110.451 286.686,113.5L286.634,114.5L286.556,115.5L286.506,116.5C286.013,117.505 285.52,118.51 285.027,119.515Z"/>
            <path d="M274.26,147.736C274.789,147.508 274.971,146.76 275.5,146.532C275.501,146.531 278.164,147.634 278.396,147.73C286.049,150.898 281.264,161.479 281.274,161.536C281.39,162.231 282.372,162.889 282.498,162.973C282.957,163.281 283.006,162.697 283.498,163.026C280.947,163.04 280.983,163.289 278.482,162.544C279.041,162.039 279.6,161.533 280.159,161.028C281.276,158.372 280.135,158.358 280.006,155.496C279.838,151.802 279.706,151.578 276.735,150.027C276.715,150.016 276.732,150.029 274.26,147.736Z"/>
            <path d="M125.083,161.192C126.659,157.676 125.843,156.87 129.406,155.314C138.932,151.155 126.822,162.08 128.349,163.648C128.629,163.937 129.264,163.525 129.544,163.813C127.642,165.949 127.276,164.764 126.765,164.532C126.594,164.314 126.959,163.921 126.788,163.704C125.305,161.808 124.698,162.761 124.675,162.571C124.617,162.095 125.141,161.668 125.083,161.192Z"/>
            <path d="M165.208,102.499L166.5,103.603L167.006,104.5L167.054,105.5L167.155,106.5L167.09,107.5L167.087,108.5C167.132,111.359 167.101,111.291 167,121.5L165.18,122.5C165.172,112.426 165.172,112.523 165.208,102.499Z"/>
            <path d="M254.732,182.25L253.5,183.055C253.248,183.423 252.49,183.132 252.238,183.5C251.876,184.028 253.524,184.053 252.309,191.5L251.014,192.544C248.157,184.961 250.589,178.973 254.732,182.25Z"/>
            <path d="M294.977,128.508C295.377,129.172 295.777,129.836 296.176,130.5C297.177,134.408 296.164,138.749 296.002,139.446C295.52,141.509 294.242,141.3 294.05,141.503C293.987,133.87 293.251,133.75 294.658,130.576C294.726,130.423 294.682,130.423 294.977,128.508Z"/>
            <path d="M132.737,76.632L133.387,76.247C133.402,76.264 134.502,76.26 134.541,77.494C134.562,78.134 134.538,78.087 134.499,85.5C133.086,91.244 133.136,91.165 133.004,91.654C132.794,90.47 131.987,85.92 132.737,76.632Z" style="fill-opacity:0.18;"/>
            <path d="M228.317,108.571C228.579,110.117 228.818,118.373 228.408,120.432C226.998,120.347 226.977,120.421 226.885,120.34C226.731,120.204 226.267,109.912 226.626,109.536C227.075,109.066 227.869,109.041 228.317,108.571Z"/>
            <path d="M153.456,184.57C153.021,183.688 147.587,175.953 152.589,178.306C153.887,178.917 156.156,183.14 156.075,183.407C155.941,183.853 155.759,184.284 155.625,184.73C154.902,184.676 154.179,184.623 153.456,184.57Z"/>
            <path d="M95.208,216.28C95.714,216.289 99.7,216.353 101.5,216.907L102.539,217.972C100.896,218.619 96.659,219.82 93.327,218.73C93.954,217.914 94.581,217.097 95.208,216.28Z"/>
            <path d="M84.318,218.196C84.466,217.549 85.085,214.854 87.713,210.632C88.748,208.969 90.576,210.076 89.264,212.395C85.823,218.475 86.356,218.609 86.326,218.697C85.656,218.53 84.987,218.363 84.318,218.196Z" style="fill-opacity:0.09;"/>
            <path d="M150.797,184.98C142.929,184.25 145.179,181.067 145.691,180.989C148.802,180.515 150.393,183.254 150.568,183.467C150.91,183.882 151.58,184.125 151.661,184.657C151.707,184.961 150.751,184.676 150.797,184.98Z" style="fill-opacity:0.98;"/>
            <path d="M261.761,212.209C260.312,212.931 260.39,212.999 259.275,213.313C258.289,210.59 258.012,210.827 256.068,208.704C254.58,207.081 258.386,206.079 261.761,212.209Z" style="fill-opacity:0.17;"/>
            <path d="M269.382,213.005C270.446,208.28 272.624,206.488 273.36,206.826C275.67,207.887 270.923,209.191 272.608,213.119C271.533,213.081 270.457,213.043 269.382,213.005Z" style="fill-opacity:0.17;"/>
            <path d="M280.159,161.028C279.6,161.533 279.041,162.039 278.482,162.544C275.181,161.728 274.956,161.506 274.73,161.284C274.596,161.152 272.93,159.511 275.365,159.017C277.215,158.642 278.252,159.993 280.159,161.028Z" style="fill-opacity:0.94;"/>
            <path d="M132.288,110.608C132.826,110.655 133.236,108.371 135.025,110.846C136.415,112.768 136.444,113.259 136.459,113.5C136.519,114.503 135.198,113.709 135.26,114.743C133.534,112.856 133.555,112.933 132.288,110.608Z" style="fill-opacity:0.97;"/>
            <path d="M31.765,166.48C31.948,166.83 31.969,166.795 33.453,168.489C33.109,169.441 32.241,173.036 31.578,173.02C31.037,173.006 29.799,172.827 31.765,166.48Z" style="fill-opacity:0.19;"/>
            <path d="M183.625,187.987C183.54,187.409 182.783,187.078 182.698,186.5C182.685,186.408 183.437,186.222 182.967,185.291C178.291,176.033 186.387,186.75 186.58,187.005C186.346,187.09 186.389,187.056 183.625,187.987Z" style="fill-opacity:0.51;"/>
            <path d="M169.261,204.398C170.315,202.551 170.153,200.765 171.639,202.328C172.724,203.469 172.097,203.685 171.745,207.607C171.554,207.344 171.569,207.394 169.261,204.398Z" style="fill-opacity:0.95;"/>
            <path d="M81.249,80.412C81.706,81.036 82.163,81.659 82.62,82.283C81.339,83.258 81.348,83.141 80.15,84.165C78.164,85.861 77.032,83.855 78.582,82.657C79.672,81.814 79.65,81.8 79.755,81.745C80.652,81.275 80.465,81.111 81.249,80.412Z" style="fill-opacity:0.3;"/>
            <path d="M299.647,162.161C300.099,157.09 304.676,159.92 303.184,161.084C301.69,162.25 301.58,161.876 299.647,162.161Z" style="fill-opacity:0.98;"/>
            <path d="M75.228,194.476C75.329,194.794 76.363,198.072 76.364,198.482C76.378,203.506 73.647,196.746 73.544,196.49C74.059,195.87 74.298,196.295 74.776,195.72C74.843,195.639 74.809,195.628 75.228,194.476Z" style="fill-opacity:0.23;"/>
            <path d="M277.301,212.179C280.307,208.51 280.942,209.376 281.093,209.705C281.109,209.741 281.612,210.008 278.867,213.251C278.345,212.894 277.823,212.536 277.301,212.179Z" style="fill-opacity:0.1;"/>
            <path d="M164.661,33.385C164.734,35.21 164.716,35.2 164.74,35.356C164.756,35.463 164.996,35.426 165.012,35.533L165,37.37C164.604,37.817 164.208,38.264 163.812,38.712C163.733,38.4 162.684,38.184 163.199,36.316C163.575,34.951 162.587,34.663 163.636,33.711C163.901,33.47 164.396,33.626 164.661,33.385Z" style="fill-opacity:0.98;"/>
            <path d="M190.342,187.205C190.565,186.903 194.154,182.027 194.217,184.548C194.219,184.642 194.233,185.218 193.707,185.605C193.21,185.971 192.503,186.118 192.167,186.637C191.972,186.938 192.547,187.396 192.352,187.697C191.682,187.533 191.012,187.369 190.342,187.205Z" style="fill-opacity:0.34;"/>
            <path d="M95.208,216.28C94.581,217.097 93.954,217.914 93.327,218.73C92.745,218.401 92.164,218.072 91.582,217.743C93.62,215.123 93.432,214.724 94.483,214.74C95.581,214.756 95.085,215.249 95.208,216.28Z" style="fill-opacity:0.33;"/>
            <path d="M192.368,68.907C192.316,68.559 191.54,63.296 193.366,64.628C193.575,64.781 193.667,65.351 193.678,65.418C194.109,68.087 193.294,67.939 193.169,68.755L192.368,68.907Z"/>
            <path d="M20.684,170.354L21.505,170.831C21.71,171.049 22.717,170.732 23.111,172.541C23.127,172.612 23.237,173.115 23.092,173.453C22.992,173.685 21.174,175.793 20.68,171.409C20.64,171.06 20.724,170.703 20.684,170.354Z" style="fill-opacity:0.96;"/>
            <path d="M222.792,146.626C226.88,146.676 223.662,148.472 223.503,148.488C222.212,148.617 222.744,147.929 222.792,146.626Z"/>
            <path d="M59.401,209.565C60.493,210.753 61.956,210.584 60.763,211.743C59.786,212.692 59.74,211.809 58.51,211.239C58.807,210.681 59.104,210.123 59.401,209.565Z" style="fill-opacity:0.44;"/>
            <path d="M234.581,148.031C234.465,147.835 232.724,147.289 234.384,146.085C234.942,145.68 235.812,146.933 235.476,147.486C235.295,147.785 234.762,147.732 234.581,148.031Z"/>
            <path d="M178.568,119.949C175.758,120.352 176.691,118.935 176.798,118.805C177.231,118.281 177.397,118.388 177.448,118.421C178.283,118.961 177.727,119.406 178.568,119.949Z" style="fill-opacity:0.28;"/>
            <path d="M134.556,98.48C135.746,99.68 135.539,99.787 135.559,101.504C135.224,100.496 134.89,99.488 134.556,98.48Z" style="fill-opacity:0.85;"/>
            <path d="M164.661,33.385L165.103,33.482L165.012,35.533C164.996,35.426 164.756,35.463 164.74,35.356C164.716,35.2 164.734,35.21 164.661,33.385Z"/>
        </g>
    </g>
</svg>
