<?xml version="1.0" encoding="UTF-8" standalone="no"?>
<!DOCTYPE svg PUBLIC "-//W3C//DTD SVG 1.1//EN" "http://www.w3.org/Graphics/SVG/1.1/DTD/svg11.dtd">
<svg width="100%" height="100%" viewBox="0 0 384 333" version="1.1" xmlns="http://www.w3.org/2000/svg" xmlns:xlink="http://www.w3.org/1999/xlink" xml:space="preserve" xmlns:serif="http://www.serif.com/" style="fill-rule:evenodd;clip-rule:evenodd;stroke-linejoin:round;stroke-miterlimit:2;">
    <g transform="matrix(1,0,0,1,72,61.5)">
        <g transform="matrix(0.55933,0,0,0.711399,-1.630728,58.830771)">
            <path d="M219.517,24.588C219.38,24.524 212.275,21.243 217.928,25.607C242.511,33.95 243.601,39.123 244.107,41.521C244.292,42.399 245.297,47.164 246.125,52.551C246.253,53.384 256.717,98.621 257.148,103.544C259.18,126.729 270.133,153.848 258.936,133.291C245.808,109.187 246.801,106.08 230.246,93.795C216.634,83.695 219.948,81.118 207.637,44.439C204.795,35.97 202.381,38.144 186.454,34.965C176.929,33.064 177.029,33.554 167.443,31.988C155.019,29.959 147.702,28.515 134.492,28.158C131.452,28.076 117.65,14.164 97.482,14.106C94.992,14.099 95.235,11.754 66.494,11.162C64.212,11.115 64.624,10.079 62.45,9.993C57.814,9.81 13.422,8.058 4.489,7.98C-0.003,7.941 2.011,3.036 3.536,2.978C7.098,2.845 188.345,-1.93 220.593,7.276C236.258,11.748 236.048,12.943 252.476,12.833C253.519,12.826 253.2,13.907 265.474,13.85C276.696,13.799 276.238,17.104 287.491,17.028C293.009,16.991 322.216,23.522 323.686,27.401C333.174,52.432 332.438,72.678 344.745,82.219C348.924,85.457 353.641,85.126 357.75,96.393C363.418,111.933 362.972,112.797 361.621,112.97C359.559,113.232 352.322,112.267 358.625,116.294C373.965,126.093 365.374,131.476 370.527,139.478C371.233,140.574 372.347,139.506 381.798,151.243C382.528,152.149 383.525,152.807 384.321,153.656C390.826,160.596 364.624,154.171 363.981,153.217C360.327,147.795 363.25,145.737 357.589,142.353C356.634,141.782 356.597,141.913 345.537,135.405L345.356,134.5C341.672,134.024 341.732,133.373 338.346,134.758C335.037,131.228 331.953,108.056 330.958,121.853C330.87,123.067 322.612,119.667 321.87,114.454C321.704,113.284 315.752,95.153 314.887,88.416C314.44,84.93 303.79,84.163 302.852,77.456C302.779,76.932 292.01,37.378 291.881,36.451C291.288,32.172 289.025,33.776 219.517,24.588Z"/>
            <path d="M258.48,34.002C261.645,34.346 275.599,37.143 282.586,38.037C285.675,38.432 284.279,39.912 293.089,75.52C303.461,117.442 300.134,118.003 301.66,121.412C304.161,127 303.081,107.685 305.422,109.609C318.289,120.18 315.973,133.041 325.465,158.515C326.78,162.045 323.513,160.596 300.397,152.739C294.078,150.591 293.893,141.438 291.317,146.388C289.968,148.979 287.271,147.498 276.382,143.714C273.01,142.542 268.427,116.751 267.999,114.346C267.47,111.37 264.287,93.461 259.905,77.448C255.401,60.992 256.199,60.806 255.623,59.442C253.729,54.965 252.195,46.492 251.988,45.346C250.453,36.868 249.128,37.331 241.64,33.317C233.948,29.193 257.157,33.742 258.48,34.002Z"/>
            <path d="M377.004,128.481C378.515,109.874 400.862,127.881 402.751,133.39C408.971,151.532 387.927,142.526 387.684,142.304C377.376,132.883 377.121,129.873 377.004,128.481Z"/>
            <path d="M353.507,161.994C350.448,161.428 342.481,161.067 341.52,161.023C340.745,160.988 340.959,160.592 333.699,155.302C333.148,154.901 331.037,144.696 335.394,143.243C344.108,140.336 344.246,142.018 351.758,147.205C353.868,148.662 367.867,160.732 353.507,161.994Z"/>
            <path d="M408.347,161.766C405.176,158.509 407.283,143.779 422.285,153.752C431.964,160.187 432.128,160.77 431.497,161.497C431.089,161.967 419.309,159.546 411.643,161.777C409.901,161.129 409.969,161.167 408.347,161.766Z"/>
            <path d="M338.346,134.758C341.732,133.373 341.672,134.024 345.356,134.5L345.537,135.405C341.869,135.275 342.069,135.555 338.346,134.758Z" style="fill-opacity:0.77;"/>
            <path d="M219.517,24.588C218.987,24.928 218.458,25.267 217.928,25.607C212.275,21.243 219.38,24.524 219.517,24.588Z" style="fill-opacity:0.95;"/>
            <path d="M408.347,161.766C409.969,161.167 409.901,161.129 411.643,161.777C409.926,162.401 410.085,162.121 408.347,161.766Z" style="fill-opacity:0.68;"/>
        </g>
    </g>
</svg>
