<?xml version="1.0" encoding="UTF-8" standalone="no"?>
<!DOCTYPE svg PUBLIC "-//W3C//DTD SVG 1.1//EN" "http://www.w3.org/Graphics/SVG/1.1/DTD/svg11.dtd">
<svg width="100%" height="100%" viewBox="0 0 384 333" version="1.1" xmlns="http://www.w3.org/2000/svg" xmlns:xlink="http://www.w3.org/1999/xlink" xml:space="preserve" xmlns:serif="http://www.serif.com/" style="fill-rule:evenodd;clip-rule:evenodd;stroke-linejoin:round;stroke-miterlimit:2;">
    <g transform="matrix(1,0,0,1,72,61.5)">
        <g id="coral" transform="matrix(0.434583,0,0,0.434583,66.747596,87.763235)">
            <path d="M103.753,141.318C103.953,141.47 104.153,141.622 104.353,141.774C117.029,134.925 137.069,80.62 118.71,70.041C86.578,51.524 87.658,10.668 106.309,22.726C110.292,25.301 106.985,45.575 123.451,52.639C127.58,54.41 130.483,29.178 128.981,25.341C128.853,25.014 128.306,6.895 130.673,4.681C138.228,-2.386 148.187,5.329 144.764,17.622C138.457,40.265 153.58,24.923 154.191,24.233C155.641,22.597 160.407,9.297 169.271,13.987C180.869,20.125 160.95,37.855 159.325,39.302C158.936,39.647 142.935,47.365 144.077,65.568C144.277,68.754 145.939,95.251 142.363,105.439C139.924,112.389 161.16,103.986 163.02,86.451C164.536,72.16 185.579,78.145 177.759,94.61C160.34,131.283 142.051,121.029 135.032,133.293C129.049,143.747 106.434,169.79 118.803,188.23C124.611,196.888 124.51,177.11 140.205,160.235C142.604,157.655 143.539,144.155 155.613,147.263C167.552,150.337 144.026,176.616 149.56,177.02C163.172,178.013 185.121,161.999 176.651,142.437C163.886,112.958 182.951,118.187 184.028,119.761C189.033,127.08 188.336,141.861 192.644,133.59C194.044,130.901 199.35,120.713 204.012,97.447C205.809,88.48 202.341,64.008 215.612,69.283C225.332,73.146 213.723,101.584 224.238,92.2C233.211,84.192 233.815,76.289 242.264,84.715C249.489,91.92 225.392,106.962 225.28,107.036C223.31,108.336 216.95,112.535 210.316,132.465C209.821,133.95 212.749,139.53 228.666,125.667C238.213,117.351 250.133,129.713 234.298,140.261C215.046,153.084 207.37,142.537 195.373,162.422C189.603,171.985 190.742,172.773 191.6,173.051C204.996,177.393 219.669,154.662 225.724,168.382C230.812,179.911 179.259,197.2 196.233,180.268C201.515,175 187.634,181.899 172.477,184.128C132.356,190.027 140.058,213.585 130.713,210.028C128.368,209.136 125.96,205.667 115.555,203.112C109.972,200.041 109.713,201.847 103.5,201.866L102.5,201.973C101.815,202.347 101.13,202.721 100.445,203.096C89.852,205.664 92.908,198.505 83.247,189.792C73.89,181.351 69.622,187.661 56.682,173.342C54.103,170.489 53.388,161.77 27.517,159.053C11.702,157.392 -9.429,130.167 9.491,130.024C12.659,130 31.317,152.12 31.915,142.546C32.086,139.811 13.965,107.038 30.464,108.945C41.928,110.27 43.99,144.517 53.381,144.029C56.923,143.846 54.011,123.704 66.293,129.959C75.575,134.686 54.553,161.829 83.455,168.602L84.5,169.929C90.564,169.073 87.562,166.438 88.258,160.5L88.257,159.5L88.227,158.5C87.825,157.829 87.423,157.158 87.021,156.487C79.134,127.063 77.126,127.744 56.689,105.331C51.059,99.156 52.929,97.484 45.712,93.046C11.628,72.088 19.584,36.646 35.273,53.705C35.823,54.304 43.783,75.093 48.35,73.12C54.331,70.535 47.642,37.68 54.724,33.98C77.861,21.891 62.641,72.392 66.358,84.561C69.486,94.8 83.59,114.263 87.997,95.646C89.429,89.598 89.507,89.687 87.814,83.475C85.759,75.936 103.079,68.559 104.16,81.524C106.613,110.958 91.428,111.995 97.366,125.555C101.614,135.255 101.92,134.974 103.753,141.318Z" style="fill-opacity:1;"/>
            <path d="M189.556,221.99C167.399,221.936 167.219,220.301 156.591,223.722C148.799,226.23 134.955,219.69 138.734,215.711C148.019,205.935 143.889,201.55 156.404,196.273C158.778,195.272 180.792,180.246 202.314,202.674C202.858,203.241 209.49,213.769 201.272,218.015C200.393,218.469 197.257,220.09 189.556,221.99Z"/>
            <path d="M48.434,222.998C44.948,221.898 32.61,221.837 28.975,215.261C20.712,200.313 49.921,190.521 52.563,189.635C63.582,185.941 81.279,196.964 83.328,199.649C92.509,211.682 82.445,211.102 78.813,215.768C71.402,225.29 69.553,222.977 48.434,222.998Z"/>
            <path d="M108.566,209.012C142.318,215.468 139.454,232.878 125.62,237.778C111.135,242.908 53.426,237.644 94.724,211.95C99.449,209.011 107.434,209.012 108.566,209.012Z"/>
            <path d="M183.501,230.846C190.096,232.25 190.054,232.063 190.598,232.26C200.843,235.987 193.156,243.736 179.448,241C159.866,237.091 182.656,231.07 183.501,230.846Z"/>
            <path d="M65.482,232.019C66.208,232.094 74.592,232.96 72.704,237.611C71.891,239.613 65.518,243.357 56.414,239.67C55.534,239.313 50.002,232.551 65.482,232.019Z"/>
            <path d="M224.642,222.786C214.855,223.993 210.556,214.313 220.496,213.959C237.167,213.364 229.448,221.865 228.546,221.97C226.545,222.204 226.718,222.352 224.642,222.786Z"/>
            <path d="M12.525,212.833C18.202,214.355 18.126,214.148 18.607,214.286C19.47,214.534 26.569,222.619 10.494,222.044C9.74,222.017 -2.065,218.583 12.525,212.833Z"/>
            <path d="M87.021,156.487C87.423,157.158 87.825,157.829 88.227,158.5L88.257,159.5L88.258,160.5C87.562,166.438 90.564,169.073 84.5,169.929L83.455,168.602C88.009,169.073 86.823,164.62 87.021,156.487Z"/>
            <path d="M100.445,203.096C101.13,202.721 101.815,202.347 102.5,201.973L103.5,201.866C109.713,201.847 109.972,200.041 115.555,203.112C110.518,203.107 105.482,203.101 100.445,203.096Z"/>
        </g>
    </g>
</svg>
