<?xml version="1.0" encoding="UTF-8" standalone="no"?>
<!DOCTYPE svg PUBLIC "-//W3C//DTD SVG 1.1//EN" "http://www.w3.org/Graphics/SVG/1.1/DTD/svg11.dtd">
<svg width="100%" height="100%" viewBox="0 0 384 333" version="1.1" xmlns="http://www.w3.org/2000/svg" xmlns:xlink="http://www.w3.org/1999/xlink" xml:space="preserve" xmlns:serif="http://www.serif.com/" style="fill-rule:evenodd;clip-rule:evenodd;stroke-linejoin:round;stroke-miterlimit:2;">
    <g transform="matrix(1,0,0,1,72,61.5)">
        <g id="falls" transform="matrix(0.826614,0,0,0.701962,-2.333684,42.2552)">
            <path d="M3.314,176.774C2.664,175.794 2.68,126.658 3.242,125.378C7.357,116.016 16.078,110.676 16.027,104.508C15.932,92.948 16.712,72.325 16.818,69.528C17.877,41.539 19.661,40.187 21.652,38.679C37.13,26.949 28.903,22.241 36.296,4.388C37.879,0.566 56.666,0.188 60.251,5.719C62.754,9.581 61.038,15 79.602,21.247C92.042,25.434 84.83,39.602 95.411,45.642C118.498,58.821 108.059,66.036 114.173,156.528C114.284,158.159 115.53,176.606 112.6,176.909C101.957,178.008 95.704,161.945 81.457,168.403C74.464,171.573 69.832,177.3 70.895,169.559C73.682,149.26 74.236,148.267 72.528,148.271C68.873,148.28 63.937,175.961 61.622,176.75C46.171,182.017 38.838,168.118 28.436,171.362C16.443,175.104 16.65,175.473 15.597,175.735C13.602,176.231 13.765,176.219 11.643,176.779C5.278,174.027 5.36,176.471 3.314,176.774Z"/>
            <path d="M260.366,176.77C238.998,173.24 239.691,161.852 219.434,169.341C205.732,174.406 219.528,160.838 213.611,147.443C212.997,146.052 209.964,67.024 210.002,60.497C210.156,33.85 192.969,36.812 193.931,32.482C197.459,16.601 199.412,16.823 214.384,10.229C225.822,5.192 231.65,13.069 246.612,18.234C258.754,22.425 253.443,55.902 259.752,60.206C261.142,61.154 274.204,70.065 274.165,75.523C274.091,85.924 275.179,85.639 275.17,86.523C275.115,92.222 276.18,91.981 276.15,97.525C276.07,112.517 278.136,115.605 278.16,117.523C278.368,134.323 292.003,129.798 292.025,146.5C292.058,170.979 296.557,175.566 287.442,176.391C286.898,176.267 286.994,176.486 280.5,175.709L279.5,175.726L278.5,175.743L277.5,175.765L276.5,175.781L275.5,175.794L274.5,175.792L273.5,175.781L272.5,175.768L271.5,175.751L270.5,175.722L269.5,175.705L268.5,175.684L267.5,175.672L266.5,175.658L265.5,175.648L264.5,175.633L263.5,175.632L262.5,175.61L261.5,175.601L260.366,176.77Z"/>
            <path d="M172.198,72.5C171.942,96.15 176.478,191.853 168.302,171.604C163.731,160.281 165.251,67.591 155.638,51.416C149.562,41.194 129.153,33.446 144.468,35.901C173.113,40.492 172.015,71.837 172.198,72.5Z"/>
            <path d="M53.5,199.179C53.104,199.07 49.142,197.979 48.505,197.978C35.294,197.946 34.631,190.486 23.39,187.749C11.909,184.954 30.46,180.05 40.29,184.957C51.162,190.384 51.699,187.839 57.518,187.862C76.743,187.937 79.378,169.924 100.772,184.187C116.311,194.545 118.827,185.697 137.445,191.621C147.68,194.877 128.424,195.311 125.448,196.103C106.503,201.144 106.145,198.822 88.572,190.343C84.466,188.362 70.662,198.45 53.5,199.179Z"/>
            <path d="M170.501,186.828C179.422,186.961 179.212,186.34 187.383,182.268C205.481,173.251 206.895,185.583 218.55,181.612C232.431,176.882 233.061,177.371 246.298,183.936C261.416,191.435 285.479,186.634 273.662,190.759C242.299,201.708 239.522,187.062 231.441,189.083C216.446,192.833 216.221,193.626 201.562,189.106C192.478,186.306 180.502,206.116 154.237,188.8C145.518,183.052 157.296,186.966 170.501,186.828Z"/>
            <path d="M136.784,162.649C135.16,170.514 136.294,175.217 134.341,171.689C133.847,170.798 131.946,160.63 132.028,145.503C132.05,141.271 129.733,136.895 129.975,112.501C130.059,104.119 127.7,101.037 127.984,76.502C128.284,50.57 113.362,41.972 110.582,40.37C110.302,40.209 98.303,35.819 110.493,36.032C127.214,36.324 136.885,53.28 137.084,63.491C137.238,71.422 138.812,152.389 136.784,162.649Z"/>
            <path d="M209.502,214.182C193.71,214.577 170.698,236.366 128.746,214.015C122.313,210.587 133.211,207.893 137.621,209.233C183.433,223.148 192.684,200.601 211.439,204.899C235.816,210.486 236.071,208.708 237.645,209.016C239.892,209.455 238.629,216.065 209.502,214.182Z"/>
            <path d="M194.12,150.503C193.814,150.972 191.661,154.27 193.437,157.467C189.433,203.066 189.458,60.205 180.973,47.277C174.866,37.972 159.146,36.723 170.405,36.014C181.765,35.299 192.894,45.819 193.072,53.489C194.197,102.064 193.939,101.911 194.12,150.503Z"/>
            <path d="M82.487,218.994C80.409,219.163 65.493,220.374 56.737,215.023C46.643,208.855 61.738,210.565 64.556,209.909C81.397,205.988 81.296,211.327 98.472,211.904C111.459,212.339 83.85,218.681 82.487,218.994Z"/>
            <path d="M260.366,176.77L261.5,175.601L262.5,175.61L263.5,175.632L264.5,175.633L265.5,175.648L266.5,175.658L267.5,175.672L268.5,175.684L269.5,175.705L270.5,175.722L271.5,175.751L272.5,175.768L273.5,175.781L274.5,175.792L275.5,175.794L276.5,175.781L277.5,175.765L278.5,175.743L279.5,175.726L280.5,175.709C286.994,176.486 286.898,176.267 287.442,176.391C281.002,178.152 261.403,176.96 260.366,176.77Z"/>
            <path d="M3.314,176.774C5.36,176.471 5.278,174.027 11.643,176.779C8.459,176.994 8.622,177.791 3.314,176.774Z" style="fill-opacity:0.78;"/>
            <path d="M194.12,150.503C194.057,154.476 194.578,154.363 193.437,157.467C191.661,154.27 193.814,150.972 194.12,150.503Z" style="fill-opacity:0.84;"/>
        </g>
    </g>
</svg>
