<?xml version="1.0" encoding="UTF-8" standalone="no"?>
<!DOCTYPE svg PUBLIC "-//W3C//DTD SVG 1.1//EN" "http://www.w3.org/Graphics/SVG/1.1/DTD/svg11.dtd">
<svg width="100%" height="100%" viewBox="0 0 384 333" version="1.1" xmlns="http://www.w3.org/2000/svg" xmlns:xlink="http://www.w3.org/1999/xlink" xml:space="preserve" xmlns:serif="http://www.serif.com/" style="fill-rule:evenodd;clip-rule:evenodd;stroke-linejoin:round;stroke-miterlimit:2;">
    <g transform="matrix(1,0,0,1,72,61.5)">
        <g transform="matrix(0.570071,0,0,0.652128,-1.140143,48.567737)">
            <path d="M247.514,116.001C264.294,111.846 264.404,112.797 281.354,116.961C285.085,117.878 277.837,120.235 277.442,120.364C176.069,153.341 89.542,231.977 84.668,229.252C79.324,226.264 80.328,225.074 61.693,211.283C57.746,208.362 60.856,207.16 76.247,197.198C100.411,181.556 133.252,156.375 203.383,129.231C223.964,121.266 243.917,116.805 247.514,116.001Z"/>
            <path d="M175.509,107.009C175.701,106.961 215.557,99.102 219.486,99.914C243.441,104.864 245.027,104.563 244.044,106.34C243.395,107.512 206.23,110.237 140.442,138.361C90.514,159.704 44.02,190.323 42.657,189.279C41.394,188.311 31.334,174.466 26.68,169.336C22.428,164.648 36.837,159.516 43.583,155.634C104.559,120.548 167.593,107.908 175.509,107.009Z"/>
            <path d="M178.5,226.148C138.397,226.131 131.38,227.203 136.214,223.189C140.843,219.345 215.254,154.925 298.387,126.234C302.933,124.665 320.974,133.695 317.328,135.089C288.003,146.303 211.842,200.099 186.35,224.328C184.969,225.641 179.143,226.098 178.5,226.148Z"/>
            <path d="M160.501,90.818C165.12,92.181 184.695,92.391 188.595,93.344C209.565,98.472 177.475,87.722 83.453,118.393C39.844,132.618 15.218,147.563 13.92,145.261C3.428,126.646 2.677,127.111 1.962,125.399C0.94,122.953 35.2,109.299 56.393,103.248C110.331,87.845 159.598,90.819 160.501,90.818Z"/>
            <path d="M287.797,209.801C286.938,210.653 277.627,219.891 276.548,219.917C232.213,221.017 228.319,221.462 230.565,218.547C231.326,217.56 232.015,218.533 242.214,208.22C258.98,191.267 328.51,139.502 334.58,142.3C350.558,149.666 351.248,150.248 350.358,151.401C346.485,156.421 343.286,152.996 291.734,204.732C290.925,205.544 288.101,209.387 287.797,209.801Z"/>
            <path d="M90.505,23.829C99.127,26.163 166.114,25.016 239.437,84.548C244.317,88.511 198.981,78.967 195.503,78.992C179.656,79.108 137.487,34.284 78.622,26.109C56.98,23.103 89.538,23.808 90.505,23.829Z"/>
            <path d="M414.554,76.997C359.333,87.776 315.402,114.6 313.38,113.775C311.151,112.865 291.953,105.027 285.372,102.773C278.011,100.251 306.859,90.92 315.563,87.646C317.9,86.766 351.055,70.67 419.477,72.802C431.509,73.177 415.058,76.883 414.554,76.997Z"/>
            <path d="M327.21,201.208C346.364,177.386 360.568,163.773 363.715,160.757C365.113,159.417 366.444,158.142 385.288,171.736C389.575,174.829 369.48,197.194 361.045,213.288C359.425,216.378 358.625,217.255 317.536,216.211C316.109,216.174 316.045,214.619 327.21,201.208Z"/>
            <path d="M423.181,95.499C421.249,101.783 390.405,116.867 368.312,137.282C365.362,140.008 336.109,124.588 337.682,122.642C339.228,120.728 376.517,99.015 398.387,91.235C400.225,90.582 400.09,90.64 421.408,83.183C425.18,81.863 423.063,84.907 423.181,95.499Z"/>
            <path d="M46.447,24.605C71.226,25.888 122.607,47.232 154.776,74.227C154.143,74.352 154.186,75.602 153.553,75.727C149.04,76.616 148.99,75.168 144.555,76.394C142.497,76.102 142.622,76.315 140.646,76.781C138.058,76.094 138.2,76.04 135.5,75.696L134.5,75.737L133.5,75.779L132.5,75.822L131.5,75.872L130.5,75.937L129.5,75.976L128.5,76.024C127.835,76.374 127.169,76.725 126.504,77.076C118.802,77.135 118.271,79.842 115.669,77.314C82.174,44.77 54.763,33.699 37.392,26.755C41.394,24.104 41.931,26.225 46.447,24.605Z"/>
            <path d="M280.621,80.784C266.818,85.782 266.574,86.135 265.65,85.291C200.69,25.891 172.88,33.925 173.285,27.433C173.325,26.786 186.27,24.419 187.41,24.21C189.079,23.905 234.703,35.949 274.305,65.718C288.061,76.058 288.418,77.295 287.189,78.016C286.645,78.335 281.149,80.569 280.621,80.784Z"/>
            <path d="M218.445,19.003C218.774,19.003 222.558,19.011 222.558,19.011C275.87,32.408 275.869,33.047 323.29,60.941C333.994,67.236 320.893,65.892 309.465,70.423C302.062,73.359 302.395,70.088 291.742,63.007C285.724,59.007 244.27,31.454 210.375,23.774C196.524,20.636 214.365,20.298 218.445,19.003Z"/>
            <path d="M78.561,80.996C59.547,81.54 51.946,90.511 46.648,82.406C43.632,77.79 26.162,47.545 9.67,30.357C-3.443,16.691 71.538,53.125 85.742,78.409C86.041,78.941 86.136,79.926 78.561,80.996Z"/>
            <path d="M242.425,16.394C244.526,15.811 244.351,15.81 244.526,15.811C262.138,15.975 262.149,14.838 263.628,15.224C307.077,26.555 309.462,20.715 374.296,56.845C377.152,58.437 372.67,59.101 372.437,59.135C342.925,63.51 342.84,60.89 341.227,59.817C301.701,33.521 261.4,20.916 243.564,18.392L242.425,16.394Z"/>
            <path d="M306.505,12.828C306.901,12.936 310.903,14.02 311.5,14.017C326.704,13.938 326.445,14.941 341.448,17.889C361.739,21.878 361.061,23.672 380.613,30.224C388.117,32.738 415.977,53.783 417.021,55.655C417.823,57.093 416.571,57.341 396.5,57.089C389.349,56.999 391.564,51.805 356.389,36.768C351.383,34.628 319.446,20.975 291.548,16.129C263.76,11.302 303.093,12.84 306.505,12.828Z"/>
            <path d="M68.358,2.222C69.17,2.301 76.501,3.009 78.5,3.308L79.5,3.307L80.5,3.304L81.5,3.3L82.5,3.298L83.5,3.298L84.5,3.294L85.5,3.289L86.5,3.277L87.5,3.285L88.5,3.287C88.977,3.254 92.519,3.009 94.443,2.609C97.242,2.839 119.831,4.691 129.479,4.851C139.167,5.012 138.713,7.58 148.481,7.872C150.103,7.92 149.932,8.754 168.352,11.988C176.364,13.395 175.777,14.928 175.399,15.429C174.443,16.698 173.963,15.387 156.454,21.394C148.934,23.974 123.303,14.011 99.524,14.158C98.561,14.164 98.81,13.105 87.524,13.16C84.401,13.176 84.514,12.233 48.5,12.076C29.689,11.994 30.417,7.48 31.397,6.423C33.907,3.714 65.645,2.983 68.358,2.222Z"/>
            <path d="M409.21,126.207C418.352,118.732 423.876,112.962 422.572,117.517C418.703,131.025 429.026,144.333 415.801,161.764C409.668,169.848 408.286,162.384 388.722,152.026C384.039,149.546 391.192,144.307 409.21,126.207Z"/>
            <path d="M68.358,2.222C69.802,1.941 87.908,0.833 94.443,2.609C92.519,3.009 88.977,3.254 88.5,3.287L87.5,3.285L86.5,3.277L85.5,3.289L84.5,3.294L83.5,3.298L82.5,3.298L81.5,3.3L80.5,3.304L79.5,3.307L78.5,3.308C76.501,3.009 69.17,2.301 68.358,2.222Z"/>
            <path d="M46.447,24.605C41.931,26.225 41.394,24.104 37.392,26.755C25.073,23.443 43.86,23.821 44.473,23.833C44.473,23.833 46.29,24.543 46.447,24.605Z"/>
            <path d="M154.776,74.227C157.587,81.608 145.331,76.705 144.555,76.394C148.99,75.168 149.04,76.616 153.553,75.727C154.186,75.602 154.143,74.352 154.776,74.227Z"/>
            <path d="M140.646,76.781C136.521,77.575 136.568,77.151 126.504,77.076C127.169,76.725 127.835,76.374 128.5,76.024L129.5,75.976L130.5,75.937L131.5,75.872L132.5,75.822L133.5,75.779L134.5,75.737L135.5,75.696C138.2,76.04 138.058,76.094 140.646,76.781Z"/>
            <path d="M242.425,16.394L243.564,18.392C243.184,18.389 238.892,18.354 238.892,17.5C238.892,17.5 242.143,16.483 242.425,16.394Z" style="fill-opacity:0.87;"/>
        </g>
    </g>
</svg>
