<?xml version="1.0" encoding="UTF-8" standalone="no"?>
<!DOCTYPE svg PUBLIC "-//W3C//DTD SVG 1.1//EN" "http://www.w3.org/Graphics/SVG/1.1/DTD/svg11.dtd">
<svg width="100%" height="100%" viewBox="0 0 384 333" version="1.1" xmlns="http://www.w3.org/2000/svg" xmlns:xlink="http://www.w3.org/1999/xlink" xml:space="preserve" xmlns:serif="http://www.serif.com/" style="fill-rule:evenodd;clip-rule:evenodd;stroke-linejoin:round;stroke-miterlimit:2;">
    <g transform="matrix(1,0,0,1,72,61.5)">
        <g id="forest_con" transform="matrix(0.728223,0,0,0.706501,-1.530089,11.910607)">
            <path d="M141.262,171.258C141.489,170.931 143.12,168.575 144.205,167.251C150.052,160.117 148.093,159.182 147.429,158.918C145.438,158.127 145.274,159.637 143.378,158.704C140.378,157.227 142.973,156.474 146.753,150.712C153.612,140.259 152.649,139.193 151.648,139.05C151.415,139.017 144.784,139.731 147.695,136.673C159.945,123.806 157.874,102.862 161.965,115.396C168.458,135.287 179.707,143.014 169.488,139.574C164.556,137.914 175.638,152.659 179.403,154.657C183.322,156.737 178.889,158.903 177.561,158.96C176.337,159.012 170.505,157.324 174.348,163.59C184.281,179.786 191.321,179.964 186.604,181.695C179.238,184.397 178.69,180.452 176.725,181.888C174.896,183.226 185.681,191.229 183.792,193.689C180.263,198.283 180.091,198.004 175.755,201.784C169.903,206.886 185.28,209.221 182.276,212.315C181.567,213.044 181.526,212.963 173.317,221.323C171.623,223.048 171.75,223.031 171.129,225.465C170.169,229.227 166.3,223.987 165.825,226.554C164.766,232.279 165.073,232.8 169.837,236.002C177.146,240.913 142.21,240.211 153.572,235.641C156.474,234.474 157.31,226.334 154.612,226.037C151.964,225.746 139.997,214.763 141.415,213.442C141.527,213.338 147.131,210.475 148.684,206.575C149.703,204.017 135.116,193.576 137.769,190.729C139.179,189.216 146.31,181.93 143.431,181.863C141.241,181.812 129.495,183.618 135.244,177.253C137.486,178.258 137.765,178.359 139.548,176.564C143.617,172.469 141.157,171.829 141.262,171.258Z"/>
            <path d="M145.5,38.176C140.938,36.7 140.104,37.344 139.966,35.485C139.952,35.288 140.516,33.896 140.719,33.683C160.746,12.716 151.433,2.041 157.5,2.039C161.788,2.038 157.793,16.22 173.207,33.747C177.299,38.399 165.401,37.174 165.917,38.431C170.447,49.452 170.931,49.223 179.308,57.687C187.698,66.164 173.178,64.02 172.327,64.074C166.902,64.416 181.154,79.601 182.215,80.731C184.751,83.433 174.37,94.633 173.339,95.311C165.97,100.156 173.204,101.473 177.64,102.059C178.557,102.18 179.63,103.369 172.258,112.295C169.632,115.474 175.014,115.546 173.75,118.598C169.446,128.994 165.114,106.892 163.229,104.732C157.713,98.412 156.998,108.746 148.308,125.392C146.365,129.114 139.857,121.206 141.802,119.989C150.214,114.722 144.584,112.482 137.731,105.311C135.469,102.945 140.856,103.07 143.215,100.262C146.153,96.764 129.097,84.548 132.742,80.699C133.858,79.52 141.588,71.357 144.933,64.481C145.791,62.716 143.978,64.15 136.495,64.03C125.354,63.852 139.277,59.395 147.281,41.408C147.318,41.325 151.849,36.295 145.5,38.176Z"/>
            <path d="M54.513,183.984C47.046,182.993 54.403,177.474 58.727,171.704C59.117,171.183 64.292,164.279 61.63,164.102C57.397,163.82 55.686,165.097 56.237,162.414C56.98,158.797 61.846,161.232 69.302,138.417C72.879,127.473 71.958,141.6 79.337,154.599C80.645,156.902 87.999,163.442 82.561,163.941C77.286,164.426 79.732,166.988 82.679,171.391C87.515,178.616 95.01,181.824 91.623,183.685C85.874,186.843 81.287,181.826 83.072,185.48C90.566,200.822 102.901,204.731 95.582,207.697C89.586,210.127 82.055,204.844 86.626,209.406C98.954,221.708 99.332,222.29 98.292,223.302C96.514,225.031 91.104,225.388 95.296,230.651C97.51,233.432 87.485,236.011 79.465,232.616C78.016,232.003 77.189,231.93 77.574,233.488C78.365,236.693 77.388,237.381 80.275,238.976C90.916,244.859 52.846,244.286 62.572,239.606C65.578,238.159 66.174,231.125 63.419,232.228C62.23,232.704 51.487,237.004 47.666,235.083C44.666,233.575 57.484,227.015 50.508,228.549C40.799,230.684 34.793,224.703 37.357,223.316C39,222.427 46.601,218.316 55.328,208.399C57.538,205.888 41.945,208.105 42.997,203.626C43.597,201.069 48.9,202.776 57.31,187.384C57.58,186.89 58.701,185.848 58.755,185.568C59.205,183.236 57.755,184.313 54.513,183.984Z"/>
            <path d="M266.504,225.982C255.026,222.824 268.88,230.807 267.602,232.582C264.801,236.472 252.677,231.069 251.49,230.54C249.412,229.614 250.487,231.268 250.936,233.449C251.929,238.277 261.01,240.288 254.578,240.959C252.963,241.127 235.327,242.965 234.329,239.608C233.904,238.176 245.289,229.088 232.609,232.74C227.253,234.283 225.226,231.184 226.606,230.717C230.755,229.312 231.801,229.916 232.659,225.546C233.146,223.072 215.221,211.306 222.381,210.018C225.773,209.408 231.127,204.507 228.352,202.723C227.509,202.18 217.832,195.957 220.776,192.733C221.782,191.632 231.47,180.519 229.553,180.393C228.484,180.322 227.758,182.15 221.368,179.7C218.194,178.483 225.29,174.486 229.219,169.257C235.461,160.952 234.229,160.093 233.439,159.857C231.057,159.145 230.963,161.011 228.694,160.038C226.05,158.904 237.197,149.608 238.919,139.522C239.002,139.036 239.219,139.229 240.98,133.718C242.832,127.923 244.379,146.018 255.262,157.701C258.352,161.018 247.425,158.905 250.126,161.671C250.978,162.544 250.577,162.824 258.769,174.228C259.007,174.56 263.776,177.687 264.219,177.977C267.631,180.215 261.869,180.935 261.551,180.975C259.042,181.288 259.103,181.589 256.569,181.178C252.831,180.571 259.086,190.78 269.744,199.223C271.989,201.002 273.835,201.692 271.256,203.014C267.854,204.758 258.731,203.092 261.745,206.3C269.31,214.355 268.238,215.625 278.259,220.966C278.602,221.148 282.386,223.759 275.544,224.994C271.056,225.804 271.195,225.802 266.504,225.982Z"/>
            <path d="M115.287,87.391C121.355,72.295 120.212,71.97 120.912,70.752C122.345,68.254 122.488,70.875 123.331,73.573C130.415,96.248 134.102,94.519 134.317,96.545C134.554,98.779 133.214,97.708 129.605,97.934C126.594,98.123 134.154,109.837 137.726,113.283C142.683,118.065 133.821,116.494 133.242,117.139C130.66,120.018 140.458,129.761 141.351,130.65C148.724,137.981 132.171,141.878 132.075,143.456C131.84,147.318 138.657,149.658 139.396,149.912C144.008,151.495 132.614,156.972 139.377,160.664C140.43,161.239 141.802,162.758 131.315,173.318C128.174,176.481 126.835,170.443 126.207,169.759C116.181,158.821 117.401,188.602 102.574,196.653C100.462,197.8 90.434,191.5 95.38,189.282C102.212,186.218 101.991,183.608 96.679,178.319C91.812,173.473 96.648,173.285 101.334,168.37C104.274,165.286 99.465,167.778 91.597,165.107C84.742,162.781 95.846,162.988 106.337,144.407C109.061,139.582 103.521,143.985 98.405,141.721C90.705,138.314 104.907,134.148 111.719,117.544C112.514,115.606 110.918,116.447 106.547,116.063C101.746,115.641 118.139,99.844 115.66,97.342C114.658,96.33 106.181,101.032 111.298,93.379C111.886,93.692 112.801,95.703 115.194,92.185C115.194,92.185 116.832,88.795 116.974,88.5L115.287,87.391Z"/>
            <path d="M67.502,106.989C62.137,106.307 60.393,103.978 64.687,100.719C65.923,99.782 73.638,93.926 76.744,85.543C77.462,83.603 68.499,84.073 68.367,83.607C67.967,82.199 85.286,64.481 79.647,64.069C75.616,63.775 72.883,65.194 74.303,61.409C74.595,60.63 84.214,52.723 85.919,38.519C86.203,36.146 88.711,33.884 89.68,36.399C92.356,43.345 90.189,44.144 95.692,53.383C98.103,57.432 98.368,57.07 101.309,60.662C104.792,64.916 95.216,61.937 95.97,66.42C96.846,71.632 110.974,82.111 106.598,83.693C104.777,84.351 97.15,81.725 100.673,87.394C102.709,90.672 106.94,93.443 105.275,95.305C102.414,98.502 102.709,98.657 99.282,101.258C95.865,103.852 97.558,105.076 101.423,106.666C101.947,106.881 105.711,106.699 103.904,108.667C101.509,111.276 98.075,117.635 101.419,118.651C105.503,119.892 102.998,121.618 97.305,130.338C96.427,131.684 80.526,140.696 95.394,145.908C99.254,147.26 89.519,156.716 86.74,154.217C76.009,144.569 85.895,136.492 80.465,137.309C73.404,138.37 76.008,123.623 69.418,127.339C68.396,127.915 62.687,131.134 54.76,127.036C50.323,124.743 59.641,124.843 65.691,115.66C66.811,113.96 71.4,109.212 71.92,108.674C72.597,107.974 72.718,107.962 72.258,106.99C71.968,106.376 71.707,107.139 67.502,106.989Z"/>
            <path d="M19.511,143.997C19.067,144.026 14.625,144.315 14.539,141.5C14.501,140.253 16.683,141.794 24.748,129.715C28.742,123.732 27.203,123.083 26.649,123.038C21.689,122.634 20.565,123.583 20.546,121.498C20.519,118.571 25.908,120.861 32.68,100.575C34.077,96.388 33.85,91.945 36.006,95.805C36.88,97.37 34.567,98.278 44.317,116.609C46.535,120.78 51.276,122.676 46.564,122.928C43.491,123.092 41.678,122.468 42.706,125.421C46.677,136.828 58.701,141.137 50.611,143.744C48.91,144.292 44.326,142.06 47.312,146.612C49.615,150.124 55.083,155.253 54.224,156.307C44.102,168.715 41.454,165.147 40.414,166.425C39.62,167.401 43.123,171.491 43.44,171.613C47.799,173.294 51.804,171.523 49.353,175.419C48.779,176.33 44.089,181.572 46.773,184.228C47.17,184.621 50.965,185.214 49.666,187.58C43.757,198.343 37.487,192.659 37.198,195.425C36.882,198.445 37.043,198.433 38.565,200.449C39.308,201.432 38.642,202.905 37.609,202.944C22.515,203.513 21.695,202.453 22.277,201.366C22.767,200.453 27.584,200.841 27.154,194.565C26.981,192.025 24.137,195.99 20.506,196.046C16.928,196.103 16.934,197.549 13.575,196.336C13.066,196.153 7.207,196.19 8.78,193.683C9.679,192.252 23.436,184.914 13.502,185.009C1.06,185.128 1.984,181.426 2.764,180.941C4.334,179.966 17.405,171.845 19.965,165.519C20.699,163.706 8.15,166.565 9.327,161.439C9.675,159.925 12.981,162.635 21.986,146.72C23.374,144.268 25.131,142.225 22.437,143.158C20.887,143.695 21.016,143.716 19.511,143.997Z"/>
            <path d="M212.328,177.488C211.678,177.845 211.028,178.202 210.379,178.559C210.052,177.179 206.02,166.479 205.627,165.434C204.541,162.552 198.803,160.549 197.347,164.423C197.106,165.065 197.203,165.085 194.719,172.592C192.306,179.884 180.194,163.414 181.398,162.419C183.622,160.58 195.92,158.445 183.596,150.336C182.977,149.929 175.882,145.261 177.422,143.446C177.605,143.229 178.034,143.792 180.219,141.258C185.536,135.089 172.189,134.164 176.674,126.602C180.725,119.772 187.504,115.536 179.496,115.993C179.035,116.019 173.016,116.101 179.244,110.231C182.826,106.854 188.502,97.406 185.644,97.103C179.219,96.422 181.454,94.003 181.735,93.698C195.499,78.8 193.844,56.344 196.097,70.56C198.729,87.17 215.069,101.118 202.43,95.887C200.331,95.018 204.136,106.317 213.286,112.735C218.001,116.042 206.123,116.19 205.861,116.654C205.041,118.104 214.404,134.313 221.273,137.983C224.449,139.681 222.057,142.015 216.502,142.029C211.543,142.042 209.298,140.799 210.111,142.482C214.197,150.937 220.826,157.005 222.336,159.6C222.532,159.937 228.076,162.726 220.582,165.699C214.493,168.115 213.618,164.404 212.765,165.996C211.273,168.779 219.474,172.104 215.408,174.329C213.334,175.463 212.962,175.17 212.328,177.488Z"/>
            <path d="M211.192,194.011C206.303,191.192 210.106,195.597 210.226,195.696C219.319,204.541 219.967,204.551 219.42,205.474C217.513,208.69 209.756,204.162 213.012,210.72C220.146,225.089 229.727,227.655 221.553,228.944C217.703,229.551 214.066,228.417 216.744,231.3C221.851,236.797 221.632,236.827 226.766,242.241C229.081,244.683 235.192,247.111 228.582,249.695C219.011,253.437 207.274,248.794 207,249.678C206.881,250.062 207.321,249.958 208.127,254.569C208.317,255.654 215.206,259.923 208.51,259.935C198.578,259.953 189.238,260.837 191.747,257.686C195.088,253.489 199.011,252.506 194.345,249.874C191.609,248.33 190.685,255.668 172.408,249.714C165.613,247.501 174.848,246.437 183.224,235.261C187.409,229.676 185.066,229.107 184.561,229.079C175.498,228.578 176.361,226.216 176.801,225.701C183.15,218.266 184.215,219.212 188.986,210.729C189.721,209.421 194.083,206.008 188.509,205.987C181.514,205.96 184.222,202.82 184.591,202.636C185.359,202.25 192.254,195.2 192.848,194.677C194.98,192.797 189.771,193.316 190.72,190.578C191.223,189.126 192.451,189.788 199.681,173.576C199.767,173.384 199.81,168.914 201.437,169.741C205.208,171.658 201.289,176.787 212.22,191.685C213.033,192.792 212.237,192.747 211.192,194.011Z"/>
            <path d="M249.614,116.843C249.329,117.086 249.044,117.328 248.759,117.57C250.623,121.79 256.503,122.953 253.259,126.264C249.436,130.168 247.714,133.471 245.657,128.419C245.297,127.535 240.461,119.476 235.344,134.43C228.624,154.066 224.983,152.271 223.718,151.235C218.718,147.139 220.903,146.131 221.349,146.031C239.693,141.931 219.762,130.56 217.661,126.407C215.678,122.488 212.502,121.358 216.574,119.667C222.962,117.014 221.918,112.893 221.513,112.489C211.734,102.721 208.168,101.926 211.779,99.949C219.725,95.598 217.204,93.649 216.629,93.334C215.957,92.965 207.937,88.564 209.729,86.69C214.024,82.201 213.993,82.282 216.971,76.731C217.908,74.985 223.525,68.831 217.508,69.014C215.049,69.089 210.926,68.429 215.672,63.673C228.166,51.156 224.551,26.804 230.342,43.57C234.671,56.105 233.597,56.713 242.247,66.677C245.018,69.869 235.013,67.189 236.33,71.563C240.845,86.553 255.125,93.613 247.561,93.912C242.608,94.107 238.49,92.554 241.314,96.606C251.011,110.521 252.161,109.412 255.27,111.713C255.761,112.077 256.975,113.693 249.614,116.843Z"/>
            <path d="M117.506,260.998C114.196,260.709 112.375,260.049 114.691,257.676C121.916,250.275 112.912,251.377 110.422,252.326C106.2,253.936 83.963,252.094 97.376,244.292C103.223,240.892 109.819,231.048 109.358,230.782C107.054,229.452 106.509,232.318 99.337,229.641C97.294,228.878 103.418,225.679 107.228,221.266C114.82,212.473 112.537,211.136 111.65,211.056C106.032,210.551 102.577,212.118 104.786,208.693C104.944,208.447 111.663,203.47 114.263,200.313C116.367,197.756 109.611,198.291 111.754,195.7C121.063,184.445 123.384,166.162 124.21,176.54C124.376,178.625 129.041,190.458 132.795,195.246C132.965,195.463 136.879,200.456 132.439,198.667C124.927,195.64 136.794,205.274 137.326,205.706C143.653,210.842 132.39,209.48 133.272,212.539C134.268,215.997 138.237,220.638 138.774,221.266C140.833,223.674 149.188,229.255 145.596,230.678C139.775,232.986 132.416,228.592 137.11,232.717C139.468,234.789 144.347,241.651 146.736,243.22C148.635,244.466 155.37,248.254 152.64,249.684C135.829,258.485 126.614,246.003 129.293,253.587C130.883,258.09 132.194,257.21 132.607,258.428C133.86,262.121 121.223,260.987 117.506,260.998Z"/>
            <path d="M261.22,127.256C264.702,121.132 265.067,120.091 265.301,119.425C266.965,114.684 259.497,118.584 259.554,115.499C259.567,114.813 263.582,110.77 263.675,110.604C270.573,98.31 271.673,89.891 272.41,89.387C277.78,85.711 270.154,97.188 285.237,113.716C287.98,116.721 280.515,117.291 280.414,117.438C277.955,121.025 290.147,133.518 291.286,134.685C295.597,139.103 282.663,136.239 284.253,139.571C289.323,150.203 296.093,154 294.215,156.267C291.026,160.118 287.722,157.846 287.655,157.87C285.245,158.758 290.36,163.835 290.762,164.234C292.682,166.14 296.105,165.259 293.682,169.61C293.403,170.111 291.229,174.016 289.322,175.292C287.196,176.716 276.559,180.491 287.647,187.311C289.001,188.145 287.274,191.27 284.613,192.685C278.86,195.743 276.292,198.399 265.732,187.306C262.991,184.427 267.326,185.887 270.244,183.21C275.945,177.981 270.805,177.253 262.276,168.728C259.08,165.534 256.481,164.489 260.382,162.27C268.926,157.408 260.967,154.681 255.739,149.292C252.953,146.42 259.251,144.033 262.067,136.671L262.5,135.237L261.5,134.968C254.941,133.883 263.129,129.835 262.515,128.5C262.266,127.956 261.47,127.8 261.22,127.256Z"/>
            <path d="M324.141,209.043C316.876,211.876 315.466,206.891 313.571,207.667C309.03,209.526 323.393,216.225 317.463,216.133C308.412,215.992 308.506,215.967 299.535,216.147C294.684,216.244 304.061,211.246 303.102,208.569C302.407,206.63 283.932,214.022 292.719,205.705C296.062,202.541 292.021,203.084 287.527,203.021C286.035,203 283.032,200.875 284.421,199.436C287.96,195.769 290.008,197.59 296.323,186.399C298.488,182.562 294.751,184.365 290.381,182.685C286.557,181.214 300.466,172.813 301.699,164.538C302.032,162.306 294.43,163.256 297.738,159.702C303.191,153.845 302.609,153.473 306.264,142.399C309.364,133.005 310.332,146.114 312.308,150.581C315.982,158.887 322.824,161.752 315.553,162.916C313.867,163.186 314.276,164.823 315.347,167.581C317.548,173.255 324.288,178.894 325.248,179.697C328.444,182.37 317.992,182.418 318.344,184.532C319.463,191.262 329.97,198.794 331.267,199.724C331.756,200.075 333.219,203.352 324.498,203.015C317.165,202.731 323.43,206.194 324.251,207.644C324.482,208.051 323.911,208.636 324.141,209.043Z"/>
            <path d="M261.22,127.256C261.47,127.8 262.266,127.956 262.515,128.5C263.129,129.835 254.941,133.883 261.5,134.968L262.5,135.237L262.067,136.671C258.585,136.423 258.596,137.12 255.299,135.96C253.944,135.483 253.848,134.277 261.22,127.256Z"/>
            <path d="M212.328,177.488C214.791,181.233 214.379,181.725 218.4,183.629C220.805,184.768 219.248,185.495 217.304,187.269C216.646,187.87 215.341,188.489 210.379,178.559C211.028,178.202 211.678,177.845 212.328,177.488Z"/>
            <path d="M141.262,171.258C141.157,171.829 143.617,172.469 139.548,176.564C137.765,178.359 137.486,178.258 135.244,177.253C138.272,174.186 138.194,174.281 141.262,171.258Z"/>
            <path d="M115.287,87.391L116.974,88.5C116.832,88.795 115.194,92.185 115.194,92.185C112.801,95.703 111.886,93.692 111.298,93.379C112.98,90.733 114.96,87.865 115.287,87.391Z"/>
            <path d="M52.462,167.041C55.767,167.63 55.778,169.972 52.571,170.691C52.286,170.754 44.747,169.444 52.462,167.041Z"/>
            <path d="M142.397,144.254C144.932,144.044 146.517,144.172 145.056,146.254C144.281,147.357 135.345,148.342 142.397,144.254Z"/>
            <path d="M211.192,194.011C210.87,194.572 210.548,195.134 210.226,195.696C210.106,195.597 206.303,191.192 211.192,194.011Z"/>
        </g>
    </g>
</svg>
