<?xml version="1.0" encoding="UTF-8" standalone="no"?>
<!DOCTYPE svg PUBLIC "-//W3C//DTD SVG 1.1//EN" "http://www.w3.org/Graphics/SVG/1.1/DTD/svg11.dtd">
<svg width="100%" height="100%" viewBox="0 0 384 333" version="1.1" xmlns="http://www.w3.org/2000/svg" xmlns:xlink="http://www.w3.org/1999/xlink" xml:space="preserve" xmlns:serif="http://www.serif.com/" style="fill-rule:evenodd;clip-rule:evenodd;stroke-linejoin:round;stroke-miterlimit:2;">
    <g transform="matrix(1,0,0,1,72,61.5)">
        <g id="forest_dec" transform="matrix(0.444444,0,0,0.444444,-0.888889,23.444444)">
            <path d="M309.998,340.51C311.175,351.186 318.981,353.814 312.561,354.936C309.603,355.453 302.564,350.58 302.234,347.535C300.825,334.532 301.495,334.565 301.158,321.535C301.095,319.115 298.822,319.422 298.786,320.551C298.205,338.947 299.197,342.635 299.695,344.485C300.246,346.531 298.784,347.852 301.18,350.768C303.454,353.535 295.644,360.397 292.356,351.564C292.038,350.712 293.213,345.108 291.448,345.131C290.453,345.143 290.589,356.29 282.543,355.008C278.806,354.413 281.96,352.683 285.686,341.578C286.635,338.751 285.036,337.249 286.665,332.572C290.321,322.077 285.157,322.691 273.221,304.739C267.818,296.612 267.056,296.895 266.359,297.307C265.918,297.567 267.613,298.896 262.405,302.342C257.382,305.666 246.61,305.49 245.016,297.552C243.84,291.692 238.517,302.461 227.419,297.691C226.267,297.196 218.5,293.858 218.936,284.526C219.028,282.559 220.6,280.912 220.838,280.663C224.922,276.387 211.062,282.095 208.011,266.549C207.214,262.489 205.552,256.476 215.733,246.767C219.272,243.392 230.297,243.645 226.798,239.263C220.187,230.984 227.929,212.248 245.454,215.655C247.049,215.965 249.868,212.598 252.259,214.778C254.805,217.099 254.748,219.537 257.26,217.219C259.858,214.823 261.785,213.791 258.6,212.323C257.582,211.854 252.966,209.726 252.975,199.504C252.981,192.451 262.892,179.782 274.426,183.675C280.027,185.565 276.609,179.44 284.264,173.227C297.909,162.152 312.817,171.079 315.695,178.42C316.302,179.97 316.071,184.784 321.571,182.654C326.684,180.674 335.628,187.731 336.66,190.419C338.712,195.766 340.381,197.773 336.682,204.609C336.55,204.853 330.442,209.825 335.489,209.917C339.216,209.986 339.309,208.558 342.739,210.129C345.529,211.408 349.907,205.054 356.749,211.215C357.268,211.683 359.316,212.243 359.538,212.456C371.863,224.258 360.462,229.88 364.313,230.824C365.007,230.995 365.747,230.844 366.456,230.944C372.913,231.859 368.814,238.617 371.389,238.933C372.014,239.009 383.68,236.695 388.726,252.403C390.12,256.744 388.012,265.315 380.4,269.37C376.104,271.658 388.003,274.048 381.335,285.4C373.638,298.507 358.411,287.504 358.031,292.424C357.751,296.053 358.469,298.696 349.598,302.725C348.387,303.275 336.536,303.753 332.714,300.26C329.223,297.07 328.545,293.947 325.781,297.78C314.384,313.588 303.549,319.733 309.741,338.391C309.794,338.553 309.76,338.548 309.998,340.51ZM290.001,297.5C289.978,304.019 290.964,311.829 287.307,308.746C275.46,298.755 275.772,297.538 276.789,296.768C281.042,293.55 284.685,292.964 279.714,283.373C279.27,282.516 278.872,282.839 271.786,274.273C270.445,272.652 272.658,270.187 275.267,272.745C281.993,279.34 285.749,283.561 288.609,274.547C288.691,274.29 292.926,260.943 291.278,272.485C290.533,277.704 291.4,288.636 290.662,290.573C289.387,293.92 289.874,293.955 290.001,297.5ZM304.985,298.501C304.993,294.462 305.008,294.587 305.104,290.501C305.293,282.371 302.923,278.025 306.3,280.753C311.888,285.265 319.81,276.859 322.58,277.061C327.22,277.399 318.009,283.09 317.311,284.387C313.688,291.122 319.414,292.077 320.128,292.975C321.381,294.548 306.888,307.721 305.435,306.586C304.926,306.188 304.98,299.149 304.985,298.501Z"/>
            <path d="M404.563,260.727C404.319,261.021 404.074,261.315 403.83,261.61C401.573,267.648 395.06,264.054 394.382,263.68C391.046,261.84 396.426,259.021 393.296,249.584C388.197,234.21 376.274,236.786 375.059,233.653C373.194,228.844 369.963,229.514 371.67,224.573C373.491,219.303 364.349,212.92 372.51,212.98C379.217,213.03 372.626,209.803 372.389,209.687C370.802,208.91 358.273,192.39 380.413,182.287C381.335,181.866 382.987,182.266 384.574,181.671C392.665,178.637 399.523,185.071 400.493,185.015C404.075,184.806 398.706,178.362 397.324,175.591C396.827,174.594 393.429,167.778 398.781,161.741C408.868,150.366 412.424,153.938 417.454,155.683C417.889,155.834 418.388,156.095 421.672,150.602C427.558,140.755 442.203,145.137 442.582,145.293C450.782,148.684 450.785,149.692 451.939,158.45C452.008,158.977 452.255,160.853 458.57,158.658C462.667,157.233 464.929,159.064 469.403,161.662C477.898,166.594 479.646,179.569 472.277,185.238C461.45,193.568 478.277,187.586 480.46,187.964C494.476,190.387 494.082,202.769 494.028,204.478C493.843,210.285 486.045,211.762 491.574,213.335C502.726,216.508 509.511,227.261 502.34,239.407C497.235,248.053 486.818,244.626 487.712,247.44C493.654,266.153 469.437,268.475 461.229,258.793C458.585,255.674 452.41,267.984 451.243,269.271C434.684,287.526 440.624,299.607 440.934,302.443C441.779,310.183 441.774,310.158 444.711,317.416C446.37,321.516 440.214,321.599 438.332,317.607C436.35,313.402 435.366,319.949 433.579,320.661C427.681,323.01 425.789,315.913 423.703,317.754C417.947,322.832 418.14,317.827 418.302,317.426C423.38,304.794 423.497,287.675 421.213,284.741C413.638,275.009 406.888,261.632 404.563,260.727ZM425.006,270.498C425.024,270.822 425.28,275.534 423.617,274.306C422.771,273.68 414.738,264.592 412.624,261.43C412.509,261.258 410.697,258.546 412.531,258.84C413.249,258.955 418.831,259.847 419.931,253.56C420.017,253.071 419.898,253.068 417.645,247.426C417.2,246.312 413.642,243.113 413.262,242.771C411.161,240.883 410.586,239.397 413.452,239.087C416.501,238.758 421.932,246.548 423.022,244.197C423.125,243.975 426.328,237.068 425.985,243.459C425.825,246.441 426.516,246.412 425.006,270.498ZM444.226,266.223C439.959,270.475 438.79,271.757 438.432,269.524C438.137,267.685 436.808,250.85 439.446,251.709C441.719,252.449 441.801,253.685 447.578,251.703C450.85,250.58 453.297,256.049 452.229,257.278C448.27,261.836 448.512,261.967 444.226,266.223Z"/>
            <path d="M184.965,306.854C179.521,318.47 176.782,307.679 174.493,307.676C174.441,307.676 164.77,313.748 163.978,309.461C163.258,305.567 170.813,306.251 170.944,295.493C170.953,294.763 171.658,294.928 172.094,286.446C172.489,278.756 178.274,278.937 174.277,267.592C172.188,261.662 173.112,261.216 169.22,256.739C167.692,254.981 164.821,253.934 162.655,248.431C160.403,242.708 156.197,243.322 155.982,241.445C155.658,238.611 156.811,232.881 149.263,225.775C145.422,222.158 138.484,222.079 137.497,222.067C131.305,221.996 133.746,214.594 124.582,210.334C114.464,205.631 109.283,211.092 107.928,201.44C107.303,196.985 107.557,193.4 115.71,185.737C116.07,185.398 116.142,185.611 121.399,183.304C124.814,181.806 127.318,183.918 127.708,184.247C130.203,186.352 131.206,180.545 130.192,179.787C115.32,168.673 124.632,157.045 127.293,152.374C127.763,151.548 137.333,144.813 142.428,146.658C147.827,148.612 147.942,146.023 147.963,145.572C149.081,120.541 184.236,121.843 189.694,132.385C193.436,139.612 192.651,141.561 195.567,140.678C197.247,140.169 207.964,134.238 214.721,149.409C219.041,159.106 205.458,169.229 215.41,165.308C215.862,165.13 215.922,166.009 221.396,164.263C222.515,163.906 239.762,166.68 235.315,181.434C233.824,186.382 242.021,181.578 247.716,194.411C248.691,196.61 245.002,202.45 244.965,206.493C244.924,211.115 242.633,208.748 240.541,208.992C237.457,209.351 219.055,215.731 219.098,232.494C219.11,236.987 221.347,238.138 217.394,240.31C209.948,244.402 209.778,245.052 208.716,244.225C204.157,240.678 203.408,251.905 191.778,264.739C185.633,271.52 190.66,300.955 193.783,304.254C200.635,311.491 193.042,310.504 192.574,310.338C191.624,310.003 188.828,309.581 186.675,307.22C185.98,306.457 185.918,306.793 184.965,306.854ZM186.994,252.519C187.117,246.197 188.111,246.084 186.35,241.57C185.797,240.152 185.04,221.698 188.062,227.729C191.256,234.102 198.88,222.664 200.5,222.623C204.312,222.527 198.538,229.443 194.78,233.742C193.317,235.416 194.076,239.428 197.536,240.021C201.36,240.677 200.963,242.43 198.225,245.263C190.874,252.871 188.146,260.254 186.994,252.519ZM174.022,251.255C171.141,251.369 168.283,246.327 165.757,243.292C163.731,240.858 167.935,241.329 168.673,239.588C172.365,230.871 159.248,221.036 160.428,219.449C162.612,216.509 168.767,224.573 169.422,224.72C172.509,225.413 173.322,219.268 173.704,218.663C176.204,214.695 174.911,219.984 174.952,228.496C174.961,230.318 175.024,243.42 174.022,251.255Z"/>
            <path d="M299.997,110.51C299.919,118.176 300.623,118.901 294.782,123.777C290.928,126.994 299.038,127.039 299.497,127.042C309.815,127.1 323.531,143.948 310.263,155.232C309.268,156.079 307.719,156.024 307.488,156.016C307.165,156.005 302.102,155.827 303.681,157.374C305.492,159.148 306.591,159.178 305.304,161.4C302.281,166.622 287.216,155.892 275.306,176.393C273.182,180.048 269.735,174.994 258.621,181.697C254.55,184.153 252.604,189.408 250.688,183.423C246.353,169.875 256.587,167.263 256.436,163.523C256.288,159.868 247.865,170.96 247.07,164.56C246.656,161.223 244.018,162.471 244.008,165.489C244.002,167.139 245.153,187.977 240.995,180.259C240.324,179.013 241.466,175.234 239.271,168.6C239.082,168.029 239.306,144.173 237.003,153.326C236.225,156.42 236.41,164.518 234.455,163.738C228.988,161.557 229.169,161.304 223.574,159.334C219.591,157.932 218.779,157.334 220.266,153.399C221.926,149.006 214.103,138.674 211.6,137.332C205.058,133.823 204.927,133.929 197.508,134.425C193.99,134.661 197.571,130.087 188.7,124.266C188.327,124.021 186.342,122.22 180.608,120.059C175.354,118.079 177.564,98.941 193.459,97.006C193.677,96.98 197.425,95.304 199.586,96.293C203.411,98.044 204.057,99.921 206.722,96.736C207.23,96.129 211.837,95.989 209.764,93.325C203.866,85.74 218.861,63.373 238.581,70.297C244.874,72.507 243.74,79.028 248.392,76.315C267.07,65.421 276.697,85.474 274.34,92.43C271.051,102.138 280.041,93.611 289.571,97.323C296.947,100.195 299.663,108.129 299.997,110.51Z"/>
            <path d="M101.522,192.994C92.651,194.475 101.681,197.643 101.897,199.4C102.548,204.683 103.155,204.406 104.749,209.451C104.984,210.194 98.826,215.893 98.584,215.929C83.263,218.16 83.699,223.795 79.781,228.741C78.384,230.504 79.845,245.088 76.305,238.632C75.805,237.718 69.474,213.374 69.056,224.382C69.055,224.409 68.196,232.254 69.735,236.406C72.244,243.172 58.974,232.703 61.518,237.49C63.614,241.433 71.635,244.067 65.787,251.733C64.204,253.808 64.382,260.743 61.706,258.245C61.251,257.82 56.401,253.293 54.725,254.79C48.446,260.396 45.269,262.33 34.373,256.709C30.238,254.576 34.091,246.526 27.572,248.682C8.354,255.039 3.946,232.806 9.773,226.741C13.171,223.204 12.806,222.621 17.402,221.091C27.472,217.74 -0.617,220.431 1.972,200.525C2.43,197.006 7.075,198.08 6.015,191.545C3.849,178.198 21.8,174.708 24.428,175.657C29.755,177.581 31.694,174.937 30.687,173.4C28.331,169.804 28.777,169.693 28.013,165.544C27.248,161.396 25.211,157.723 34.742,148.783C35.84,147.753 38.926,148.384 40.235,147.19C52.916,135.628 64.669,145.604 67.372,150.604C68.739,153.131 71.584,147.8 75.413,146.292C86.822,141.797 98.079,151.776 95.319,160.426C93.207,167.045 104.516,163.078 107.572,164.315C114.829,167.254 113.449,168.869 115.725,176.412C117.294,181.611 112.817,179.839 104.791,190.745C103.531,192.457 103.596,192.567 101.522,192.994ZM83.072,213.503C82.088,219.172 80.128,214.108 80.291,213.436C81.802,207.213 83.028,213.284 83.072,213.503Z"/>
            <path d="M303.016,32.483C303.999,22.185 315.859,14.226 327.289,22.753C332.413,26.575 333.195,20.265 339.574,22.314C355.071,27.292 347.353,38.214 354.5,38.045C363.174,37.84 362.811,47.257 361.238,49.279C354.867,57.471 365.302,52.021 365.532,51.993C384.019,49.788 392.945,73.164 375.575,80.667C373.043,81.761 369.339,78.588 368.971,81.553C368.326,86.752 373.095,84.085 373.604,83.977C382.634,82.069 390.509,89.041 387.244,93.287C384.276,97.147 385.966,103.533 383.445,104.007C371.292,106.296 371.572,107.369 370.503,107.451C368.789,107.583 369.082,104.863 366.415,106.352C363.141,108.179 362.299,109.271 365.227,111.752C367.007,113.26 363.033,117.246 361.317,121.42C359.623,125.543 358.241,123.067 354.723,120.237C347.806,114.672 343.197,122.553 338.645,114.411C337.22,111.861 336.954,112.189 333.711,109.262C329.466,105.431 319.708,105.007 318.44,104.952C316.128,104.851 317.271,98.648 310.456,94.614C307.43,92.822 308.569,95.745 308.972,96.296C309.405,96.888 312.659,101.339 313.005,104.53C313.24,106.708 306.425,111.367 305.338,108.589C297.854,89.468 289.229,91.913 281.4,90.946C278.939,90.642 280.47,85.314 279.686,83.421C275.844,74.142 265.991,72.567 268.315,65.426C273.69,48.906 291.571,58.971 290.742,54.433C290.181,51.368 280.304,48.534 292.729,36.75C296.572,33.106 301.708,37.698 303.016,32.483Z"/>
            <path d="M97.399,296.316C91.734,305.818 80.283,299 80.057,296.546C79.474,290.231 73.762,294.85 68.744,290.221C60.203,282.345 65.314,272.436 69.379,270.298C74.082,267.824 73.514,267.019 73.216,266.725C72.691,266.207 68.211,261.792 69.273,258.403C72.542,247.974 75.949,248.294 82.405,246.274C82.736,246.171 93.899,247.933 87.427,244.607C85.136,243.43 81.927,234.915 85.328,229.394C91.477,219.411 98.373,221.885 99.57,222.314C103.206,223.619 103.996,214.298 112.459,213.064C119.246,212.074 128.463,216.914 128.916,222.449C129.41,228.492 128.648,229.953 130.439,229.272C133.891,227.96 143.99,221.333 150.712,236.413C153.399,242.441 147.541,248.916 146.796,249.74C142.327,254.681 150.478,250.41 156.74,255.209C160.098,257.783 161.097,256.294 165.226,260.738C169.508,265.347 173.493,284.339 159.447,287.097C153.3,288.304 160.026,295.3 153.611,298.684C147.307,302.01 147.09,303.355 140.425,300.682C132.902,297.665 134.344,302.682 129.266,309.29C128.402,310.415 122.278,318.384 125.33,326.576C126.408,329.471 125.434,329.831 126.788,331.243C131.192,335.836 132.216,335.586 131.705,337.585C130.854,340.918 122.139,336.898 121.466,337.445C118.454,339.889 118.551,341.769 115.791,340.001C115.598,339.877 116.363,339.498 114.566,337.416C114.375,337.195 102.023,342.882 103.324,337.438C104.128,334.073 108.516,336.69 109.947,328.535C111.579,319.232 114.022,316.291 103.775,305.258C103.089,304.519 101.541,301.745 98.581,296.35C97.753,288.67 98.277,288.593 97.847,288.087C97.19,287.315 92.602,289.932 97.399,296.316ZM113.011,296.502C112.97,302.594 114.005,307.498 110.28,303.734C109.258,302.701 103.649,297.035 100.315,288.548C99.812,287.268 101.826,285.498 103.259,286.801C105.395,288.742 108.185,294.491 111.734,287.656C111.821,287.487 114.336,285.595 113.258,289.485C112.932,290.663 113.073,290.665 113.011,296.502ZM128.499,293.949C130.911,294.325 132.368,293.371 131.713,295.545C131.013,297.869 122.931,308.513 122.841,304.446C122.726,299.26 120.252,290.004 123.659,293.154C124.717,294.133 124.883,293.709 128.499,293.949Z"/>
            <path d="M409.491,149.996C387.597,152.517 392.144,178.158 388.282,173.887C381.307,166.171 386.908,164.396 385.202,159.608C380.701,146.971 373.531,147.177 368.389,145.696C366.044,145.021 367.061,139.948 370.536,139.907C374.902,139.855 379.474,140.476 375.746,138.203C372.555,136.258 371.719,137.482 369.67,134.398C357.229,115.678 382.984,103.388 392.745,111.215C395.505,113.428 398.271,111.128 395.216,107.751C391.36,103.489 391.9,103.127 391.971,97.496C392.071,89.523 406.134,80.551 410.284,83.771C413.169,86.01 416.434,83.219 416.656,82.574C421.664,68.088 437.701,68.411 439.269,69.764C441.525,71.712 441.571,72.337 444.414,71.284C447.563,70.119 447.254,71.719 451.726,75.23C454.709,77.572 454.979,77.432 458.72,85.405C460.106,88.361 456.887,95.859 457.05,96.693C457.186,97.38 457.595,97.444 465.566,94.649C470.647,92.867 478.449,98.913 478.708,99.374C482.682,106.466 483.041,106.46 483.046,114.51C483.052,123.118 468.909,125.745 477.515,125.811C495.667,125.949 498.937,145.428 487.604,151.7C486.198,152.478 482.559,150.031 482.641,152.516C482.902,160.408 476.161,160.694 475.703,160.268C467.267,152.418 463.646,153.263 457.442,152.902C452.943,152.64 457.643,145.872 443.57,140.33C432.805,136.09 420.76,142.946 418.771,145.733C415.537,150.266 415.05,150.007 409.491,149.996Z"/>
            <path d="M204.488,2.018C213.741,3.149 217.203,11.407 218.515,11.357C238.48,10.599 241.249,24.948 237.692,31.615C233.468,39.534 240.479,35.132 242.424,34.311C248.205,31.872 270.818,42.152 256.781,57.723C254.188,60.599 261.392,61.127 261.396,64.501C261.403,69.878 258.834,67.867 253.444,68.087C251.736,68.157 247.505,70.897 246.689,70.234C240.5,65.209 240.244,65.688 239.713,65.254C232.528,59.367 220.111,68.002 220.998,63.257C221.352,61.365 217.096,63.617 216.367,65.429C214.556,69.936 213.867,69.39 208.782,74.737C205.01,78.703 204.577,88.443 201.274,91.239C200.792,91.646 200.569,91.835 193.4,90.9C191.933,90.709 192.233,88.424 190.347,86.683C186.921,83.519 189.348,91.315 189.359,91.484C189.391,91.995 178.811,96.938 175.374,103.415C173.691,106.587 167.303,101.144 167.084,99.563C166.337,94.176 165.769,94.02 160.257,88.78C155.868,84.607 143.791,86.979 143.297,85.622C141.756,81.384 141.85,81.405 139.309,77.619C138.329,76.157 131.71,66.29 151.424,59.258C152.179,58.989 155.652,60.9 156.569,60.673C160.694,59.653 153.805,55.908 153.389,55.682C151.149,54.465 145.479,46.511 147.264,41.399C152.366,26.788 165.315,28.972 165.598,28.579C166.754,26.974 160.411,20.931 173.424,15.316C177.761,13.445 178.698,15.161 182.476,15.314C183.845,15.37 184.131,12.286 185.322,10.39C191.537,0.493 200.75,2.038 204.488,2.018ZM174.336,95.503C174.073,95.683 174.648,96.277 174.385,96.457C174.385,96.457 172.871,96.197 172.739,96.174C172.143,95.355 171.782,94.144 169.638,93.1C168.743,92.664 168.748,91.687 168.748,91.543C168.793,82.746 174.208,95.293 174.336,95.503Z"/>
            <path d="M74.637,139.632C67.425,146.895 66.554,138.463 56.451,136.953C49.046,135.846 48.512,134.259 48.287,133.59C46.186,127.34 46.688,121.962 54.451,120.064C58.845,118.989 43.7,108.754 60.385,98.316C66.817,94.292 74.201,98.398 73.299,95.555C72.803,93.991 69.088,82.283 80.379,76.304C98.18,66.879 106.426,79.915 106.732,80.201C108.886,82.215 109.843,77.647 115.571,75.661C117.105,75.129 117.011,75.174 118.564,74.651C122.313,73.387 136.328,78.46 134.77,87.567C134.236,90.685 137.886,89.575 138.659,91.415C140.256,95.213 141.385,93.122 143.417,92.302C155.42,87.457 163.456,98.257 162.274,103.431C160.811,109.839 168.256,105.243 170.708,111.414C171.601,113.659 169.409,114.369 169.077,116.441C167.572,125.815 151.677,115.536 142.72,140.636C142.563,141.076 140.365,143.099 138.672,136.426C135.787,125.056 134.486,142.177 132.397,143.319C127.603,145.938 127.682,145.97 123.769,149.773C115.286,158.014 119.321,164.068 115.693,162.206C110.433,159.505 111.401,158.46 111.016,152.545C110.849,149.961 108.044,147.037 107.796,149.55C107.139,156.188 109.292,159.493 102.549,159.092C98.215,158.835 106.435,148.754 85.573,140.331C81.161,138.55 81.063,139.765 76.365,139.748C77.222,137.256 76.663,136.974 76.458,136.87C75.371,136.32 75.657,137.197 74.637,139.632Z"/>
            <path d="M320.027,147.432C322.227,140.964 317.758,134.525 316.656,132.407C314.417,128.098 303.984,124.738 304.275,122.455C305.413,113.528 319.073,108.489 324.584,110.294C337.65,114.576 336.466,120.169 337.04,124.652C337.364,127.18 340.366,124.325 340.406,124.308C354.667,118.229 365.559,135.909 357.244,146.321C355.158,148.933 360.29,150.884 361.544,150.676C367.729,149.648 367.747,150.017 373.582,152.337C377.364,153.841 382.171,162.58 379.26,166.297C376.233,170.162 377.249,170.904 380.744,174.267C384.349,177.737 379.714,177.009 373.394,180.328C371.975,181.074 364.965,188.854 364.364,190.435C362.709,194.794 361.354,194.75 362.737,198.396C363.791,201.176 359.901,205.942 355.725,204.009C352.5,202.517 352.428,203.218 346.51,203.118C339.382,202.997 350.196,189.723 333.375,180.704C330.578,179.205 330.46,179.754 327.391,178.74C323.011,177.293 321.468,179.645 319.643,175.425C319.024,173.992 313.136,167.124 311.617,166.347C308.559,164.783 313.154,164.606 315.287,158.409C317.268,152.653 319.636,153.572 320.027,147.432Z"/>
            <path d="M527.748,191.804C527.747,192.153 526.967,192.151 526.966,192.5C526.963,193.198 530.243,193.936 530.546,194.005C548.963,198.152 543.862,224.341 527.452,222.935C520.958,222.379 524.694,226.789 526.533,226.726C536.506,226.381 528.292,249.534 511.379,240.701C506.028,237.906 514.272,234.817 508.66,221.433C504,210.319 497.625,213.318 498.316,209.452C499.675,201.848 501.999,200.877 494.221,189.736C490.878,184.946 480.022,185.457 481.687,180.573C484.541,172.198 480.586,167.329 480.287,166.58C479.313,164.147 483.606,162.784 485.536,163.054C489.348,163.588 488.08,159.48 488.082,159.442C488.429,154.264 500.918,153.512 504.008,158.749C506.396,162.796 507.3,158.406 511.521,157.928C528.444,156.011 535.075,173.512 533.342,178.431C531.224,184.442 533.801,189.729 527.748,191.804Z"/>
            <path d="M193.498,364.999C186.571,364.711 186.517,365.057 185.7,364.272C185.28,363.869 181.033,359.79 181.347,358.445C181.959,355.827 189.832,359.166 190.511,359.454C195.126,361.412 185.726,347.55 186.288,345.398C186.525,344.493 188.956,341.717 195.723,352.3C200.07,359.098 197.29,348.44 198.299,345.416C199.288,342.452 198.358,342.331 199.295,339.416C203.514,326.287 204.143,340.994 204.349,341.569C206.256,346.896 204.408,354.738 204.762,355.36C205.893,357.35 208.111,349.721 212.386,347.312C223.181,341.232 209.212,356.442 211.35,358.644C212.075,359.391 212.195,358.789 215.409,357.288C216.796,356.64 220.8,357.032 221.248,357.702C221.976,358.791 216.745,363.792 216.269,364.246C214.688,365.758 199.224,365.09 193.498,364.999Z"/>
            <path d="M43.799,308.33C47.305,308.324 45.502,303.431 51.698,297.725C53.284,296.264 55.206,298.356 54.71,299.555C49.761,311.517 47.362,314.423 50.44,313.031C50.787,312.874 50.653,312.687 54.602,310.698C58.447,308.762 62.162,310.465 58.267,315.297C55.845,318.303 55.159,318.097 35.49,317.95C32.395,317.927 33.35,316.437 29.696,309.399C27.787,305.723 19.63,295.255 28.606,300.326C33.792,303.256 33.036,303.987 35.932,309.215C40.858,318.109 33.303,286.884 35.416,285.392C38.676,283.089 43.985,298.191 43.799,308.33Z"/>
            <path d="M398.505,334.009C404.455,334.833 400.676,337.201 400.403,337.342C399.888,337.607 396.953,340.86 395.553,340.912C377.336,341.579 376.92,341.006 376.389,339.564C372.539,329.101 366.399,320.522 370.501,320.547C371.33,320.552 376.921,325.702 377.628,328.444C378.757,332.818 380.17,329.679 380.168,329.46C380.155,327.922 380.001,309.517 386.613,311.347C387.629,311.628 386.242,312.08 386.031,324.501C385.94,329.883 383.861,335.055 387.399,331.377C389.523,329.17 387.335,326.923 394.561,323.675C400.667,320.93 387.059,338.615 392.458,336.339C393.105,336.066 394.618,334.49 398.505,334.009Z"/>
            <path d="M504.613,295.61C502.22,300.627 501.403,305.17 498.714,302.275C498.537,302.085 497.89,296.708 496.502,297.507C495.884,297.863 495.789,304.903 492.805,300.135C492.035,298.904 492.587,298.672 485.71,283.426C484.713,281.216 489.007,280.15 492.683,286.388C496.356,292.62 496.768,293.243 497.602,292.662C499.049,291.653 493.939,289.89 503.277,271.355C504.193,269.536 505.906,270.183 505.968,271.372C506.628,283.962 502.378,285.951 504.613,295.61Z"/>
            <path d="M505.557,293.585C511.703,282.236 519.942,282.405 516.699,287.62C508.426,300.924 508.887,301.452 507.572,301.733C505.872,302.097 505.961,297.994 505.91,296.177C506.192,294.803 505.937,294.866 505.557,293.585Z"/>
            <path d="M348.501,353.964C346.693,353.923 334.556,352.429 343.368,347.263C346.771,345.268 346.971,343.008 349.541,345.451C354.283,349.959 353.866,351.026 353.651,351.576C352.927,353.428 348.951,353.909 348.501,353.964Z"/>
            <path d="M140.505,341.961C131.5,340.839 141.439,336.013 141.632,335.579C142.324,334.023 141.144,331.623 145.462,331.988C149.082,332.294 154.995,340.861 140.505,341.961Z"/>
            <path d="M251.491,355.961C250.852,355.959 236.53,355.899 246.59,349.651C253.694,345.238 259.371,354.93 251.491,355.961Z"/>
            <path d="M213.499,319.99C212.818,319.946 206.081,319.514 205.319,317.594C204.298,315.023 208.031,313.472 208.422,313.309C211.581,311.997 217.992,315.373 218.217,315.727C220.339,319.06 214.003,319.921 213.499,319.99Z"/>
            <path d="M88.5,343.952C86.438,343.704 86.433,343.811 84.394,342.662C82.474,341.579 83.036,338.884 84.408,338.333C88.321,336.763 88.08,336.396 88.429,336.309C91.174,335.62 103.384,343.81 88.5,343.952Z"/>
            <path d="M519.501,296.051C519.95,296.083 529.773,296.785 521.402,301.335C520.701,301.716 514.19,305.255 511.491,302.509C510.219,301.214 513.567,297.685 514.421,297.345C516.872,296.371 519.085,296.102 519.501,296.051Z"/>
            <path d="M487.499,302.952C481.588,302.438 482.175,300.507 480.247,298.791C473.342,292.649 486.793,294.089 489.182,297.855C493.182,304.162 487.914,302.892 487.499,302.952Z"/>
            <path d="M454.441,329.968C450.144,328.104 447.62,328.747 449.323,324.412C449.408,324.195 452.153,321.393 455.431,322.655C466.516,326.919 456.957,329.695 454.441,329.968Z"/>
            <path d="M22.5,311.045C23.278,311.112 29.652,311.664 30.618,316.468C31.114,318.94 24.719,318.137 23.726,317.231C21.314,315.032 21.338,315.161 18.735,313.277C18.61,313.186 17.592,312.448 18.356,311.385C18.551,311.115 18.655,311.36 22.5,311.045Z"/>
            <path d="M399.501,295.987C390.121,294.829 397.878,288.201 400.585,289.292C401.033,289.472 404.877,291.02 404.919,293.49C404.982,297.224 403.185,295.733 399.501,295.987Z"/>
            <path d="M366.254,336.751C365.522,335.856 364.525,335.201 363.794,334.306C360.854,330.711 372.342,331.455 373.668,339.469C373.771,340.092 372.223,343.761 366.254,336.751Z"/>
            <path d="M461.499,317.059C461.986,317.129 467.084,317.86 465.668,321.583C463.982,326.02 452.098,318.426 461.499,317.059Z"/>
            <path d="M174.336,95.503C174.073,95.683 174.648,96.277 174.385,96.457C174.385,96.457 172.871,96.197 172.739,96.174C172.143,95.355 171.782,94.144 169.638,93.1C168.743,92.664 168.748,91.687 168.748,91.543C168.793,82.746 174.208,95.293 174.336,95.503Z" style="fill-opacity:0.07;"/>
            <path d="M97.399,296.316C92.602,289.932 97.19,287.315 97.847,288.087C98.277,288.593 97.753,288.67 98.581,296.35L97.399,296.316Z" style="fill-opacity:0.99;"/>
            <path d="M74.637,139.632C75.657,137.197 75.371,136.32 76.458,136.87C76.663,136.974 77.222,137.256 76.365,139.748C75.789,139.709 75.213,139.67 74.637,139.632Z" style="fill-opacity:0.27;"/>
            <path d="M174.336,95.503C175.844,98.965 173.435,97.962 173.323,97.796C172.814,97.038 173.04,97.01 172.739,96.174C172.871,96.197 174.385,96.457 174.385,96.457C174.648,96.277 174.073,95.683 174.336,95.503Z" style="fill-opacity:1;"/>
            <path d="M505.557,293.585C505.937,294.866 506.192,294.803 505.91,296.177C505.478,295.988 505.045,295.799 504.613,295.61L505.557,293.585Z" style="fill-opacity:0.62;"/>
        </g>
    </g>
</svg>
