<?xml version="1.0" encoding="UTF-8" standalone="no"?>
<!DOCTYPE svg PUBLIC "-//W3C//DTD SVG 1.1//EN" "http://www.w3.org/Graphics/SVG/1.1/DTD/svg11.dtd">
<svg width="100%" height="100%" viewBox="0 0 384 333" version="1.1" xmlns="http://www.w3.org/2000/svg" xmlns:xlink="http://www.w3.org/1999/xlink" xml:space="preserve" xmlns:serif="http://www.serif.com/" style="fill-rule:evenodd;clip-rule:evenodd;stroke-linejoin:round;stroke-miterlimit:2;">
    <g transform="matrix(1,0,0,1,72,61.5)">
        <g id="ice" transform="matrix(2.461386,0,0,3.167088,-4.749517,32.465245)">
            <path d="M35.577,2.345C35.346,2.84 35.517,2.877 35.289,3.367C35.177,3.606 35.076,3.505 34.935,3.721C34.768,3.977 34.69,4.284 34.523,4.54C31.055,6.126 31.099,6.185 27.67,7.843C26.617,8.352 25.966,8.437 25.927,8.633C25.865,8.942 26.037,9.253 26.103,9.561C26.128,9.68 26.38,10.868 26.184,11.084C26.001,11.284 25.681,11.289 25.435,11.403C22.266,12.864 22.657,10.181 20.527,9.452C20.487,9.439 16.569,8.379 15.393,10.438C14.389,12.198 14.515,12.416 12.434,13.361C10.74,14.13 8.299,15.994 8.087,16.132C7.271,16.663 6.909,16.709 7.362,17.581C7.531,17.906 7.799,17.422 11.614,19.276C13.461,20.174 13.992,19.577 15.498,19.49C16.441,19.435 16.434,19.472 17.327,19.197C18.979,18.687 19.016,19.006 22.496,18.861C24.488,18.778 25.216,18.773 25.77,19.273C26.052,19.527 26.834,20.972 24.477,21.172C23.021,21.295 23.054,21.411 21.616,21.738C19.47,22.225 17.886,21.132 15.497,21.284C15.361,21.292 13.931,21.383 13.813,21.564C13.348,22.272 13.495,22.403 14.164,22.906C14.659,23.277 17.518,23.199 19.287,23.818C20.847,24.364 20.878,24.168 22.45,24.618C22.767,24.708 28.555,25.383 30.559,24.619C30.84,24.512 31.088,24.332 31.368,24.225C33.561,23.386 36.517,24.486 38.212,23.196C38.815,22.737 38.743,22.676 39.353,22.251C39.837,21.913 40.347,22.294 44.24,18.249C47.023,15.357 47.486,18.901 51.494,18.963C60.385,19.101 60.813,18.911 61.549,18.585C62.319,18.244 63.449,16.829 64.374,16.289C66.849,14.845 66.716,14.643 69.271,13.327C70.071,12.664 70.872,12.001 71.672,11.338C71.752,11.718 72.167,11.839 72.128,13.501C72.02,18.07 72.063,18.07 72.013,18.464C71.993,18.626 71.882,19.51 71.1,20.294C70.969,20.426 70.767,20.469 70.636,20.601C69.312,22.223 69.64,22.403 69.521,22.536C69.289,22.793 68.815,22.725 68.583,22.982C57.639,23.543 53.381,22.274 50.632,23.768C48.375,24.994 48.301,24.776 46.452,25.1C46.133,25.156 43.542,25.609 43.134,27.416C42.885,28.52 43.575,29.367 41.429,30.356C38.763,31.585 35.868,33.386 33.438,34.389C33.253,34.466 31.628,35.136 31.817,36.302C31.857,36.55 35.322,37.821 35.609,38.407C36.033,39.272 35.816,39.309 35.745,41.442C35.735,41.739 35.728,42.05 35.829,42.329C35.975,42.737 36.323,43.052 36.47,43.461C35.914,43.875 35.786,42.966 35.234,43.377C34.475,43.944 35.192,44.414 34.442,44.972C34.156,45.185 33.682,44.533 33.395,44.746C31.522,43.809 31.589,43.669 29.587,43.078C26.791,42.253 26.793,41.103 26.854,37.509C26.948,32.01 34.588,32.222 34.721,30.385C34.772,29.679 33.551,29.769 33.438,29.777C33.212,29.794 33.024,29.993 32.798,30.006C32.595,30.018 31.826,29.687 30.385,30.237C26.65,31.662 26.52,30.753 22.525,30.977C20.643,31.083 20.613,30.936 19.228,29.801C17.7,28.549 15.176,29.481 13.379,28.765C11.623,28.066 11.552,28.062 10.605,26.43C9.851,25.13 6.927,24.238 6.572,24.13C4.194,23.405 4.222,22.997 4.028,20.511C3.867,18.441 3.26,17.809 3.219,17.587C2.823,15.485 5.185,14.996 6.189,14.158C7.284,13.243 7.262,13.229 8.524,12.542C10.067,11.703 11.228,9.744 13.336,8.219C17.128,5.475 20.903,7.678 23.56,6.63C23.845,6.518 24.086,6.309 24.374,6.205C25.078,5.95 25.819,5.806 26.525,5.556C26.807,5.457 27.067,5.3 27.331,5.16C34.376,1.401 34.701,2.387 35.577,2.345ZM37.569,29.012C37.306,28.698 36.68,28.9 36.418,28.587C35.668,27.694 36.613,26.816 36.724,26.713C36.837,26.608 37.761,25.749 38.613,26.369C39.842,27.264 38.675,28.431 38.551,28.554C38.296,28.81 37.824,28.756 37.569,29.012Z" style="fill-opacity:1;"/>
            <path d="M70.636,20.601C70.82,20.719 70.965,21.5 72.454,21.774C73.104,21.893 73.106,21.84 73.713,22.106C77.779,23.884 78.198,21.936 80.715,23.114C82.987,24.177 83.153,23.603 85.518,24.457C87.866,25.305 88.719,24.08 90.78,26.206C92.299,27.774 92.617,27.328 94.348,28.673C97.824,31.373 98.783,31.14 98.344,33.449C97.435,38.236 98.454,38.516 97.564,39.552C97.038,40.165 92.459,42.215 91.763,42.792C89.092,45.006 88.886,44.66 85.611,45.769C84.156,46.262 83.974,45.937 82.492,45.978C79.476,46.061 79.415,46.391 76.563,45.364C76.406,45.308 75.444,44.961 74.508,44.981C71.467,45.043 71.27,45.621 70.368,46.331C67.562,48.54 64.099,48.081 63.542,48.007C63.158,47.956 62.825,47.69 62.442,47.637C62.142,47.595 61.842,47.721 61.54,47.728C61.25,47.735 60.942,47.572 60.672,47.679C60.466,47.761 60.452,48.073 60.289,48.224C60.179,48.327 59.643,48.826 58.552,48.936C57.887,49.003 57.209,48.903 56.547,48.993C55.893,49.081 54.675,49.999 52.508,50.095C49.124,50.244 48.438,49.636 46.571,49.113C43.428,48.231 43.278,47.353 41.544,47.121C41.206,47.076 40.859,47.147 40.522,47.093C39.424,46.913 37.399,45.751 37.378,45.74C35.734,44.921 34.841,45.107 34.533,45.055C34.146,44.99 33.783,44.811 33.395,44.746C33.682,44.533 34.156,45.185 34.442,44.972C35.192,44.414 34.475,43.944 35.234,43.377C35.786,42.966 35.914,43.875 36.47,43.461C36.604,43.268 37.031,43.542 37.165,43.349C37.364,43.062 37.201,42.648 37.273,42.306C37.375,41.818 37.436,41.301 37.684,40.869C38.267,39.854 40.264,39.933 40.502,39.942C44.236,40.089 44.695,41.868 48.433,42.887C50.363,43.414 50.299,43.568 50.468,43.601C51.769,43.856 52.417,42.815 54.492,42.91C57.412,43.045 57.409,42.954 59.397,42.255C61.563,41.494 65.167,42.574 67.349,41.245C68.378,40.619 68.629,40.701 68.696,39.501C68.715,39.168 68.56,38.841 68.571,38.508C68.641,36.474 69.563,36.883 71.449,37.608C72.25,37.916 74.208,38.092 74.626,38.253C75.939,38.757 75.534,39.893 78.503,39.918C83.388,39.961 83.385,40.259 84.476,40.08C86.097,39.813 85.566,39.184 85.593,37.545C85.606,36.706 86.038,37.038 86.259,37.035C86.677,37.029 87.09,36.931 87.508,36.918C90.282,36.831 90.558,37.486 92.689,35.712C94.021,34.603 95.261,34.837 95.209,33.51C95.176,32.683 94.985,32.708 94.649,32.383C93.095,30.884 91.629,30.554 90.725,30.033C88.847,28.95 88.895,27.522 87.559,27.216C87.209,27.136 86.828,27.259 86.483,27.158C85.821,26.964 85.228,26.582 84.58,26.342C84.252,26.221 83.912,26.118 83.565,26.078C82.977,26.01 82.379,26.083 81.79,26.02C81.622,26.002 81.475,25.897 81.316,25.837C79.001,24.972 78.966,25.132 76.491,25.204C73.956,25.277 73.445,24.329 71.338,23.704C69.582,23.183 69.611,23.142 69.459,23.097C69.177,23.013 68.866,23.066 68.583,22.982C68.815,22.725 69.289,22.793 69.521,22.536C69.64,22.403 69.312,22.223 70.636,20.601Z" style="fill-opacity:0.99;"/>
            <path d="M10.521,43.997C10.292,44.012 8.064,44.159 7.661,44.003C7.268,43.852 6.95,43.546 6.565,43.375C4.568,42.49 4.306,43.587 2.329,42.66C2.247,42.622 1.713,42.371 1.969,41.597C2.097,41.209 2.41,40.906 2.575,40.532C2.922,39.745 2.582,38.844 4.651,36.647C7.413,33.715 8.703,34.274 11.291,33.124C13.483,32.15 14.557,33.539 16.456,33.788C18.458,34.05 19.073,33.628 20.407,36.555C21.054,37.975 21.205,38.097 20.382,39.429C19.311,41.16 18.015,41.53 16.41,42.323C14.986,43.028 14.642,42.908 13.439,43.355C12.021,43.883 12.017,43.802 10.521,43.997ZM6.908,38.378C6.989,38.171 6.816,37.918 6.897,37.711C7.012,37.419 7.792,36.875 7.879,36.814C8.219,36.577 12.105,35.373 12.527,35.42C12.696,35.439 12.571,35.826 14.554,36.069C15.597,36.197 15.598,35.879 16.646,36.079C16.81,36.11 20.178,36.961 16.422,38.144C16.323,38.175 15.66,38.199 14.599,38.673C13.79,39.034 11.834,40.341 9.449,39.634C8.997,39.5 9.045,39.41 8.595,39.29C8.102,39.157 8.098,39.271 7.613,39.141C7.378,38.887 7.143,38.632 6.908,38.378Z"/>
            <path d="M35.577,2.345C37.519,2.822 37.484,3.033 39.495,3.026C50.291,2.991 50.346,2.435 52.62,3.19C55.105,4.015 55.142,3.869 55.355,3.948C56.08,4.216 56.234,4.966 59.505,4.927C59.918,4.923 62.235,4.895 64.366,6.651C65.313,7.431 65.049,7.828 68.517,9.469C70.183,10.258 70.168,10.269 71.672,11.338C70.872,12.001 70.071,12.664 69.271,13.327C69.069,13.034 68.974,12.677 68.772,12.385C68.438,11.9 68.382,11.957 62.35,8.79C59.149,7.11 58.185,9.662 55.485,10.148C54.54,10.318 54.352,10.001 54.16,9.97C54.016,9.946 53.851,10.138 53.732,10.056C53.594,9.961 53.42,8.997 53.656,8.598C53.771,8.405 54.036,8.355 54.232,8.244C55.434,7.567 56.287,7.629 55.517,6.492C55.306,6.18 54.877,6.061 54.508,5.987C54.453,5.976 53.596,6.223 52.36,5.861C51.638,5.65 50.747,5.257 50.61,5.196C50.472,5.136 50.387,4.95 50.237,4.941C49.778,4.914 49.796,5.269 44.501,5.263C38.489,5.256 38.442,5.393 37.21,4.86C36.016,4.343 35.975,4.587 34.523,4.54C34.69,4.284 34.768,3.977 34.935,3.721C35.076,3.505 35.177,3.606 35.289,3.367C35.517,2.877 35.346,2.84 35.577,2.345Z" style="fill-opacity:0.96;"/>
            <path d="M83.636,30.72C82.082,31.522 82.201,31.815 80.476,32.085C80.245,32.121 78.037,32.466 78.011,30.507C77.994,29.209 78.371,29.321 79.592,28.895C83.62,27.492 84.28,28.219 84.502,28.499C85.397,29.629 84.657,29.714 83.636,30.72Z"/>
            <path d="M96.502,47.995C96.187,47.946 95.861,48.07 95.546,48.021C94.165,47.807 93.299,46.793 93.257,46.587C92.894,44.821 93.758,45.072 95.544,44.883C95.884,44.848 96.215,44.748 96.553,44.687C100.406,43.997 100.418,47.028 98.614,47.716C98.188,47.878 97.655,47.948 97.57,47.96C97.027,48.032 97.038,47.924 96.502,47.995Z"/>
            <path d="M81.764,43.195C81.955,42.847 81.699,42.797 81.883,42.458C81.917,42.397 82.094,42.073 82.5,41.847C84.035,40.993 84.534,42.356 84.595,42.521C84.834,43.174 83.643,43.553 83.528,43.589C81.99,44.079 82.134,43.278 81.764,43.195Z"/>
        </g>
    </g>
</svg>
