<?xml version="1.0" encoding="UTF-8" standalone="no"?>
<!DOCTYPE svg PUBLIC "-//W3C//DTD SVG 1.1//EN" "http://www.w3.org/Graphics/SVG/1.1/DTD/svg11.dtd">
<svg width="100%" height="100%" viewBox="0 0 384 333" version="1.1" xmlns="http://www.w3.org/2000/svg" xmlns:xlink="http://www.w3.org/1999/xlink" xml:space="preserve" xmlns:serif="http://www.serif.com/" style="fill-rule:evenodd;clip-rule:evenodd;stroke-linejoin:round;stroke-miterlimit:2;">
    <g transform="matrix(1,0,0,1,72,61.5)">
        <g id="jungle_trop_1" transform="matrix(0.422973,0,0,0.476691,-0.845946,10.123536)">
            <path d="M79.282,226.619C77.957,224.773 76.056,222.613 75.76,222.277C73.031,219.176 78.13,217.753 81.293,220.74C84.441,223.713 83.922,220.102 85.476,218.475C89.088,214.692 88.969,223.943 88.961,224.499C88.913,228.23 90.476,227.046 90.653,226.892C93.556,224.38 95.479,225.777 94.329,229.432C93.39,232.414 97.364,233.376 98.017,234.742C103.123,245.413 101.43,221.573 98.722,218.306C97.21,216.481 96.9,213.501 88.726,209.007C87.412,208.285 86.619,206.253 85.584,206.113C73.568,204.484 74.034,194.509 70.581,199.586C68.615,202.479 63.8,198.905 63.047,202.405C61.03,211.78 40.01,210.595 40.906,200.525C40.933,200.223 44.037,195.836 40.521,196.947C31.901,199.672 23.878,200.772 20.281,192.591C18.85,189.336 20.932,176.958 33.403,180.729C36.624,181.703 36.219,178.354 33.465,177.94C28.094,177.131 26.253,176.539 28.339,171.419C28.64,170.68 34.379,163.843 37.528,163.853C40.634,163.862 42.909,167.086 45.707,164.731C47.682,163.069 48.544,164.264 49.999,161.751C51.768,158.694 59.379,159.567 61.101,161.979C63.163,164.868 62.612,160.526 65.725,158.977C67.82,157.934 70.379,158.167 67.977,155.185C65.958,152.678 64.784,154.826 62.326,152.646C60.268,150.82 58.226,153.397 55.5,153.4C45.264,153.412 42.897,144.01 45.776,141.764C47.267,140.6 48.809,140.952 47.734,137.411C46.574,133.588 55.438,127.292 60.595,129.281C63.554,130.422 63.943,130.288 65.772,127.731C69.05,123.148 76.378,127.6 74.454,124.526C69.008,115.823 78.129,116.579 79.017,113.435C80.467,108.301 81.991,109.598 89.586,105.658C92.619,104.085 103.519,104.52 106.069,111.683C106.579,113.114 119.36,110.739 116.252,120.418C115.024,124.243 119.43,120.542 121.599,121.267C123.823,122.01 124.198,121.511 125.37,123.604C126.412,125.463 139.965,118.316 144.697,129.419C145.803,132.013 143.986,132.678 146.254,134.764C146.871,135.331 152.167,140.201 146.276,145.238C144.231,146.987 135.842,147.361 139.727,149.009C141.601,149.804 142.377,147.912 144.724,150.327C148.198,153.905 152.963,144.306 158.729,154.387C161.091,158.517 162.789,152.77 171.546,154.049C181.408,155.488 178.994,162.667 178.69,163.569C177.535,167.003 180.965,165.306 182.68,168.39C188.719,179.253 172.844,180.146 175.181,182.631C181.042,188.863 168.203,200.126 155.725,193.032C153.575,191.81 150.48,184.72 149.02,189.21C148.741,190.065 145.792,191.743 143.787,194.743C140.311,199.944 139.869,199.421 134.41,202.355C129.554,204.964 132.813,215.442 131.229,217.266C128.914,219.932 129.71,220.253 128.032,223.217C127.232,224.63 124.173,222.294 120.784,226.746C112.738,237.315 116.853,238.633 116.963,257.515C117.011,265.681 117.431,265.58 119.133,273.522C119.265,274.136 120.434,279.591 122.401,280.664C126.51,282.905 129.185,274.868 132.264,279.656C133.507,281.588 127.333,283.453 131.61,285.065C137.876,287.427 134.347,292.404 128.385,290.749C127.075,290.385 124.281,288.611 123.82,291.537C123.116,296.007 118.394,290.278 112.586,292.679C107.727,294.688 107.701,289.427 103.589,290.732C97.103,292.791 90.731,296.709 90.839,292.476C90.906,289.826 78.97,294.765 81.317,288.409C82.564,285.031 90.09,289.15 90.094,281.482C90.096,276.624 95.877,279.402 96.648,276.574C97.325,274.093 101.518,250.475 99.212,247.742C94.25,241.862 93.076,243.999 92.953,244.548C90.857,253.965 86.214,247.896 83.391,246.962C79.851,245.791 77.631,241.502 82.671,236.648C86.32,233.134 70.841,233.291 75.484,228.484C75.675,228.286 75.823,228.132 78.88,227.901C80.395,229.064 80.354,229.125 80.516,229.157C80.737,229.199 82.538,228.335 79.282,226.619ZM113.182,215.5C111.637,210.111 111.794,210.109 112.125,204.451C112.326,201.024 125.302,186.665 125.504,186.666C131.846,186.689 125.827,200.611 124.969,205.537C123.04,216.616 117.011,216.819 115.357,219.403C113.402,222.456 113.329,219.095 113.182,215.5ZM90.928,179.541C97.741,188.686 101.905,192.699 101.138,205.438C100.994,207.821 92.359,201.834 88.695,195.383C87.019,192.433 89.513,192.801 90.706,189.603C92.715,184.221 91.448,184.113 89.576,181.42C90.026,180.793 90.477,180.167 90.928,179.541ZM110.011,189.814C109.414,188.692 109.189,188.869 109.09,187.556C108.592,180.931 108.043,181.029 108,180.455C107.449,173.082 106.596,173.227 106.86,172.654C107.793,170.627 110.052,177.047 115.75,171.765C119.249,168.521 121.228,171.745 119.268,173.247C118.684,173.694 113.432,177.718 117.711,182.312C121.639,186.529 114.655,186.318 111.531,191.53C111.024,190.958 110.518,190.386 110.011,189.814ZM132.982,190.501C133.344,188.581 133.306,188.583 133.373,188.428C135.376,183.77 144.195,190.927 135.597,195.666C131.021,198.188 132.535,194.171 132.982,190.501ZM99.497,171.211C99.718,172.494 99.91,172.336 100.167,173.579C100.802,180.253 102.586,187.595 99.078,181.917C96.592,177.891 92.701,176.934 97.592,173.653C98.214,173.235 99.364,171.42 99.497,171.211ZM90.928,179.541C90.477,180.167 90.026,180.793 89.576,181.42C85.97,176.876 84.772,177.537 84.751,175.547C84.743,174.804 90.882,167.338 90.928,179.541ZM79.615,195.737C85.326,194.859 83.595,200.751 81.424,199.748C77.704,198.028 78.687,197.023 79.615,195.737ZM110.011,189.814C110.518,190.386 111.024,190.958 111.531,191.53C110.269,193.012 109.6,191.774 110.011,189.814Z"/>
            <path d="M428.697,190.265C429.385,190.909 434.386,195.588 428.22,202.029C424.225,206.201 421.993,200.273 417.277,204.238C415.143,206.033 414.627,204.278 409.596,205.759C407.066,206.504 407.116,205.952 404.57,205.997C400.276,206.072 408.701,208.592 409.016,212.623C409.34,216.774 411.61,211.126 415.587,212.274C420.215,213.611 420.473,205.856 428.429,208.658C433.484,210.438 432.753,215.161 437.389,212.316C449.982,204.587 455.562,216.64 454.74,218.605C453.551,221.45 452.345,222.977 455.476,222.984C463.937,223.001 463.226,238.393 453.382,239.05C449.343,239.32 454.687,241.713 453.351,245.433C449.34,256.603 433.237,254.736 430.295,247.598C428.273,242.692 424.937,250.124 419.258,245.814C415.392,242.881 415.875,251.887 413.734,255.621C413.042,256.828 413.308,256.885 412.986,260.494C412.244,261.98 412.25,262.036 412.98,263.508C411.73,274.346 395.981,281.695 395.972,292.505C395.969,296.455 397.406,318.262 400.792,322.25C403.663,325.632 407.482,319.113 408.015,323.54C408.877,330.701 416.808,329.142 413.305,333.328C409.101,338.351 395.291,331.574 392.356,334.345C384.922,341.363 383.667,331.638 378.435,333.344C370.022,336.088 369.78,336.701 361.378,333.699C357.059,332.156 367.493,328.573 365.247,326.737C363.483,325.294 362.391,325.518 363.276,323.372C364.064,321.462 364.632,322.581 366.543,323.41C366.653,323.482 370.63,326.014 367.979,321.728C371.753,318.06 371.129,322.634 372.471,323.542C373.294,324.099 376.96,325.707 378.049,312.437C378.378,308.438 378.938,308.551 378.83,304.488C378.663,298.184 382.328,293.077 376.725,286.305C371.449,279.928 371.838,279.746 366.238,273.752C358.275,265.228 362.973,262.154 359.586,260.36C349.225,254.872 348.728,251.307 347.586,251.112C344.132,250.519 343.899,251.174 341.286,248.767C338.695,246.381 339.968,252.247 334.592,253.719C317.812,258.315 317.163,247.118 320.22,243.286C324.679,237.698 315.253,244.745 310.253,239.756C300.681,230.206 312.241,224.703 313.39,224.156C315.326,223.234 309.899,216.667 316.386,213.31C324.37,209.179 324.733,210.509 328.457,211.745C330.552,212.441 329.24,206.544 337.477,206.976C340.86,207.153 346.058,207.965 341.721,203.296C341.237,202.776 337.047,198.265 343.597,194.621C343.689,194.57 344.675,182.072 356.499,181.967C362.757,181.911 362.363,180.557 368.409,179.051C368.641,178.994 368.884,169.076 375.495,168.967C375.629,168.965 387.505,158.32 396.277,165.76C398.666,167.787 397.495,170.197 400.402,169.256C407.077,167.096 407.079,178.875 407.645,179.279C412.375,182.659 413.529,177.511 418.582,180.334C422.933,182.764 423.943,180.972 427.257,184.714C429.249,186.962 427.618,187.452 428.697,190.265ZM371.042,243.854C372.985,251.274 374.333,250.51 376.543,251.411C381.99,253.631 383.288,271.03 381.289,274.425C381.084,274.774 382.389,279.471 379.259,275.855C373.01,268.635 370.821,269.891 369.941,263.435C369.87,262.914 367.049,258.599 366.109,253.555C365.226,248.824 364.37,248.074 368.273,245.229C368.881,244.786 368.898,243.734 371.042,243.854ZM393.981,261.501C395.065,253.277 400.621,249.966 403.24,247.269C405.141,245.311 403.991,241.562 407.422,242.705C409.474,243.389 414.503,239.846 412.747,243.58C408.535,252.537 409.026,252.902 406.721,254.748C404.037,256.898 405.285,257.532 404.834,263.548C404.662,265.853 396.51,274.518 395.538,274.682C393.134,275.09 393.975,263.924 393.981,261.501ZM392.642,231.972C400.996,228.102 400.644,227.386 401.43,227.242C406.308,226.348 398.078,233.286 397.9,235.522C397.594,239.371 401.123,240.372 396.25,245.249C390.567,250.938 390.968,240.098 391.161,233.407C391.654,232.928 392.148,232.45 392.642,231.972ZM383.126,232.564C382.07,239.59 384.489,250.137 381.327,246.833C369.252,234.214 378.394,232.951 379.516,232.912C381.586,232.84 381.849,230.891 383.126,232.564ZM360.005,251.495C359.905,251.864 360.837,256.091 356.751,253.203C354.745,251.786 351.586,249.567 355.403,249.089C360.202,248.488 359.644,250.118 360.005,251.495ZM370.506,232.493C368.486,230.417 369.448,229.95 369.647,229.853C370.94,229.225 376.115,234.478 370.506,232.493ZM392.642,231.972C392.148,232.45 391.654,232.928 391.161,233.407C390.202,231.904 389,231.525 390.629,230.693C390.629,230.693 392.481,231.869 392.642,231.972Z" style="fill-opacity:1;"/>
            <path d="M285.565,9.777C285.412,9.779 279.656,10.632 285.148,11.645C285.246,11.998 287.199,13.017 283.263,16.216C280.992,18.061 268.406,15.654 276.377,19.715C279.732,21.423 275.954,28.103 270.57,26.333C267.652,25.373 266.142,28.535 266.827,29.248C272.031,34.667 264.992,34.065 258.629,43.501C254.148,47.874 260.103,44.144 260.204,44.056C279.386,23.845 298.034,29.95 299.502,30.027C310.241,30.593 323.142,44.699 318.595,46.676C311.355,49.825 311.57,46.564 305.477,41.704C305.067,41.674 304.98,40.899 304.57,40.869C304.365,40.854 303.493,40.928 304.774,43.436C304.898,43.669 306.163,46.033 305.621,46.619C301.954,50.593 295.015,43.345 294.355,42.655C290.04,38.148 293.597,46.562 293.31,47.099C293.289,47.139 286.351,47.043 285.421,46.66C283.499,45.868 282.358,43.617 281.873,46.598C281.352,49.806 274.517,48.509 272.261,46.81C271.68,46.372 271.176,45.993 263.652,49.74C252.083,55.5 267.803,49.044 280.576,51.318C302.198,55.166 309.47,90.529 300.422,85.661C292.832,81.576 295.939,71.738 292.937,76.814C291.835,78.675 291.424,78.42 289.594,77.34C284.037,74.06 290.167,69.109 286.511,69.196C286.203,69.203 284.702,74.611 279.664,70.312C278.027,68.915 279.34,60.563 277.26,65.26C275.817,68.517 270.69,67.079 268.288,61.593C266.667,57.891 265.561,59.692 261.553,59.725C258.566,58.209 258.522,59.26 258.511,59.504C258.443,61.097 259.249,60.216 260.729,59.845C260.611,62.902 263.503,61.154 267.345,67.593C278.45,86.205 266.364,104.825 264.911,94.445C263.729,85.994 264.218,85.546 263.495,85.523C255.37,85.269 263.566,79.14 261.672,77.322C260.78,76.467 259.39,78.132 259.257,78.292C257.876,79.947 256.849,79.234 255.312,75.577C253.857,72.117 258.78,69.451 254.421,68.938C254.271,68.92 254.293,68.882 252.688,68.18C252.592,68.027 251.491,66.268 251.491,66.268C251.292,66.264 251.435,66.434 250.703,68.619C248.757,72.605 241.246,105.757 245.118,120.528C246.589,126.138 242.504,126.535 245.707,135.414C245.765,135.575 246.303,163.971 255.503,163.887C257.633,163.867 259.357,158.794 260.739,162.38C261.265,163.745 260.171,167.16 261.413,167.635C274.759,172.746 260.203,175.274 255.401,173.729C245.515,170.547 246.045,174.59 243.579,175.658C238.459,177.874 237.803,171.316 233.578,172.698C224.172,175.775 224.138,177.421 214.55,175.104C209.557,173.898 208.799,174.589 208.308,172.573C207.409,168.884 213.947,169.443 214.498,169.491C219.601,169.928 209.087,163.585 212.369,162.278C216.508,160.629 220.606,168.318 219.139,163.551C218.474,161.391 217.947,161.692 217.271,159.563C215.953,155.41 223.836,157.084 223.086,162.565C222.478,167.004 226.182,162.268 226.725,161.934C231.493,159.01 232.242,157.381 229.977,152.33C232.177,148.528 230.067,147.707 229.854,143.539C231.115,141.025 232.436,141.192 231.301,138.592C231.037,137.987 231.904,137.937 229.895,130.465C229.241,128.029 230.926,124.73 231.156,124.28C232.13,122.375 230.579,103.275 239.678,79.577C245.218,65.148 244.703,64.01 243.449,64.195C238.889,64.868 237.234,65.092 238.707,69.418C240.607,74.995 233.727,71.804 233.907,72.686C234.075,73.506 237.375,77.183 233.358,81.396C230.834,84.043 227.786,76.777 227.966,80.549C227.981,80.852 229.956,84.633 229.949,85.496C229.886,93.49 226.647,92.481 226.091,96.44C226.026,96.898 224.761,105.902 220.664,98.413C219.12,95.589 216.612,81.466 218.742,78.674C220.096,76.899 219.766,72.584 224.503,67.502C225.361,66.582 229.182,64.617 227.435,63.658C226.268,63.018 217.491,70.003 213.411,71.173C211.771,71.644 207.84,77.422 206.974,72.276C204.987,60.466 205,74.224 205.007,74.459C205.127,78.957 203.768,78.394 200.328,81.291C197.981,83.267 197.1,76.94 195.986,79.716C195.801,80.178 196.212,83.302 195.268,84.289C194.693,84.89 188.532,91.331 186.715,90.194C181.853,87.151 188.557,53.951 215.499,54.494C227.902,54.744 213.138,51.924 212.393,51.98C205.15,52.52 202.446,54.67 203.17,50.5C204.119,45.028 201.086,53.38 197.499,53.143C196.551,53.081 189.897,53.745 191.527,50.507C192.143,49.284 192.534,49.33 192.152,48.634C192.082,48.506 192.152,48.634 190.367,49.018C194.021,45.522 194.048,45.08 194.076,44.62C194.109,44.084 190.307,45.19 189.739,43.247C188.89,40.339 187.624,41.294 187.439,40.504C187.152,39.28 188.905,39.658 188.342,38.5C187.738,37.259 187.518,37.121 187.4,37.048C186.868,36.715 186.938,37.622 186.413,37.294C196.798,33.809 204.613,35.442 206.248,34.195C210.437,31.002 210.544,31.429 215.543,29.597C225.163,26.07 233.876,35.27 236.57,34.693C240.132,33.93 240.335,31.993 240.376,31.603C239.913,31.53 236.522,30.996 234.519,31.464C231.977,29.477 232.49,29.08 230.216,26.784C227.598,24.139 224.702,22.712 228.385,22.038C228.515,22.014 235.54,23.075 230.254,18.788C226.62,15.841 223.671,20.979 219.648,14.416C218.657,12.798 218.686,12.432 220.381,11.476C220.356,11.195 220.331,10.914 220.307,10.632C220.151,10.563 220.237,10.488 218.409,9.671C198.305,0.688 230.836,-0.553 229.762,6.564C228.874,12.447 235.124,12.782 235.56,12.608C237.464,11.848 237.721,9.181 240.745,12.256C241.213,12.733 244.864,16.447 246.019,18.727C253.836,34.152 249.246,37.293 249.797,40.448C252.587,56.42 249.209,34.471 257.321,20.391C257.518,20.05 263.471,11.92 264.376,11.301C272.847,5.504 277.267,1.444 289.561,2.076C294.06,2.307 291.096,9.337 285.565,9.777ZM230.5,45.981C233.82,45.993 233.978,46.393 234.086,46.664C235.142,49.332 235.93,48.336 238.561,49.38C243.689,51.416 239.895,54.054 240.662,56.442C241.587,59.322 236.84,61.757 235.355,57.566C232.636,49.893 221.715,45.166 222.349,42.443C223.52,37.418 224.504,44.916 230.5,45.981Z"/>
            <path d="M386.932,79.416C385.011,74.078 388.174,72.865 391.704,69.729C393.605,68.04 399.694,70.102 400.647,68.617C401.083,67.937 405.249,61.445 408.541,62.336C412.713,63.466 407.976,59.082 410.787,55.743C411.973,54.335 412.255,54.849 413.536,53.53C414.115,52.932 413.36,49.412 413.991,48.775C418.962,43.761 419.775,44.264 426.452,46.669C430.809,48.238 425.362,40.189 431.554,38.995C436.389,38.063 435.504,28.449 448.604,33.267C454.709,35.512 451.502,40.174 454.544,39.703C457.353,39.269 457.811,38.179 464.293,42.74C470.684,47.236 460.839,57.727 465.435,56.98C467.028,56.721 478.648,58.965 474.244,64.3C472.862,65.975 473.351,66.632 475.426,66.987C480.237,67.811 483.681,76.567 484.851,71.598C485.744,67.801 486.886,68.844 490.565,67.659C500.251,64.542 506.279,76.612 502.217,81.254C500.022,83.762 499.639,83.256 499.457,83.474C497.706,85.571 506.882,90.791 493.597,96.733C488.239,99.129 482.926,92.648 479.569,93.684C477.621,94.285 471.728,91.67 469.345,96.411C467.527,100.026 462.882,100.235 462.082,102.37C459.008,110.579 454.554,112.557 451.783,115.74C445.099,123.419 448.591,146.46 449.719,148.384C451.828,151.983 453.469,147.64 454.404,147.313C455.924,146.781 455.926,147.507 457.449,147.199C462.192,146.24 454.917,143.514 454.559,143.38C454.061,143.193 442.545,137.142 456.495,137.031C459.655,137.006 459.966,139.868 461.597,139.724C465.088,139.415 453.461,129.99 457.466,126.46C462.231,122.26 466.362,135.79 467.24,133.349C468.834,128.916 466.13,127.608 473.252,120.239C477.697,115.642 475.554,123.57 474.804,130.47C474.714,132.231 475.457,132.912 476.544,131.542C477.529,129.915 477.33,129.899 478.696,128.723C480.335,127.313 485.963,125.863 486.471,125.946C492.059,126.862 478.37,137.893 477.696,138.617C476.692,139.698 478.998,140.925 480.313,139.182C485.589,132.185 500.207,142.43 493.641,142.952C486.964,143.484 487.16,143.973 480.774,145.88C478.706,146.488 478.662,146.395 478.541,146.536C476.645,148.75 480.636,147.38 480.819,147.317C481.626,147.765 489.091,151.91 488.933,155.531C488.699,160.883 480.002,154.208 479.48,153.967C477.889,153.482 478.12,153.209 476.476,152.654C475.293,152.255 474.874,154.185 475.516,154.48C476.169,154.78 477.015,154.292 477.668,154.592C477.645,157.028 477.809,158.285 473.457,157.925C467.665,157.446 466.015,160.997 464.188,156.645C462.714,153.134 462.573,158.741 459.475,159.108C452.954,159.88 452.722,157.259 446.603,159.733C444.532,160.57 440.886,157.299 438.432,158.332C434.645,159.927 434.632,159.723 430.545,159.144C425.297,158.4 423.589,155.346 428.403,153.307C431.483,152.003 435.905,153.557 435.926,136.491C435.939,126.127 437.073,126.321 436.928,125.446C436.044,120.099 424.332,108.672 424.301,108.606C422.765,105.29 422.922,104.98 419.405,103.725C415.042,102.169 414.239,98.493 412.438,97.991C409.744,97.241 409.897,97.071 408.226,94.756C406.006,91.68 404.723,105.511 394.383,99.682C391.986,98.331 394.034,94.124 390.431,95.334C384.821,97.217 375.855,87.102 386.376,81.286C387.972,80.754 389.496,81.945 388.656,80.526C387.905,79.256 387.589,79.839 386.932,79.416ZM445.96,105.501C446.074,104.15 445.97,102.786 446.084,101.435C446.326,98.579 451.887,96.499 453.082,89.435C453.585,86.459 458.28,80.126 457.147,86.479C456.668,89.164 459.217,90.204 459.293,91.524C459.747,99.336 449.55,109.044 448.292,110.242C445.92,112.501 445.957,105.924 445.96,105.501ZM438.021,109.496C437.705,110.96 437.614,113.12 435.29,110.726C428.877,104.12 427.596,104.569 426.296,95.541C426.177,94.717 431.288,90.148 433.284,93.617C435.655,97.739 435.519,97.731 438.209,100.752C439.996,102.758 438.431,105.964 438.021,109.496ZM437.476,86.033L439.911,86.29C439.974,90.224 440.761,96.792 436.803,91.258C434.891,88.584 435.465,88.273 433.077,85.899C432.298,85.124 429.6,83.707 430.578,82.571C432.116,80.788 432.333,84.332 437.476,86.033ZM445.947,89.497C446.024,89.213 447.585,83.509 449.128,87.64C449.539,88.74 447.484,92.293 447.397,92.358C445.94,93.454 446.429,91.897 445.947,89.497ZM420.573,99.355C415.138,96.586 422.077,95.926 422.69,97.377C423.531,99.368 422.631,99.612 420.573,99.355ZM463.626,93.567C464.706,92 465.161,91.07 466.252,92.701C467.143,94.033 462.814,99.491 463.626,93.567ZM437.476,86.033C439.838,84.002 440.1,84.439 440.226,84.65C440.295,84.765 440.226,84.65 439.911,86.29L437.476,86.033Z" style="fill-opacity:1;"/>
            <path d="M246.725,228.664C246.745,228.924 246.766,229.184 246.786,229.444C248.603,231.747 247.467,233.055 247.264,233.289C244.551,236.411 231.172,236.86 241.618,238.163C243.68,238.42 242.41,240.088 240.254,243.292C237.734,247.04 236.39,245.601 233.779,246.928C231.867,247.899 233.914,248.001 235.641,249.386C237.549,250.917 232.351,252.477 228.85,261.364C229.308,261.603 229.767,261.842 230.225,262.081C241.01,247.824 255.496,246.204 258.558,245.627C260.183,246.01 264.581,246.051 266.453,245.609C278.145,247.255 292.859,260.075 285.315,262.001C281.875,262.879 282.047,261.753 278.567,260.336C273.582,258.305 273.866,257.994 273.436,257.84C270.624,256.834 275.517,261.75 272.626,261.971C263.544,262.667 264.745,258.999 261.432,257.823C257.621,256.471 263.791,262.073 262.66,262.647C259.511,264.243 250.559,264.034 249.501,264.009C245.861,263.924 245.645,261.149 243.752,262.806C240.948,265.263 240.653,264.511 237.315,266.343C237.164,266.381 232.082,268.459 237.474,268.284C252.463,262.191 268.255,274.536 271.35,280.591C281.263,299.986 274.839,301.437 273.418,300.671C268.461,297.996 268.395,297.879 266.355,292.611C266.287,292.485 265.5,291.047 265.5,291.047C265.5,291.047 264.643,292.519 264.569,292.648C259.909,292.781 258.391,291.497 258.219,286.526C258.293,283.288 256.797,284.505 256.696,284.668C256.43,285.094 256.604,285.706 256.338,286.132C255.684,286.331 255.407,287.423 252.736,286.013C252.408,285.84 249.458,284.283 249.766,282.453C249.801,282.249 250.849,276.021 247.828,280.738C245.4,284.529 244.921,279.849 235.515,276.193C225.519,272.307 236.205,278.535 236.385,278.639C252.194,287.852 247.199,309.919 243.417,308.622C243.305,308.584 240.146,303.24 239.991,302.453C239.314,299.02 238.365,299.675 236.773,298.266C235.776,297.385 239.437,291.835 236.478,292.23C230.032,293.089 232.404,288.149 232.073,285.681C232.061,285.592 228.119,282.656 227.37,283.343C227.179,283.518 232.879,321.992 232.941,323.446C233.02,325.301 233.56,338.031 235.088,346.558C237.9,362.243 237.516,362.645 239.41,363.644C250.884,369.692 240.214,371.235 239.668,371.012C234.454,368.882 234.309,369.637 229.582,371.699C226.128,373.206 225.34,369.106 221.443,370.368C212.185,373.366 212.023,368.248 212.342,367.423C213.513,364.398 222.101,366.337 221.008,346.499C220.341,334.394 221.848,334.484 221.662,333.455C219.359,320.671 222.213,305.639 222.015,304.543C221.467,301.512 221.708,301.579 221.924,298.558C222.991,283.615 221.646,283.078 220.444,283.312C216.365,284.108 220.49,292.823 214.495,291.539C210.57,290.698 216.571,294.136 214.564,297.552C212.874,300.428 212.825,300.304 212.034,303.457C207.53,321.404 201.119,301.453 205.293,289.417C208.706,279.575 211.477,281.602 214.073,278.192C218.287,272.657 205.031,282.043 200.433,284.136C199.983,283.202 199.647,283.427 199.616,282.438C199.575,281.173 198.146,280.846 197.666,281.585C196.994,282.615 197.584,282.587 198.858,284.723C197.379,286.203 194.377,289.927 193.365,287.605C190.531,281.101 191.122,291.46 190.302,292.306C186.843,295.875 184.746,294.071 184.377,293.753C183.559,292.046 183.657,291.916 183.494,291.909C183.494,291.909 182.889,294.393 182.836,294.609C182.789,295.05 182.478,297.982 180.749,299.747C180.385,300.118 177.552,303.01 175.59,303.688C173.987,304.242 167.432,302.845 177.63,282.579C180.228,277.415 180.971,278.088 185.257,274.217C194.208,266.131 204.263,268.331 207.5,268.5C207.745,268.568 215.068,270.577 210.433,267.285C207.637,266.203 199.628,264.925 199.317,265.158C196.574,267.212 191.2,265.543 190.528,265.334C190.499,263.283 191.369,261.431 189.622,262.66C188.324,263.574 189.051,263.805 189.476,265.369C183.616,267.263 181.012,265.96 180.359,265.634C180.124,265.516 180.098,265.503 181.371,262.507C181.431,262.371 183.669,257.236 180.563,260.839C180.11,261.426 169.468,275.235 172.114,264.623C173.182,260.335 168.566,266.817 166.465,267.03C164.621,267.217 154.216,269.392 159.302,262.379C162.742,257.637 178.527,244.227 191.445,248.626C195.651,250.058 200.56,247.716 213.121,259.935C219.26,265.907 213.256,256.682 211.315,254.661C209.58,252.855 209.268,252.73 210.257,250.369C210.962,248.687 199.09,247.051 204.141,243.094C208.593,239.607 196.163,242.598 198.249,237.4C198.68,236.324 181.651,228.171 195.463,228.981C198.867,229.18 203.881,231.024 204.588,231.284C219.615,236.81 220.408,255.047 220.515,257.498C220.521,257.656 222.036,262.864 222.488,257.498C222.536,256.923 220.392,243.53 226.312,235.385C236.908,220.806 257.525,215.766 249.963,226.832C248.808,228.522 248.536,227.946 246.725,228.664Z"/>
            <path d="M263.34,358.917C259.515,360.381 257.872,359.852 257.417,359.706C239.348,353.89 262.734,346.067 269.598,348.253C282.087,352.229 281.517,354.666 281.853,355.31C286.025,363.319 283.051,352.784 282.986,352.554C282.351,350.304 288.682,348.434 284.463,347.863C282.615,347.613 281.641,348.946 278.312,343.613C276.078,340.033 278.205,340.097 280.217,339.054C283.496,337.353 276.067,337.022 275.669,337.004C273.923,336.926 270.942,328.587 270.936,328.467C270.489,320.054 276.003,322.824 276.439,322.914C280.39,323.727 279.829,324.786 283.413,326.648C289.302,329.707 290.352,336.37 291.411,336.668C293.699,337.312 292.643,335.683 293.31,333.423C295.875,324.741 296.223,324.881 302.503,318.503C304.036,316.947 301.765,314.058 311.593,307.656C333.448,293.419 327.133,324.315 318.486,321.68C307.013,318.183 319.377,324.291 319.593,324.378C322.597,325.596 315.071,335.543 314.264,336.221C312.033,338.091 302.734,334.759 308.716,339.253C314.828,343.844 306.068,349.41 306.775,351.473C308.822,357.444 314.122,333.638 340.444,338.902C352.659,341.344 347.531,349.639 337.47,352.058C336.213,352.36 327.303,346.321 331.612,351.42C335.724,356.286 329.623,354.682 324.748,358.792C321.864,361.224 321.643,359.072 319.491,358.538C317.31,357.998 318.499,359.447 319.373,361.497C319.685,362.229 316.884,363.621 316.63,363.748C304.64,369.707 319.382,364.94 319.614,364.837C328.183,361.01 345.42,370.141 342.682,377.592C342.454,378.214 342.114,379.139 334.408,377.928C333.75,377.824 328.926,371.447 329.863,375.497C330.951,380.197 324.103,378.597 322.083,375.838C321.04,374.413 316.711,377.856 321.621,380.299C324.429,381.696 330.896,390.019 326.611,391.699C321.119,393.852 317.717,388.37 317.288,387.68C316.147,385.841 315.888,389.882 314.545,389.958C309.39,390.25 309.627,384.312 305.523,387.529C304.821,388.079 300.516,387.395 300.112,389.418C298.345,398.272 288.464,395.936 287.719,395.257C279.099,387.403 288.229,384.424 286.348,383.773C280.583,381.776 275.055,390.513 269.999,386.07C270.421,384.151 269.737,382.98 268.448,384.46C266.905,390.461 265.12,389.002 261.43,390.339C253.766,393.116 253.752,383.53 261.364,379.26C264.829,377.317 262.926,374.656 270.412,372.286C271.724,371.871 285.058,373.71 274.604,369.303C268.164,366.589 274.687,364.339 274.083,362.674C273.356,360.67 263.472,370.598 263.34,358.917ZM286.642,360.488C287.004,360.646 287.126,359.501 287.488,359.659C287.671,359.738 288.085,361.103 290.456,361.886C293.728,362.967 292.182,368.452 292.024,369.014C291.655,369.074 291.285,369.135 290.915,369.195C289.614,362.309 287.749,361.628 286.642,360.488ZM298.743,363.489C299.25,360.48 298.722,360.027 301.497,358.622C302.492,358.119 302.984,358.476 302.37,359.491C301.142,361.523 301.482,361.591 300.46,365.49L298.743,363.489ZM307.424,367.693C307.568,368.378 307.711,369.064 307.855,369.749C307.637,369.987 298.601,379.839 303.923,370.682C305.188,368.506 304.872,367.867 307.424,367.693ZM298.743,363.489L300.46,365.49C296.111,374.126 298.682,363.691 298.743,363.489ZM284.418,374.678C283.355,373.684 282.362,373.461 283.606,372.695C284.063,372.413 289.964,373.662 284.418,374.678ZM309.481,379.261C305.9,376.855 311.075,376.775 311.074,377.594C311.074,378.951 310.666,378.633 309.481,379.261ZM307.424,367.693C307.611,367.756 309.759,368.477 309.759,368.477C309.759,368.477 308.007,369.647 307.855,369.749C307.711,369.064 307.568,368.378 307.424,367.693Z" style="fill-opacity:1;"/>
            <path d="M528.81,222.555C526.106,227.341 530.387,223.586 530.479,223.465C539.094,214.159 539.503,214.464 551.416,210.291C552.862,209.785 579.355,208.097 564.266,222.229C558.209,227.901 552.442,219.832 552.259,222.4C552.117,224.388 557.552,225.814 553.419,228.35C552.739,228.768 545.603,233.147 544.441,232.708C544.154,232.6 536.349,229.652 540.66,233.352C544.731,236.845 532.881,243.611 529.424,242.695C525.121,241.554 522.744,252.851 525.468,250.445C529.738,246.677 529.127,245.777 534.65,243.884C538.127,242.692 543.191,239.117 553.622,246.297C557.463,248.941 562.869,258.486 551.418,254.702C548.161,253.626 548.25,253.615 545.334,251.799C543.333,250.553 543.783,254.826 539.405,253.727C535.559,252.76 535.527,253.995 531.543,253.333C529.982,253.073 525.003,257.035 527.648,258.314C532.474,260.647 535.456,269.646 525.549,266.384C520.438,264.701 519.423,268.703 515.562,267.36C509.805,265.358 509.741,266.763 501.495,266.974C495.177,267.136 499.737,260.573 503.592,258.659C507.006,256.963 504.597,252.842 498.429,255.348C496.82,256.001 496.628,256.704 494.272,254.859C490.639,254.783 476.901,266.162 481.313,254.404C481.837,253.006 489.457,245.801 493.532,245.996C494.247,246.03 497.035,246.163 502.3,247.778C503.041,248.339 503.782,248.899 504.523,249.459C506.684,251.48 506.874,251.305 507.053,251.141C507.936,250.328 507.208,250.222 506.173,248.563C504.726,246.415 505.077,245.83 502.543,245.619C501.705,245.487 496.698,244.7 492.372,242.624C492.422,242.464 493.002,240.624 493.002,240.624C492.992,240.413 492.803,239.76 490.434,241.254C486.934,242.613 487.063,240.85 484.547,240.356C482.961,240.045 483.883,242.035 482.353,242.054C481.868,242.059 482.025,241.566 476.395,240.928C473.212,240.567 477.067,231.018 486.504,231.039C497.994,231.064 498.442,233.481 498.531,232.516C498.976,227.658 488.696,227.406 495.949,220.718C500.481,216.538 493.507,220.014 493.313,220.111C488.353,222.583 483.05,213.464 486.555,212.567C489.442,211.829 488.961,209.38 487.551,209.818C487.436,209.854 482.627,213.435 480.271,206.595C472.511,184.074 499.885,197.47 504.341,209.56C504.503,209.998 504.965,209.629 507.687,214.349C510.616,219.43 507.556,211.509 509.623,206.555C511.229,202.706 510.795,201.756 512.436,202.2C512.601,202.245 518.761,203.912 514.114,200.877C513.298,200.344 510.157,198.293 514.944,188.718C516.55,185.506 520.951,189.016 519.902,186.493C518.779,183.792 517.538,183.717 519.214,181.263C520.057,180.028 528.473,167.706 533.579,169.3C539.884,171.268 540.719,188.783 536.596,188.933C531.656,189.113 529.111,187.831 530.642,190.398C531.695,192.163 538.59,189.312 536.103,198.475C533.827,206.858 532.321,206.903 531.553,206.926C531.301,206.934 524.678,207.135 529.572,209.388C531.08,210.083 532.732,210.297 529.87,220.536C529.821,220.712 529.791,220.686 528.81,222.555ZM519.924,233.504C520.133,232.478 519.517,231.064 523.643,228.931C527.007,227.193 524.918,230.476 524.83,230.615C522.038,235.004 523.13,235.332 522.339,240.455C519.559,258.439 519.916,234.092 519.924,233.504ZM510.325,243.467C509.723,244.529 509.875,244.584 508.882,245.285C507.373,241.426 507.035,241.727 504.698,238.385C504.469,238.057 508.097,233.212 509.086,238.558C509.093,238.594 510.225,243.074 510.325,243.467ZM513.675,232.515C515.14,227.78 516.074,232.163 516.023,232.345C513.855,240.089 518.032,244.249 514.572,242.32C514.513,242.288 512.226,238.089 513.376,233.444C513.944,232.872 514.073,234.31 514.656,233.723C515.414,232.959 514.303,233.289 513.675,232.515ZM510.325,243.467C510.404,243.633 511.312,245.535 511.312,245.535C511.507,247.485 510.328,246.537 508.882,245.285C509.875,244.584 509.723,244.529 510.325,243.467Z"/>
            <path d="M326.662,133.591C326.528,133.736 322.017,138.612 326.415,136.046C326.832,135.802 327.131,135.387 327.548,135.143C329.491,134.221 343.25,127.693 354.309,137.717C361.318,144.069 349.72,141.045 349.445,141.08C341.561,142.094 341.398,141.37 340.972,141.901C338.82,144.588 337.592,141.496 331.533,143.536C330.065,143.086 330.111,143.126 328.67,143.605C330.325,145.818 330.68,145.171 333.54,145.223C337.481,145.295 346.456,153.115 347.073,159.481C347.723,166.193 338.778,155.715 331.434,152.912C328.432,151.766 337.23,166.349 330.703,161.247C323.065,155.277 322.288,156.848 321.672,156.302C321.332,156 315.225,150.583 315.992,156.458C316.842,162.97 316.997,162.893 316.666,169.467C316.367,175.389 319.32,163.815 324.663,166.363C325.14,166.59 324.842,166.791 321.892,172.36C321.812,172.827 321.039,172.965 320.959,173.432C320.656,175.203 321.775,173.999 323.273,173.041C328.223,169.145 327.547,173.995 327.214,174.378C326.095,175.666 328.071,176.411 328.42,176.634C331.658,178.705 331.335,182.793 326.542,181.348C323.966,180.571 324.232,183.051 321.556,182.364C316.514,181.07 313.146,186.017 309.711,183.251C306.912,180.999 302.655,184.621 299.694,182.265C297.494,180.515 296.532,183.345 294.709,181.316C292.423,178.771 297.39,176.195 297.829,175.966C298.75,176.078 298.674,176 299.472,175.492C296.591,172.834 297.491,171.95 297.728,171.717C299.235,170.237 299.435,171.478 302.525,173.459C306.464,175.986 302.932,171.956 301.309,167.55C300.769,166.084 304.224,162.538 306.184,167.755C308.32,173.443 307.988,164.806 307.977,164.509C307.693,157.118 308.913,155.9 308.915,155.487C308.936,151.207 302.623,156.673 302.594,156.684C297.019,158.869 296.6,165.606 293.741,160.356C294.464,157.23 294.101,157.242 295.488,154.493C297.253,150.994 292.166,154.58 291.525,154.747C285.961,156.192 282.581,162.56 279.544,162.052C277.042,161.633 280.6,149.323 293.272,146.01C293.522,145.978 300.192,145.119 295.724,144.035C294.034,143.625 294.115,144.334 293.695,144.412C293.364,144.327 289.713,143.386 289.569,143.339C285.36,141.979 281.106,145.21 283.419,141.493C284.211,140.22 283.036,139.239 281.537,140.549C280.059,141.841 280.032,142.425 270.367,141.952C266.158,141.746 280.073,125.668 299.503,136.322C299.925,136.355 300.071,137.085 300.493,137.118C302.33,137.262 301.176,136.246 300.165,134.725C287.73,124.43 288.157,120.152 284.591,118.344C275.334,113.65 287.947,111.733 297.273,118.757C302.538,122.723 304.905,129.03 305.529,129.043C308.715,129.111 298.763,109.851 297.952,108.28C292.992,98.681 305.899,104.013 310.309,118.58C313.531,129.22 313.226,114.89 316.703,110.676C336.03,87.254 318.797,122.035 318.636,126.485C318.336,134.805 322.307,111.95 346.315,113.99C349.719,114.279 344.825,116.06 326.662,133.591Z"/>
            <path d="M25.295,293.558C20.25,290.78 18.11,294.335 16.449,292.549C15.607,291.644 17.624,286.789 14.291,290.106C11.302,293.081 8.964,290.645 8.486,290.684C-8.791,292.093 14.191,275.794 24.54,281.397C39.69,289.597 20.308,273.693 17.559,273.119C11.09,271.769 17.848,267.668 21.498,268.019C30.866,268.922 33.91,276.996 33.933,277.008C39.678,280.131 25.42,258.811 29.405,257.318C34.686,255.339 34.054,258.146 37.785,262.255C43.79,268.87 41.725,278.931 44.008,272.27C49.714,255.623 53.409,257.486 54.013,258.692C55.184,261.033 54.017,261.083 48.847,272.557C45.742,279.448 58.142,261.779 66.616,264.289C71.112,265.621 57.244,276.928 54.633,281.506C52.783,284.75 59.789,280.087 60.587,279.662C64.022,277.833 76.021,278.594 77.983,283.22C80.887,290.064 70.392,286.094 69.45,286.185C67.061,286.419 69,290.266 59.652,291.975C58.304,292.221 55.667,294.368 58.531,294.343C66.446,294.274 66.098,295.806 71.282,301.695C74.367,305.2 72.847,313.838 65.718,308.232C61.095,304.597 59.997,306.599 55.439,302.852C52.552,304.208 56.041,304.8 57.08,309.527C57.265,310.369 56.729,315.881 46.339,308.8C45.492,306.767 45.568,306.73 45.424,306.605C45.234,306.439 42.977,305.934 44.743,309.687C35.219,326.456 31.85,309.912 31.673,309.424C30.435,306.017 32.383,306.028 33.261,303.534C33.404,303.129 31.63,301.109 28.941,306.73C26.459,311.92 20.371,310.269 21.508,308.501C21.63,308.311 22.502,306.954 22.009,305.714C19.815,300.192 21.042,309.517 15.582,311.697C7.408,314.96 5.821,308.287 12.347,302.304C14.259,300.551 11.962,297.548 22.515,294.519C23.181,294.672 25.598,296.89 25.295,293.558Z"/>
            <path d="M470.587,322.566C467.714,324.345 467.683,324.275 467.484,324.488C464.497,327.678 471.19,324.428 471.477,324.288C478.874,321.386 479.121,320.647 486.586,323.292C492.505,325.389 494.417,331.195 488.414,329.707C482.602,328.265 482.549,328.545 475.443,330.42C472.997,331.41 473.069,331.372 470.803,332.662C471.556,334.191 471.832,334.022 473.474,333.405C474.487,333.021 475.501,332.637 476.514,332.252C481.039,332.336 481.166,332.413 484.231,335.73C484.445,335.962 485.696,337.315 484.636,339.656C483.09,343.069 482.361,335.697 476.482,337.479C475.987,337.801 475.221,337.399 474.725,337.721C474.511,337.86 473.65,339.35 477.522,339.254C485.642,340.843 477.963,346.11 470.421,343.699C467.119,342.643 460.948,341.855 460.431,341.606C456.896,339.902 442.907,342.117 440.67,340.303C434.551,335.34 433.699,336.122 426.422,339.296C423.356,340.633 423.869,335.615 426.38,334.308C427.696,333.622 429.086,333.072 430.36,332.31C433.191,330.617 427.815,329.345 427.703,329.259C427.177,328.854 425.495,327.558 419.491,327.987C419.085,328.016 411.309,328.572 416.708,323.726C423.619,317.525 434.203,323.861 435.494,324.634C437.513,327.488 438.11,325.747 438.085,325.529C438.035,325.09 437.295,324.943 437.246,324.504C434.664,321.742 434.676,321.764 434.457,321.521C433.698,320.677 434.017,320.603 433.238,319.725C430.572,316.716 430.77,316.728 428.217,313.741C421.93,306.389 415.604,308.867 418.746,305.736C424.051,300.449 435.211,307.868 436.404,308.66C442.812,312.921 441.343,314.281 443.939,317.047C446.994,320.304 444.684,315.698 443.331,310.567C440.787,300.923 436.899,293.336 437.069,291.444C437.585,285.687 444.323,295.688 444.728,296.289C447.673,300.66 446.873,291.619 447.265,290.397C452.21,274.941 451.88,296.229 452.358,297.567C453.722,301.387 452.88,301.529 452.655,306.47C452.443,311.118 455.266,304.682 455.375,304.433C461.542,290.37 471.912,287.557 471.114,290.512C466.24,308.552 452.145,327.6 464.764,313.777C477.815,299.482 493.133,305.679 487.246,309.007C477.826,314.333 478.878,315.526 470.587,322.566Z"/>
            <path d="M156.601,356.456C155.179,360.584 158.054,357.488 158.149,357.379C158.424,355.551 160.051,344.731 172.44,339.213C174.085,338.48 175.699,340.844 165.172,360.517C164.929,360.701 163.774,361.578 162.81,363.5L162.872,364.5C162.924,365.008 163.837,365.138 163.89,365.646C163.947,366.202 162.358,369.164 162.2,369.458C161.333,367.806 160.56,367.855 159.742,369.63C157.512,374.47 144.821,372.11 143.391,370.665C142.952,369.984 143.036,370.024 142.56,369.379C136.818,361.588 141.743,371.462 141.848,371.617C139.841,373.764 139.422,372.852 136.599,373.728C135.813,373.972 129.571,374.093 129.533,374.085C129.419,374.062 122.742,370.108 131.362,370.243C131.812,370.279 131.994,371.022 132.444,371.058C132.567,371.068 132.444,371.058 133.139,369.675C132.476,369.386 127.171,367.07 124.502,366.983C122.871,366.931 118.942,367.444 117.723,366.279C117.119,365.702 115.765,361.764 127.337,362.223C127.882,362.588 164.906,385.649 135.087,364.906C134.57,364.547 128.905,360.606 128.5,360.606C128.101,360.605 128.124,361.518 127.724,361.518C124.261,359.706 126.366,358.884 126.586,358.799C131.016,357.068 134.626,359.612 138.498,362.252C139.548,362.373 140.125,363.51 140.016,362.426C139.946,361.741 139.386,362.129 139.321,361.487C133.12,351.188 133.032,351.339 130.995,347.273C124.726,334.759 141.524,340.629 146.503,358.498C147.655,359.691 148.215,359.153 148.3,357.493C143.85,345.07 149.264,326.362 150.634,325.947C150.78,325.903 158.205,333.49 156.601,356.456Z"/>
            <path d="M186.413,37.294C186.938,37.622 186.868,36.715 187.4,37.048C187.518,37.121 187.738,37.259 188.342,38.5C188.905,39.658 187.152,39.28 187.439,40.504C187.624,41.294 188.89,40.339 189.739,43.247C190.307,45.19 194.109,44.084 194.076,44.62C194.048,45.08 194.021,45.522 190.367,49.018C188.777,50.057 188.767,49.931 188.446,50.444C185.398,55.316 184.126,52.933 178.463,53.175C176.835,53.245 177.13,54.017 175.475,54.152C165.866,54.934 172.001,46.417 175.587,44.649C181.535,41.716 180.457,40.214 186.413,37.294Z"/>
            <path d="M412.49,358.98C408.789,358.519 407.962,357.811 409.354,354.427C411.075,350.242 416.248,355 415.44,351.508C414.204,346.167 424.213,342.17 424.155,351.503C424.139,354.12 426.621,351.574 428.606,352.293C433.268,353.982 430.553,363.472 412.49,358.98Z"/>
            <path d="M64.497,321.031C66.244,320.724 67.544,322.005 68.079,318.438C68.885,313.073 75.054,313.756 75.986,316.186C77.303,319.624 76.861,320.827 80.499,320.588C82.32,320.468 84.074,323.056 83.715,324.584C83.022,327.542 63.171,330.099 61.342,325.581C59.967,322.182 60.828,321.516 64.497,321.031Z"/>
            <path d="M165.172,360.517C165.92,363.188 167.265,360.119 173.406,358.274C175.671,357.593 180.909,360.4 181.241,360.744C184.662,364.293 174.715,364.538 172.675,366.653C170.826,368.571 175.166,368.97 175.192,368.985C181.393,372.586 163.427,372.002 162.375,371.968C160.559,371.909 161.578,371.073 162.2,369.458C162.358,369.164 163.947,366.202 163.89,365.646C163.837,365.138 162.924,365.008 162.872,364.5L162.81,363.5C163.774,361.578 164.929,360.701 165.172,360.517Z"/>
            <path d="M187.5,386.968C176.029,385.994 178.017,382.17 178.696,381.71C182.607,379.064 184.862,381.26 184.971,378.563C185.024,377.23 189.497,369.699 191.903,379.427C192.04,379.981 198.566,379.954 197.74,383.595C197.113,386.361 188.361,386.914 187.5,386.968Z"/>
            <path d="M511.499,282.971C507.752,282.523 499.511,280.817 503.734,277.766C508.859,274.063 509.941,271.633 512.558,274.442C516.703,278.891 517.511,277.917 517.691,278.403C519.403,283.03 516.342,281.776 511.499,282.971Z"/>
            <path d="M257.5,190.169C253.937,189.189 245.067,188 253.261,183.198C257.679,180.609 257.917,182.279 262.602,184.311C264.972,185.34 263.492,188.762 262.334,189.025C258.675,189.857 258.71,189.811 257.5,190.169Z"/>
            <path d="M545.756,261.248C553.516,269.155 535.503,267.367 537.306,263.427C539.771,258.039 541.547,257.045 545.756,261.248Z"/>
            <path d="M457.501,167.963C457.087,167.928 448.697,167.2 454.599,163.661C455.171,163.318 460.408,160.179 462.747,165.422C463.636,167.413 457.965,167.922 457.501,167.963Z"/>
            <path d="M127.724,361.518C128.124,361.518 128.101,360.605 128.5,360.606C128.905,360.606 134.57,364.547 135.087,364.906C164.906,385.649 127.882,362.588 127.337,362.223L127.724,361.518Z"/>
            <path d="M513.675,232.515C515.14,227.78 516.074,232.163 516.023,232.345C513.855,240.089 518.032,244.249 514.572,242.32C514.513,242.288 512.226,238.089 513.376,233.444C513.944,232.872 514.073,234.31 514.656,233.723C515.414,232.959 514.303,233.289 513.675,232.515Z" style="fill-opacity:0.09;"/>
            <path d="M286.642,360.488C287.004,360.646 287.126,359.501 287.488,359.659C287.671,359.738 288.085,361.103 290.456,361.886C293.728,362.967 292.182,368.452 292.024,369.014C291.655,369.074 291.285,369.135 290.915,369.195C289.614,362.309 287.749,361.628 286.642,360.488Z" style="fill-opacity:0.08;"/>
            <path d="M475.443,330.42C475.8,331.031 476.157,331.641 476.514,332.252C475.501,332.637 474.487,333.021 473.474,333.405C472.584,333.157 471.693,332.91 470.803,332.662C473.069,331.372 472.997,331.41 475.443,330.42Z" style="fill-opacity:0.33;"/>
            <path d="M470.587,322.566C471.352,324.111 471.326,324.11 471.477,324.288C471.19,324.428 464.497,327.678 467.484,324.488C467.683,324.275 467.714,324.345 470.587,322.566Z" style="fill-opacity:0.3;"/>
            <path d="M370.506,232.493C368.486,230.417 369.448,229.95 369.647,229.853C370.94,229.225 376.115,234.478 370.506,232.493Z" style="fill-opacity:0.07;"/>
            <path d="M258.558,245.627C261.82,244.298 262.81,244.189 266.453,245.609C264.581,246.051 260.183,246.01 258.558,245.627Z" style="fill-opacity:0.75;"/>
            <path d="M298.743,363.489L300.46,365.49C296.111,374.126 298.682,363.691 298.743,363.489Z" style="fill-opacity:0.2;"/>
            <path d="M143.391,370.665C141.991,371.634 141.947,371.511 141.848,371.617C141.743,371.462 136.818,361.588 142.56,369.379C143.036,370.024 142.952,369.984 143.391,370.665Z" style="fill-opacity:0.5;"/>
            <path d="M198.858,284.723C197.584,282.587 196.994,282.615 197.666,281.585C198.146,280.846 199.575,281.173 199.616,282.438C199.647,283.427 199.983,283.202 200.433,284.136C199.908,284.331 199.383,284.527 198.858,284.723Z" style="fill-opacity:0.24;"/>
            <path d="M229.854,143.539C230.067,147.707 232.177,148.528 229.977,152.33C229.677,149.368 229.827,149.477 229.854,143.539Z" style="fill-opacity:0.64;"/>
            <path d="M293.695,144.412C294.115,144.334 294.034,143.625 295.724,144.035C300.192,145.119 293.522,145.978 293.272,146.01C293.413,145.477 293.554,144.945 293.695,144.412Z" style="fill-opacity:0.92;"/>
            <path d="M46.339,308.8C45.807,309.096 45.275,309.391 44.743,309.687C42.977,305.934 45.234,306.439 45.424,306.605C45.568,306.73 45.492,306.767 46.339,308.8Z" style="fill-opacity:0.76;"/>
            <path d="M210.433,267.285C215.068,270.577 207.745,268.568 207.5,268.5C209.234,268.318 209.23,268.46 210.433,267.285Z" style="fill-opacity:0.93;"/>
            <path d="M284.418,374.678C283.355,373.684 282.362,373.461 283.606,372.695C284.063,372.413 289.964,373.662 284.418,374.678Z" style="fill-opacity:0.08;"/>
            <path d="M85.325,241.613C84.607,239.641 84.507,239.659 84.55,239.483C84.866,238.185 89.423,241.144 85.325,241.613Z"/>
            <path d="M189.476,265.369C189.051,263.805 188.324,263.574 189.622,262.66C191.369,261.431 190.499,263.283 190.528,265.334L189.476,265.369Z" style="fill-opacity:1;"/>
            <path d="M510.325,243.467C510.404,243.633 511.312,245.535 511.312,245.535C511.507,247.485 510.328,246.537 508.882,245.285C509.875,244.584 509.723,244.529 510.325,243.467Z" style="fill-opacity:0.9;"/>
            <path d="M479.48,153.967C478.876,154.175 478.272,154.383 477.668,154.592C477.015,154.292 476.169,154.78 475.516,154.48C474.874,154.185 475.293,152.255 476.476,152.654C478.12,153.209 477.889,153.482 479.48,153.967Z" style="fill-opacity:0.86;"/>
            <path d="M367.979,321.728C370.63,326.014 366.653,323.482 366.543,323.41C367.021,322.85 367.5,322.289 367.979,321.728Z" style="fill-opacity:0.13;"/>
            <path d="M309.481,379.261C305.9,376.855 311.075,376.775 311.074,377.594C311.074,378.951 310.666,378.633 309.481,379.261Z" style="fill-opacity:0.55;"/>
            <path d="M480.774,145.88L480.819,147.317C480.636,147.38 476.645,148.75 478.541,146.536C478.662,146.395 478.706,146.488 480.774,145.88Z" style="fill-opacity:0.81;"/>
            <path d="M392.642,231.972C392.148,232.45 391.654,232.928 391.161,233.407C390.202,231.904 389,231.525 390.629,230.693C390.629,230.693 392.481,231.869 392.642,231.972Z" style="fill-opacity:0.76;"/>
            <path d="M68.747,322.44C70.304,321.793 70.641,321.015 71.419,322.522C72.982,325.551 68.919,322.567 68.747,322.44Z"/>
            <path d="M244.507,42.485C244.558,42.653 245.526,45.843 243.539,44.454C243.401,44.357 241.917,43.319 243.448,42.34C243.748,42.148 244.207,42.677 244.507,42.485Z"/>
            <path d="M76.693,153.812C78.241,153.959 79.131,153.981 78.262,155.339C75.792,159.197 76.664,153.984 76.693,153.812Z"/>
            <path d="M456.555,150.656C458.005,151.453 458.033,151.378 458.131,151.481C457.917,151.653 454.698,154.698 456.555,150.656Z" style="fill-opacity:0.11;"/>
            <path d="M528.81,222.555C529.308,223.507 529.375,223.365 530.479,223.465C530.387,223.586 526.106,227.341 528.81,222.555Z" style="fill-opacity:0.81;"/>
            <path d="M476.482,337.479C476.829,338.071 477.175,338.662 477.522,339.254C473.65,339.35 474.511,337.86 474.725,337.721C475.221,337.399 475.987,337.801 476.482,337.479Z" style="fill-opacity:0.22;"/>
            <path d="M156.601,356.456C157.653,357.2 157.567,357.144 157.653,357.2C157.952,357.398 157.91,357.222 158.149,357.379C158.054,357.488 155.179,360.584 156.601,356.456Z" style="fill-opacity:0.97;"/>
            <path d="M285.565,9.777C285.426,10.399 285.287,11.022 285.148,11.645C279.656,10.632 285.412,9.779 285.565,9.777Z" style="fill-opacity:0.28;"/>
            <path d="M79.282,226.619C82.538,228.335 80.737,229.199 80.516,229.157C80.354,229.125 80.395,229.064 78.88,227.901C79.014,227.474 79.148,227.046 79.282,226.619Z" style="fill-opacity:0.7;"/>
            <path d="M256.338,286.132C256.604,285.706 256.43,285.094 256.696,284.668C256.797,284.505 258.293,283.288 258.219,286.526C257.592,286.395 256.965,286.263 256.338,286.132Z" style="fill-opacity:0.2;"/>
            <path d="M386.932,79.416C387.589,79.839 387.905,79.256 388.656,80.526C389.496,81.945 387.972,80.754 386.376,81.286C386.562,80.663 386.747,80.039 386.932,79.416Z" style="fill-opacity:0.26;"/>
            <path d="M258.629,43.501C259.154,43.686 259.679,43.871 260.204,44.056C260.103,44.144 254.148,47.874 258.629,43.501Z" style="fill-opacity:0.94;"/>
            <path d="M326.662,133.591C326.762,134.605 326.691,134.588 327.548,135.143C327.131,135.387 326.832,135.802 326.415,136.046C322.017,138.612 326.528,133.736 326.662,133.591Z" style="fill-opacity:0.76;"/>
            <path d="M250.703,68.619C251.435,66.434 251.292,66.264 251.491,66.268C251.491,66.268 252.592,68.027 252.688,68.18C252.026,68.327 251.365,68.473 250.703,68.619Z" style="fill-opacity:0.19;"/>
            <path d="M234.519,31.464C236.522,30.996 239.913,31.53 240.376,31.603C237.411,31.565 237.496,31.55 234.519,31.464Z" style="fill-opacity:0.76;"/>
            <path d="M506.173,248.563C507.208,250.222 507.936,250.328 507.053,251.141C506.874,251.305 506.684,251.48 504.523,249.459C505.572,249.345 505.666,249.507 506.173,248.563Z" style="fill-opacity:0.79;"/>
            <path d="M307.424,367.693C307.611,367.756 309.759,368.477 309.759,368.477C309.759,368.477 308.007,369.647 307.855,369.749C307.711,369.064 307.568,368.378 307.424,367.693Z" style="fill-opacity:0.23;"/>
            <path d="M237.315,266.343C237.176,267.092 236.539,267.127 237.474,268.284C232.082,268.459 237.164,266.381 237.315,266.343Z" style="fill-opacity:0.96;"/>
            <path d="M260.729,59.845C259.249,60.216 258.443,61.097 258.511,59.504C258.522,59.26 258.566,58.209 261.553,59.725L260.729,59.845Z" style="fill-opacity:0.92;"/>
            <path d="M437.476,86.033C439.838,84.002 440.1,84.439 440.226,84.65C440.295,84.765 440.226,84.65 439.911,86.29L437.476,86.033Z" style="fill-opacity:0.33;"/>
            <path d="M490.434,241.254C492.803,239.76 492.992,240.413 493.002,240.624C493.002,240.624 492.422,242.464 492.372,242.624C491.726,242.168 491.08,241.711 490.434,241.254Z" style="fill-opacity:0.45;"/>
            <path d="M110.011,189.814C110.518,190.386 111.024,190.958 111.531,191.53C110.269,193.012 109.6,191.774 110.011,189.814Z" style="fill-opacity:0.33;"/>
            <path d="M268.448,384.46C269.737,382.98 270.421,384.151 269.999,386.07C269.482,385.533 268.965,384.997 268.448,384.46Z" style="fill-opacity:0.33;"/>
            <path d="M290.915,369.195C291.285,369.135 291.655,369.074 292.024,369.014C292.016,369.873 292.508,370.689 292.5,371.548C292.488,372.776 292.109,371.611 291.505,370.492C291.152,369.836 291.229,369.886 290.915,369.195Z"/>
            <path d="M184.377,293.753C182.836,294.599 182.884,294.566 182.836,294.609C182.889,294.393 183.494,291.909 183.494,291.909C183.657,291.916 183.559,292.046 184.377,293.753Z" style="fill-opacity:0.44;"/>
            <path d="M474.804,130.47C475.384,130.827 475.964,131.185 476.544,131.542C475.457,132.912 474.714,132.231 474.804,130.47Z" style="fill-opacity:0.24;"/>
            <path d="M435.494,324.634C436.078,324.591 436.662,324.547 437.246,324.504C437.295,324.943 438.035,325.09 438.085,325.529C438.11,325.747 437.513,327.488 435.494,324.634Z" style="fill-opacity:0.87;"/>
            <path d="M180.563,260.839C183.669,257.236 181.431,262.371 181.371,262.507C181.102,261.951 180.832,261.395 180.563,260.839Z" style="fill-opacity:0.9;"/>
            <path d="M25.295,293.558C25.598,296.89 23.181,294.672 22.515,294.519C23.429,294.168 23.438,294.754 24.432,294.372C24.521,294.338 24.432,294.372 25.295,293.558Z" style="fill-opacity:0.88;"/>
            <path d="M148.3,357.493C148.215,359.153 147.655,359.691 146.503,358.498C147.102,358.163 147.701,357.828 148.3,357.493Z" style="fill-opacity:0.95;"/>
            <path d="M264.569,292.648C264.643,292.519 265.5,291.047 265.5,291.047C265.5,291.047 266.287,292.485 266.355,292.611C265.76,292.623 265.164,292.635 264.569,292.648Z" style="fill-opacity:0.09;"/>
            <path d="M321.892,172.36C322.353,172.587 322.813,172.814 323.273,173.041C321.775,173.999 320.656,175.203 320.959,173.432C321.039,172.965 321.812,172.827 321.892,172.36Z" style="fill-opacity:0.86;"/>
            <path d="M300.165,134.725C301.176,136.246 302.33,137.262 300.493,137.118C300.071,137.085 299.925,136.355 299.503,136.322C300.186,135.629 300.102,135.645 300.165,134.725Z" style="fill-opacity:0.93;"/>
            <path d="M412.986,260.494L412.98,263.508C412.25,262.036 412.244,261.98 412.986,260.494Z" style="fill-opacity:0.7;"/>
            <path d="M291.051,157.342C292.233,156.72 292.912,156.156 292.827,157.533C292.752,158.743 292.24,157.47 291.051,157.342Z" style="fill-opacity:0.91;"/>
            <path d="M305.477,41.704C305.302,41.948 304.685,41.617 304.774,43.436C303.493,40.928 304.365,40.854 304.57,40.869C304.98,40.899 305.067,41.674 305.477,41.704Z" style="fill-opacity:0.89;"/>
            <path d="M470.803,332.662C471.693,332.91 472.584,333.157 473.474,333.405C471.832,334.022 471.556,334.191 470.803,332.662Z" style="fill-opacity:0.88;"/>
            <path d="M269.162,360.119C267.988,361.025 268.313,362.756 267.384,361.492C267.002,360.972 268.995,360.185 269.162,360.119Z"/>
            <path d="M328.67,143.605C330.111,143.126 330.065,143.086 331.533,143.536C330.578,143.559 329.624,143.582 328.67,143.605Z" style="fill-opacity:0.87;"/>
            <path d="M444.952,86.512C445.574,84.868 445.874,83.138 446.344,84.864C446.344,84.864 445.063,86.38 444.952,86.512Z" style="fill-opacity:0.95;"/>
            <path d="M139.321,361.487C139.386,362.129 139.946,361.741 140.016,362.426C140.125,363.51 139.548,362.373 138.498,362.252L139.321,361.487Z" style="fill-opacity:1;"/>
            <path d="M133.139,369.675C132.444,371.058 132.567,371.068 132.444,371.058C131.994,371.022 131.812,370.279 131.362,370.243C131.954,370.054 132.547,369.864 133.139,369.675Z" style="fill-opacity:0.96;"/>
            <path d="M457.523,149.79L458.125,150.772L458.131,151.481C458.033,151.378 458.005,151.453 456.555,150.656L457.523,149.79Z" style="fill-opacity:0.73;"/>
            <path d="M228.85,261.364L230.225,262.081C229.767,261.842 229.308,261.603 228.85,261.364Z" style="fill-opacity:0.75;"/>
            <path d="M99.497,171.211C100.155,172.309 100.237,172.258 100.167,173.579C99.91,172.336 99.718,172.494 99.497,171.211Z" style="fill-opacity:0.53;"/>
            <path d="M384.092,231.534C383.51,230.196 382.074,229.22 383.37,229.874C383.445,229.912 383.854,230.118 384.084,230.647C384.201,230.918 383.974,231.263 384.092,231.534Z" style="fill-opacity:0.93;"/>
            <path d="M513.675,232.515C514.303,233.289 515.414,232.959 514.656,233.723C514.073,234.31 513.944,232.872 513.376,233.444L513.675,232.515Z" style="fill-opacity:0.5;"/>
            <path d="M297.829,175.966C298.377,175.808 298.924,175.65 299.472,175.492C298.674,176 298.75,176.078 297.829,175.966Z" style="fill-opacity:0.58;"/>
        </g>
    </g>
</svg>
