<?xml version="1.0" encoding="UTF-8" standalone="no"?>
<!DOCTYPE svg PUBLIC "-//W3C//DTD SVG 1.1//EN" "http://www.w3.org/Graphics/SVG/1.1/DTD/svg11.dtd">
<svg width="100%" height="100%" viewBox="0 0 384 333" version="1.1" xmlns="http://www.w3.org/2000/svg" xmlns:xlink="http://www.w3.org/1999/xlink" xml:space="preserve" xmlns:serif="http://www.serif.com/" style="fill-rule:evenodd;clip-rule:evenodd;stroke-linejoin:round;stroke-miterlimit:2;">
    <g transform="matrix(1,0,0,1,72,61.5)">
        <g id="kelp" transform="matrix(0.441592,0,0,0.441592,66.788212,78.43872)">
            <path d="M111.209,217.362C112.137,214.78 112.506,213.865 112.627,213.564C114.365,209.257 116.003,208.233 116.005,208.229C116.072,208.042 115.798,207.847 115.845,207.654C115.885,207.494 116.072,207.397 116.225,207.336C116.477,207.235 116.845,207.388 117.023,207.184C117.614,206.505 117.177,206.344 117.551,205.531C118.862,202.675 118.843,202.657 118.759,199.495C118.651,195.423 118.981,195.315 117.202,191.643C116.276,189.73 116.07,189.898 114.572,188.423C113.057,186.931 113.148,185.856 111.66,184.333C110.043,182.679 110.277,182.534 108.229,179.641C108.082,179.433 108.175,179.415 107.243,176.607C106.563,174.56 106.099,174.712 106.002,172.552C105.751,166.959 106.047,166.981 106.002,166.499C105.759,163.882 106.909,164.074 107.031,161.448C107.132,159.277 107.817,159.533 108.589,157.546C109.512,155.173 109.973,155.463 110.044,155.258C110.115,155.055 109.795,154.859 109.833,154.647C109.886,154.363 109.932,154.431 111.218,153.217C112.24,152.252 112.478,151.684 112.545,151.525C112.665,151.24 112.703,150.921 112.855,150.652C113.202,150.036 113.604,150.703 114.054,150.182C114.665,149.475 114.162,149.325 114.526,148.516C114.952,147.569 118.507,139.667 116.203,135.634C115.92,135.137 116.107,135.127 116.011,134.6C115.885,133.906 113.052,129.519 112.232,128.79C109.072,125.979 109.698,125.546 108.225,122.645C107.461,121.141 107.068,121.293 107.004,119.55C106.977,118.827 106.776,113.343 106.805,110.504C106.817,109.347 107.545,108.876 107.83,107.568C107.883,107.327 108.184,105.947 108.903,104.69C111.907,99.44 112.771,98.65 113.23,98.23C115.182,96.444 114.763,96.153 114.799,93.506C114.816,92.212 116.733,91.009 115.232,88.622C114.945,88.166 115.172,88.149 115.025,87.602C114.588,85.981 112.749,82.882 112.517,82.491C111.953,79.861 111.902,79.883 111.908,79.65C111.911,79.5 112.23,79.49 112.233,79.34C113.572,77.853 113.376,77.451 114.498,77.418C114.788,77.41 115.114,77.4 117.365,79.635C119.47,81.726 119.495,81.686 120.805,84.344C121.221,85.188 122.31,85.431 121.786,88.472L123.464,89.463L124.262,88.287C126.682,80.886 125.586,76.75 125.52,75.491C124.299,73.377 123.885,70.876 123.815,70.457C123.43,68.138 122.426,68.651 121.503,66.498C121.477,66.436 119.858,64.318 118.864,62.336C117.928,60.468 117.875,60.509 117.837,60.333C117.792,60.129 118.081,59.921 118.001,59.727C117.942,59.585 117.324,59.63 116.883,58.39C116.847,58.287 116.56,54.794 116.534,54.482C116.252,54.001 114.497,51.011 116.528,47.516C117.455,41.486 120.141,37.517 120.224,37.365C120.369,37.101 120.351,36.757 120.526,36.512C120.635,36.36 120.913,36.402 121.021,36.25C121.118,35.755 120.909,35.743 121.203,35.326C121.65,34.692 121.702,34.77 122.211,34.204C123.98,32.427 123.534,32.113 125.182,30.224C126.069,29.207 126.472,27.748 126.537,27.515C126.986,25.891 126.394,25.781 127.159,24.335C127.23,24.201 127.199,24.2 127.696,22.517C127.725,16.892 128.791,16.637 126.217,11.647C126.144,11.505 125.89,11.491 125.853,11.336C125.806,11.136 126.076,10.93 126.003,10.738C125.927,10.536 125.543,10.793 124.54,8.476C124.001,7.232 123.459,7.569 123.219,6.64C121.991,1.889 124.653,0.421 128.353,3.651C130.259,5.314 130.579,4.855 132.359,6.637C135.946,10.226 136.464,9.888 138.415,14.546C139.446,17.005 139.65,16.89 140.184,19.531L140.814,21.329C142.199,24.993 141.019,28.118 140.812,28.667C140.098,30.523 140.223,30.516 140.212,32.505C140.203,34.003 138.67,35.064 138.227,37.46C137.661,40.517 136.28,40.654 136.176,42.471C136.138,43.145 136.262,43.82 136.252,44.495C136.234,45.655 135.555,45.81 135.417,46.47C135.344,46.815 135.49,47.184 135.418,47.529C136.115,48.597 135.841,48.702 137.508,54.497C137.59,54.784 139.688,59.125 139.795,59.252C140.921,60.586 143.008,61.116 144.439,62.56C145.495,63.627 146.783,66.319 147.774,67.22C147.888,67.323 149.029,68.361 149.083,68.62C149.245,69.405 148.939,69.422 149.37,70.552C151.478,76.086 152.491,75.979 151.99,83.497C151.842,85.723 152.879,85.852 151.808,87.646C149.748,91.093 151.839,92.303 147.811,96.777C147.113,97.553 147.285,98.396 144.755,102.63C144.037,103.833 144.167,106.152 144.082,106.375C142.918,109.423 142.272,109.498 143.432,112.538C143.539,112.819 143.635,113.109 143.795,113.364C144.096,113.84 143.862,113.862 143.968,114.4C144.443,116.815 145.144,116.449 145.18,116.65C145.218,116.868 144.884,117.069 144.961,117.276C145.037,117.478 145.469,117.16 146.461,119.523C146.835,120.416 148.698,121.871 149.119,122.656C149.94,124.187 149.756,124.276 150.771,125.228C151.301,125.725 153.051,127.367 154.799,133.358C155.694,136.427 154.508,137.626 155.182,143.527C155.21,143.77 155.401,145.439 154.502,146.501C154.381,146.645 154.054,146.551 153.985,146.726C153.906,146.925 154.211,147.132 154.169,147.343C154.133,147.518 154.084,147.483 153.136,149.328C153.087,149.423 152.732,150.115 152.464,150.482C152.356,150.631 152.039,150.569 151.977,150.742C151.907,150.938 152.204,151.137 152.157,151.34C152.119,151.505 151.921,151.598 151.764,151.661C151.522,151.76 151.166,151.617 150.994,151.814C150.756,152.085 151.543,152.51 148.805,155.756C148.579,156.024 148.859,156.16 146.803,159.657C146.639,159.936 146.966,160.056 145.415,163.457C144.71,165.004 144.999,168.032 145.811,169.346C146.116,169.84 145.922,169.865 145.986,170.438C146.208,172.41 146.801,172.988 147.491,174.506C148.066,175.769 148.466,175.438 149.145,176.651C150.093,178.343 149.953,178.41 150.79,179.205C152,180.354 152.081,180.295 152.159,180.648C152.204,180.849 151.931,181.049 151.999,181.244C152.069,181.448 152.46,181.191 153.401,183.55C155.211,188.094 156.16,187.956 156.024,195.503C155.968,198.547 156.639,198.648 155.443,201.473C154.806,202.978 155.148,203.049 154.453,204.474C152.959,207.54 152.867,207.452 150.978,209.773C150.886,210.228 151.079,210.241 150.798,210.664C150.378,211.297 150.326,211.195 149.795,211.792C146.003,215.506 145.577,216.915 145.411,217.464C144.944,219.01 145.094,219.025 144.446,220.473C144.1,221.245 143.939,227.164 144.431,228.535C145.391,231.213 145.005,231.261 145.153,236.49C145.163,236.838 145.092,236.811 143.75,240.606C142.669,243.661 140.773,246.043 140.438,246.464C139.992,247.023 139.978,246.98 139.646,247.648C139.465,248.01 139.108,247.607 135.669,250.77C135.519,250.8 135.498,251.067 135.348,251.097C134.393,251.294 132.733,251.271 132.505,251.268C132.351,251.265 130.826,251.244 130.593,251.146C130.447,251.085 130.497,250.733 130.339,250.744C129.816,250.78 130.008,251.186 129.487,251.223L128.415,251.168C127.909,251.182 127.917,251.26 122.498,251.261C119.737,251.262 120.005,250.516 119.203,249.789C118.005,248.417 117.616,248.454 117.912,246.636C117.933,246.504 118.189,246.5 118.211,246.368C118.869,244.454 118.929,244.488 118.826,242.49C118.652,239.098 119.024,239.009 118.209,237.631C117.928,237.156 118.175,237.133 118.034,236.601C117.646,235.144 116.666,234.453 116.613,234.393C116.543,234.314 115.877,233.561 115.828,233.342C115.784,233.143 116.091,232.949 116.014,232.76C115.848,232.35 114.52,233.109 111.205,223.641C111.183,223.504 110.917,223.502 110.895,223.365C110.846,223.059 111.238,223.088 111.003,219.494C110.932,218.401 110.808,218.414 111.209,217.362ZM131.181,232.524L131.113,231.619C130.436,230.102 130.518,230.111 130.158,228.486C129.982,222.284 129.823,222.25 131.348,217.438C131.593,216.666 131.775,216.825 132.128,216.319C132.176,216.112 131.923,215.909 131.971,215.703C132.031,215.44 132.602,214.668 132.665,214.584C132.774,214.436 133.091,214.495 133.148,214.321C133.215,214.12 132.909,213.925 132.952,213.718C132.983,213.566 133.114,213.685 134.236,212.27C134.863,210.966 135.851,209.36 136.096,208.416C136.232,207.89 136.044,207.869 136.291,207.406C136.522,206.973 136.335,206.929 136.595,206.543C136.68,206.418 136.919,206.474 137.004,206.349L136.953,203.755C136.965,203.647 136.998,203.665 137.565,202.536C138.336,199.072 138.288,197.127 136.558,191.473C136.313,190.673 136.025,190.844 135.91,190.312C135.867,190.114 136.121,189.911 136.051,189.721C136.014,189.619 135.896,189.718 135.272,188.615C133.939,186.255 134.334,186.084 134.089,185.78C133.924,185.576 133.568,185.697 133.323,185.603C133.234,185.569 131.343,181.906 131.209,181.756C129.213,179.527 130.077,179.068 128.603,176.434C128.017,175.004 127.967,175.041 128.001,173.485C127.806,166.776 128.24,166.819 130.299,160.418C130.574,159.565 130.851,159.739 131.018,159.269C131.175,158.828 131.034,158.815 131.274,158.388C131.611,157.789 131.646,157.86 132.055,157.28C132.155,156.8 132.011,156.782 132.244,156.373C132.393,156.112 132.377,155.768 132.559,155.529C132.673,155.379 133.005,155.466 133.071,155.289C133.147,155.087 132.847,154.881 132.883,154.668C132.949,154.275 133.482,153.608 133.548,153.525C133.668,153.376 134.005,153.477 134.076,153.299C134.156,153.098 133.847,152.892 133.884,152.679C133.941,152.347 134.503,151.621 134.568,151.537C134.679,151.393 134.948,151.442 135.059,151.298C135.104,151.098 134.857,150.904 134.902,150.704C134.945,150.508 134.984,150.537 136.014,148.458C136.201,146.957 136.201,146.996 136.576,145.541C137.008,142.497 137.009,142.503 136.555,139.471C136.459,139.082 135.458,135.015 135.247,134.634C134.372,133.055 134.644,132.941 133.596,131.451C132.709,130.189 133.21,129.958 132.241,128.721C126.603,121.527 126.879,116.311 127.063,110.512C126.983,108.952 126.881,108.914 127.636,107.567C129.264,102.89 129.68,103.104 131.529,98.509C131.596,98.343 131.992,97.36 132.705,96.602C134.393,94.806 135.277,90.087 135.389,89.489L135.607,87.496C135.444,87.301 135.039,87.474 134.875,87.279C134.768,87.151 134.807,87.141 133.955,85.411C133.517,87.341 133.542,87.336 133.482,87.496C132.07,91.268 132.53,92.721 132.127,93.313C132.011,93.484 131.659,93.35 131.543,93.521C131.1,95.166 131.151,95.179 131.065,95.298C130.879,95.557 130.734,95.24 130.534,95.518C130.247,95.932 130.592,96.004 130.327,96.386C130.135,96.661 129.95,96.339 129.758,96.636C129.587,96.899 129.665,97.259 129.569,97.558C128.854,99.785 127.608,100.869 127.353,101.428C125.389,105.746 124.813,108.911 124.69,109.587C123.969,113.548 124.163,113.531 124.438,117.533C125.138,118.928 126.153,124.462 126.765,125.274C128.351,127.377 128.253,127.388 128.392,127.565C129.445,128.905 128.823,129.105 128.91,129.213C129.074,129.416 129.427,129.305 129.669,129.401C129.805,129.455 129.984,129.516 130.027,129.656C130.088,129.855 129.862,130.08 129.937,130.274C130,130.437 130.278,130.415 130.377,130.558C131.023,131.493 130.73,131.617 131.368,132.571C132.463,134.209 133.289,138.06 133.395,138.554L133.559,138.948C133.678,139.037 133.802,139.123 133.744,139.375C134.291,140.635 134.474,141.17 133.995,144.501C133.966,144.705 134.136,146.07 133.451,147.474C131.847,152.012 129.143,156.822 128.704,157.602C128.084,158.705 127.965,158.613 127.929,158.715C127.861,158.91 128.127,159.113 128.084,159.316C128.052,159.466 127.813,159.487 127.738,159.621C127.126,160.722 127.008,160.624 126.972,160.725C126.902,160.921 127.182,161.122 127.138,161.325C127.103,161.483 126.846,161.5 126.77,161.643C125.158,164.696 125.143,165.136 125.132,165.469C124.977,169.981 125.381,169.958 124.995,174.463C126.493,179.254 128.409,182.841 128.778,183.256C130.491,185.181 130.107,185.402 131.657,187.407C132.142,188.036 132.527,189.07 132.715,189.391C132.959,189.806 132.822,189.823 132.982,190.268C133.12,190.649 133.389,190.466 133.692,191.421C134.991,195.518 135.213,195.515 134.931,202.491L134.368,205.436C131.97,212.785 130.401,212.087 128.054,219.486C128.06,219.707 128.119,222.121 128.078,222.242L127.362,223.417L127.356,225.587C128.18,226.898 128.051,226.956 127.859,228.467L127.916,229.37C128.525,230.894 128.46,230.866 128.827,232.476C129.142,233.628 129.144,233.62 129.167,233.72C129.372,234.613 129.235,234.61 129.442,235.514C129.724,235.111 130.253,234.925 130.535,234.522C130.821,234.114 130.468,234.038 130.741,233.66C130.926,233.405 131.087,233.758 131.277,233.494L131.181,232.524ZM192.527,209.514C192.423,209.822 191.362,212.955 191.168,213.347C190.395,214.91 190.046,214.612 189.995,214.748C189.92,214.945 190.218,215.146 190.175,215.352C190.124,215.594 187.173,218.646 186.32,219.081C180.752,221.927 180.934,222.177 180.447,222.411C179.982,222.634 175.803,226.684 175.47,227.483C174.502,229.814 174.072,229.535 173.994,229.736C173.914,229.936 174.232,230.139 174.192,230.351C174.162,230.514 173.896,230.531 173.817,230.677C171.81,234.383 172.226,237.43 169.336,235.839C167.131,234.626 167.002,235.241 164.499,235.258C160.013,235.288 161.706,231.948 161.768,231.535C162.093,229.389 161.662,229.444 160.919,227.378C160.817,227.096 160.913,220.115 160.921,219.484C160.987,214.687 164.702,213.499 165.517,211.509C166.48,209.155 166.955,209.48 167.036,209.28C167.119,209.074 166.778,208.872 166.813,208.653C166.839,208.49 167.099,208.467 167.187,208.327C168.82,205.732 166.971,202.424 166.775,201.456C166.349,199.355 165.862,199.461 165.834,199.332C165.789,199.127 166.086,198.92 166.006,198.726C165.823,198.283 165.126,198.636 164.504,195.498C163.772,194.185 163.758,193.658 163.754,193.486C163.594,187.08 164.198,186.066 164.526,185.515C164.711,185.209 166.059,182.981 166.619,181.557C167.878,178.358 171.746,176.485 172.581,174.544C173.584,172.216 173.959,172.477 174.037,172.276C174.118,172.068 173.773,171.869 173.806,171.648C173.836,171.446 174.5,171.782 175.007,169.399C175.122,168.859 174.885,168.826 175.195,168.349C176.209,166.789 175.703,165.66 175.607,165.446C174.689,163.397 174.893,163.337 173.874,161.319C169.924,153.494 169.66,152.354 169.466,151.516C168.791,149.635 168.751,149.657 168.737,149.485C168.324,144.534 169.243,142.998 169.531,142.516C169.889,141.453 169.899,141.486 170.246,140.392C170.975,138.092 171.994,137.272 172.002,137.246C172.066,137.058 171.814,136.857 171.866,136.665C171.942,136.384 176.229,132.005 176.617,131.608C177.229,130.983 177.536,131.631 178.177,131.06C178.391,130.87 178.23,130.482 178.335,130.216C178.496,129.81 178.605,129.935 179.524,129.542C179.887,129.386 180.167,129.266 183.172,126.216C183.46,125.884 183.206,125.792 183.473,125.485C183.892,125.003 183.999,125.289 184.017,125.245C184.096,125.048 183.78,124.851 183.814,124.642C183.878,124.261 184.421,123.576 184.487,123.493C184.603,123.345 184.889,123.42 185.005,123.273C185.048,123.067 184.789,122.872 184.832,122.667C184.926,122.217 185.735,122.458 185.722,119.492C185.699,114.18 186.467,113.936 183.873,109.337C182.756,107.356 180.882,105.132 179.525,99.487C178.922,98.455 178.91,98.469 178.873,98.373C178.688,97.88 178.514,94.27 179.506,92.503C180.794,88.569 181.023,88.71 183.161,84.327C185.403,76.71 181.507,75.087 181.865,69.511C182.133,65.35 182.066,65.35 183.033,62.403L183.494,60.497C183.618,60.336 183.99,60.463 184.061,60.273C184.14,60.062 183.783,59.867 183.815,59.644C183.838,59.479 184.1,59.456 184.196,59.32C184.63,58.703 184.681,58.782 185.201,58.207C186.269,57.141 186.115,57.027 187.336,56.207C187.764,55.92 187.779,56.111 188.249,56.009C189.354,55.191 189.201,54.868 190.514,54.813C194.502,54.648 189.627,61.813 189.411,62.459C187.298,68.777 194.503,75.479 194.122,79.472C193.839,82.446 194.038,82.403 194.277,87.513C194.41,90.361 193.386,91.289 195.81,96.352C197.14,99.129 197.537,98.792 202.417,103.588C203.048,104.209 202.365,104.515 202.93,105.159C203.124,105.382 203.526,105.221 203.799,105.333C204.177,105.488 204.047,105.558 204.465,106.52C204.796,107.281 206.159,108.568 206.177,108.654C206.219,108.863 205.898,109.063 205.974,109.263C206.042,109.442 206.376,109.353 206.497,109.501C206.86,109.944 208.495,115.403 208.517,115.491C209.609,117.547 209.724,121.281 208.477,123.488C207.787,126.638 207.605,126.536 206.786,129.62C206.556,130.487 206.175,130.223 205.982,130.736C205.909,130.93 206.206,131.132 206.157,131.333C206.15,131.363 204.706,132.832 204.42,133.452C203.653,135.116 203.19,134.796 202.428,136.459C199.843,142.101 200.087,142.181 199.824,142.649C199.675,142.914 199.595,143.212 199.501,143.5C198.36,146.981 200.135,150.984 200.25,151.545C200.863,154.538 202.59,155.209 203.19,158.548C203.541,160.5 205.34,163.301 205.143,165.485C204.938,167.741 205.168,170.468 204.792,171.63C202.147,179.81 199.628,180.963 199.296,181.289C198.773,181.803 193.332,187.157 192.81,187.772C192.297,188.375 190.87,190.055 191.17,197.534C191.21,198.517 191.89,198.659 192.517,201.492C193.622,203.524 193.668,207.374 192.527,209.514ZM176.306,196.504L177.617,196.336C177.806,195.448 177.414,194.5 177.603,193.611C177.648,193.4 177.782,193.509 179.113,191.374C180.381,185.135 184.009,183.165 186.294,179.388C186.962,178.284 187.034,178.364 187.069,178.26C187.126,178.088 186.904,177.893 186.973,177.726C187.037,177.568 187.311,177.591 187.4,177.446C188.229,176.095 188.226,176.107 188.591,174.553C188.724,173.987 189.233,172.65 189.295,172.487C189.172,172.42 189.077,172.308 188.954,172.241C188.831,172.174 188.839,172.182 187.405,171.44L186.966,171.604C186.922,172.137 187.083,172.141 186.882,172.616C185.234,176.529 185.043,176.401 184.93,176.749C184.875,176.921 185.105,177.114 185.036,177.282C184.971,177.442 184.664,177.399 184.598,177.559C184.244,179.077 184.302,179.093 184.216,179.197C184.05,179.399 183.655,179.288 183.489,179.489C183.337,179.672 182.987,179.591 182.834,179.773C182.678,179.961 182.958,180.134 181.221,182.365C176.931,187.877 176.35,190.614 176.306,196.504ZM81.053,181.344C81.407,173.027 79.776,173.238 79.758,171.489C79.719,167.892 79.903,167.799 78.193,164.664C78.115,164.52 77.839,164.514 77.813,164.352C77.778,164.131 78.125,163.93 78.045,163.721C77.968,163.519 77.525,163.828 76.534,161.481C76.174,160.628 64.346,149.081 64.225,148.776C64.107,148.479 64.243,148.075 64.03,147.836C63.849,147.633 63.483,147.766 63.232,147.66C63.079,147.596 62.893,147.5 62.852,147.339C62.802,147.143 63.07,146.941 63.002,146.75C62.801,146.186 61.142,145.503 61.017,142.546C60.938,140.684 59.828,139.559 59.79,138.482C59.624,133.829 60.056,133.886 61.187,129.367C61.413,128.466 61.832,128.765 62.027,128.267C62.105,128.067 61.776,127.867 61.819,127.657C61.833,127.59 63.264,126.213 63.562,125.537C64.138,124.23 64.262,124.342 65.18,123.232C66.156,122.052 65.604,121.749 66.606,120.599C68.121,118.861 67.572,118.607 68.471,116.488C68.63,116.113 68.932,115.793 69.019,115.395C69.14,114.839 68.899,114.821 69.197,114.349C70.908,111.643 69.148,111.472 68.748,107.486C68.582,105.831 68.094,105.97 66.559,102.465C66.099,101.415 65.421,101.413 65.209,100.795C65.104,100.489 65.285,100.077 65.071,99.834C64.604,99.304 64.199,99.964 63.875,99.348C63.155,97.985 63.36,97.864 62.217,96.786C61.667,96.267 60.456,95.126 57.899,88.373C57.222,86.585 57.804,76.521 63.19,70.238C64.207,69.052 63.582,68.741 64.508,67.504C64.622,67.352 64.959,67.445 65.025,67.267C65.1,67.063 64.786,66.859 64.825,66.644C64.852,66.489 65.111,66.481 65.19,66.344C65.339,66.083 65.3,65.729 65.486,65.493C65.606,65.339 65.957,65.456 66.028,65.274C66.108,65.07 65.774,64.868 65.813,64.652C65.832,64.546 66.133,64.761 66.538,63.519C66.55,63.483 66.545,63.514 66.819,54.476C65.576,50.8 65.161,51.013 63.581,47.456C63.419,47.091 63.224,46.652 60.21,43.777C56.364,40.107 62.021,39.584 66.305,41.924C71.398,44.708 70.764,45.455 74.78,49.216C78.186,52.406 77.81,56.77 78.794,58.359C79.405,59.344 79.213,65.003 79.07,65.358C78.911,65.754 78.578,66.062 78.402,66.451C78.304,66.668 77.977,68.134 77.957,68.555C77.864,70.491 76.557,72.687 76.244,74.462C75.945,76.154 75.356,75.973 75.257,77.486C75.118,79.597 75.571,79.71 74.424,81.472C74.933,84.055 74.386,84.231 77.397,90.56C78.224,92.297 80.708,92.856 82.412,94.583C82.803,94.979 86.904,99.132 87.167,99.656C88.547,102.398 89.071,105.051 89.167,105.539C89.278,106.1 90.439,107.838 90.19,114.484C90.154,115.424 89.063,117.066 88.984,118.552C88.843,121.201 87.83,121.38 86.757,123.63C86.262,124.668 86.331,124.664 85.778,125.638C85.152,126.739 85.033,126.641 84.996,126.743C84.925,126.939 85.203,127.143 85.159,127.347C85.126,127.494 83.892,129.466 83.778,129.648C82.808,131.198 82.752,134.658 83.809,136.347C84.285,137.107 83.973,138.97 84.766,140.365C86.509,143.428 86.86,143.126 89.378,145.623C89.852,146.093 94.859,151.059 95.148,151.654C98.583,158.723 98.835,164.872 97.827,166.655C97.536,167.171 95.934,173.043 95.157,174.336C89.651,183.494 91.288,188.039 91.47,191.514C92.944,194.061 91.515,196.079 91.289,196.398L91.044,197.493C91.015,197.733 90.986,197.724 90.619,200.49L90.689,202.396C90.76,202.5 90.791,202.45 92.09,203.137C93.36,198.264 93.677,193.246 96.385,195.642C99.616,198.501 100.21,200.079 100.388,200.554C101.162,202.611 102.04,202.328 101.955,204.441C101.851,207.035 102.909,209.007 101.491,211.495C99.969,214.004 99.742,217.135 98.789,218.634C97.911,220.014 98.673,221.178 98.793,221.36C98.99,221.66 98.811,221.735 100.44,225.536C100.724,226.199 102.061,227.506 102.085,227.626C102.243,228.392 101.965,228.336 101.978,228.397C102.103,229.004 102.34,228.864 102.474,229.513C102.633,229.963 102.679,229.898 102.847,230.374C103.423,232.002 102.504,232.153 102.444,232.461C100.757,234.667 100.262,233.714 97.54,233.23C95.467,232.861 95.613,232.352 93.508,232.234C91.42,232.117 91.651,231.019 88.501,230.977C86.46,230.949 85.835,231.42 84.577,228.46C83.165,225.138 77.511,225.01 77.929,216.5C78.003,214.987 77.916,215.024 77.849,213.503C77.778,211.899 78.623,212.138 78.802,210.527C78.839,210.187 78.774,209.843 78.787,209.501C78.842,208.051 79.863,207.917 79.584,206.472C79.334,205.18 77.413,201.207 77.197,200.761C73.083,196.507 68.62,194.152 68.946,186.5C69.031,184.495 68.93,184.536 68.859,182.504C68.822,181.418 69.942,180.406 70.023,178.451C70.088,176.903 70.9,177.012 70.599,175.468C69.905,171.911 67.978,169.791 67.614,169.391L66.903,167.603C66.937,167.442 67.009,167.497 68.359,166.158C68.526,166.194 69.296,165.535 70.412,166.593C71.456,167.582 71.301,167.693 72.444,168.594C73.029,169.055 72.976,169.047 73.622,169.377C74.11,169.626 74.16,170.471 74.802,171.234C75.017,171.49 76.504,172.571 76.771,173.362C76.853,173.604 76.825,173.605 77.73,176.405C78.207,177.88 78.903,181.591 79.43,181.75C79.792,181.859 80.2,181.705 80.562,181.814L81.053,181.344ZM18.57,131.463C18.437,131.255 17.828,130.303 17.694,128.499C17.501,125.893 17.2,125.778 18.501,123.501C19.36,119.783 20.455,120.077 20.823,117.538C20.878,117.155 20.953,116.64 23.246,113.352C27.178,107.715 30.601,112.409 30.079,114.366C30.068,114.406 29.486,115.172 29.231,116.455C28.872,118.263 28.261,118.063 28.182,119.474C28.144,120.163 28.329,120.141 28.183,122.429C28.05,124.523 27.698,124.551 28.518,127.493C28.598,127.782 28.659,128.084 28.806,128.345C28.885,128.484 29.14,128.495 29.172,128.651C29.214,128.854 28.916,129.054 28.993,129.246C29.065,129.424 29.386,129.348 29.511,129.493C29.552,129.54 29.328,129.633 29.826,130.209C29.898,130.293 29.899,130.282 30.81,131.189C33.373,133.784 35.026,134.422 35.456,134.588C37.412,135.344 37.024,135.936 38.439,136.603C41.799,138.185 42.876,140.251 44.322,143.589C45.978,146.407 45.861,146.493 46.152,154.491C46.189,155.492 44.921,156.9 44.991,158.49C45.006,158.835 45.173,159.161 45.196,159.505C45.299,161.057 43.167,161.583 44.379,164.565C45.454,167.21 45.688,168.941 47.364,170.632C49.053,172.336 51.557,172.882 52.481,173.537C52.627,173.641 52.579,173.944 52.747,174.005C52.938,174.075 53.139,173.799 53.335,173.849C53.535,173.9 58.792,179.155 59.087,179.713C60.449,182.294 59.927,184.038 59.999,184.462C60.064,184.846 60.344,185.171 60.41,185.555C60.771,186.099 62.371,188.415 60.44,191.465C59.237,198.786 62.01,198.109 66.729,204.358C68.393,206.561 67.925,206.748 68.183,209.487C68.192,210.336 68.539,213.923 67.72,214.763C67.261,215.234 67.243,215.346 66.61,215.086C66.235,214.933 66,214.526 65.625,214.373C64.36,213.128 63.843,211.511 58.346,208.809C52.373,205.873 49.369,206.571 47.516,205.472C45.533,205.129 45.564,205.2 43.515,205.131C41.423,205.059 40.867,203.058 40.524,202.485C38.75,199.464 40.15,197.207 40.571,196.539C40.607,196.326 42.114,192.97 38.596,189.406C36.687,187.472 34.523,187.175 33.521,186.457C33.373,186.35 33.432,186.036 33.259,185.975C33.063,185.906 32.864,186.202 32.662,186.153C32.497,186.114 32.41,185.912 32.344,185.755C31.764,184.382 31.273,184.838 30.236,183.762C28.708,182.175 28.506,182.419 27.21,180.686C27.105,180.546 26.84,180.519 26.808,180.347C26.767,180.131 27.111,179.931 27.03,179.727C26.887,179.368 26.406,179.717 26.17,178.631C25.728,176.595 25.859,176.594 25.185,174.659C24.99,174.12 24.571,172.968 24.741,167.512C24.759,166.929 24.848,166.685 24.873,166.617C25.375,165.239 25.763,165.579 26.014,165.287C26.057,165.077 25.784,164.882 25.827,164.672C25.863,164.496 25.917,164.536 26.884,162.679C27.923,160.686 27.624,160.611 28.503,158.501C28.944,157.445 28.589,157.347 29.203,156.361C30.406,154.428 29.785,154.254 28.823,149.467C28.542,148.069 25.487,144.031 25.234,143.769C23.191,141.743 22.808,142.054 21.6,139.441C21.388,138.984 19.947,137.431 19.933,137.366C19.877,137.115 20.071,136.846 20.005,136.597C19.729,135.554 19.501,135.674 19.209,134.633C19.14,134.384 19.162,134.398 18.57,131.463ZM34.555,245.409C32.041,244.855 32.056,245.024 29.481,245.123C29.07,245.139 25.108,245.291 24.343,244.802C24.214,244.719 23.484,244.253 22.553,244.115C21.757,243.997 14.23,242.882 12.698,242.09C11.114,241.272 11.339,241.001 11.196,240.953C11.023,240.895 10.858,241.212 10.686,241.151C10.096,240.942 9.836,239.596 9.807,239.445C9.499,237.852 8.661,237.943 9.194,236.402C10.167,233.588 10.086,233.571 10.236,233.362C12.757,229.848 12.576,229.724 15.644,226.635C17.428,224.839 17.837,225.4 19.643,223.647C20.661,222.66 20.646,222.698 21.673,221.675C23.179,220.173 23.099,220.149 24.616,218.607C25.228,217.985 25.533,218.634 26.175,218.065C26.389,217.875 26.232,217.487 26.338,217.22C26.502,216.806 26.613,216.933 27.525,216.543C28.224,216.243 29.491,214.954 29.667,214.867C35.836,211.832 35.822,211.787 42.551,210.586C42.88,210.368 44.951,208.995 47.478,210.542C47.975,210.658 53.035,211.843 53.641,212.181C54.766,212.808 54.637,212.969 54.74,213.01C54.935,213.088 55.137,212.781 55.342,212.826C55.565,212.875 56.685,214.099 56.793,214.218C59.01,216.642 60.055,216.565 61.415,219.549C62.679,222.321 68.467,222.405 69.64,223.224C73.291,225.774 73.365,225.674 73.803,226.33C77.221,231.443 77.223,231.936 77.225,232.5C77.23,233.972 75.932,233.883 75.816,233.96C75.641,234.075 75.671,234.381 75.502,234.504C75.416,234.567 74.658,235.119 74.351,235.172C74.136,235.21 73.932,234.889 73.728,234.966C73.626,235.005 73.769,235.14 72.647,235.792C72.51,235.871 72.504,236.129 72.35,236.16C72.139,236.202 71.937,235.902 71.734,235.973C71.561,236.035 71.633,236.358 71.483,236.465C70.868,236.906 69.886,236.765 68.303,238.299C62.853,243.583 62.992,244.201 60.52,244.125C57.825,244.041 58.087,245.21 56.488,245.238C52.947,245.298 52.954,244.908 49.443,245.404C48.436,246.083 48.453,246.097 48.356,246.137C47.32,246.559 35.959,246.191 35.643,246.139L34.555,245.409ZM179.205,240.797C178.701,240.244 176.69,239.597 178.564,236.533L179.025,234.447C179.074,233.11 179.313,233.218 180.184,232.225C181.192,231.076 180.44,230.506 182.338,229.221C182.952,228.806 183.778,228.397 185.324,227.221C185.463,227.116 185.488,226.854 185.658,226.82C185.871,226.778 186.072,227.111 186.273,227.03C186.375,226.989 186.206,226.811 187.351,226.173C187.778,225.935 189.609,225.942 191.214,224.224C192.539,222.808 192.328,222.538 194.539,221.569C195.13,221.309 196.529,219.963 196.632,219.94C197.306,219.789 197.453,220.292 202.33,218.185C204.606,217.315 205.544,217.358 207.667,218.194C209.065,218.68 209.028,218.752 210.497,218.804C212.51,218.875 212.667,220.009 212.73,220.034C212.932,220.112 213.132,219.782 213.344,219.824C213.513,219.858 213.612,220.061 213.672,220.222C213.769,220.481 213.593,220.855 213.798,221.041C214.434,221.618 214.717,221.006 215.343,221.644C216.35,222.672 216.296,222.668 217.322,223.683C220.815,227.139 220.236,227.58 220.817,228.187C220.98,228.358 224.823,230.356 225.458,230.59C226.269,230.887 226.428,230.691 226.655,231.231C226.766,231.495 226.629,231.881 226.843,232.07C227.202,232.387 228.138,231.468 229.814,235.22C231.519,237.109 231.71,237.329 230.768,239.666C227.602,243.11 227.438,243.081 222.45,244.134C220.295,244.589 220.549,245.098 220.367,245.129C219.957,245.198 214.983,245.072 214.515,245.06C211.661,244.988 211.673,244.904 209.442,245.407C209.238,245.545 208.305,246.175 206.499,246.313C200.719,246.753 198.929,246.051 198.319,245.811C192.703,243.47 190.77,246.338 188.357,244.792C187.013,243.931 181.948,244.349 181.318,242.797C181.213,242.537 181.378,242.156 181.169,241.969C181.11,241.916 181.069,242.107 180.203,241.797L179.205,240.797ZM101.783,242.184C102.181,242.412 103.837,243.358 106.665,245.187C108.528,246.392 107.94,246.9 109.38,248.61C109.633,248.911 110.47,249.906 110.058,253.483C109.556,257.833 103.075,257.549 99.67,258.816C98.237,259.365 98.177,259.023 80.494,259.273C78.899,259.296 78.96,259.046 78.338,258.796C76.921,258.238 76.958,258.283 75.512,257.988C73.441,258.186 73.421,258.281 71.524,257.45C70.51,257.005 70.349,257.48 69.359,256.773C69.043,256.546 66.049,254.405 65.877,253.369C65.52,251.218 67.953,247.775 68.252,247.353C71.578,242.646 78.668,238.431 84.508,236.515C88.08,234.47 90.997,236.263 91.471,236.554L93.552,237.01C93.744,237.017 94.505,236.689 95.493,237.512C95.634,237.629 95.564,237.937 95.734,238.005C95.923,238.081 96.127,237.796 96.324,237.847C96.578,237.914 96.388,238.101 98.776,240.019C99.268,240.121 99.273,239.948 99.662,240.202C100.883,241.001 100.723,241.128 101.783,242.184ZM220.654,200.785C217.084,202.614 215.693,203.052 213.286,199.626C212.56,198.592 211.268,196.189 215.356,193.233C215.496,193.132 215.846,192.879 217.474,192.82C218.443,192.786 218.376,193.02 220.652,194.214C221.251,194.789 221.347,194.659 221.813,195.329C222.323,196.063 222.235,199.046 222.116,199.38C222.069,199.512 221.891,199.555 221.81,199.671C221.341,200.341 221.248,200.213 220.654,200.785ZM9.788,174.808C9.667,174.907 9.527,175.95 6.508,176.056C3.954,176.145 3.038,174.682 2.266,173.629C1.702,172.86 1.909,170.7 1.932,170.635C2.216,169.837 3.458,168.765 3.617,168.628C4.666,167.724 7.176,167.828 7.492,167.841C9.287,167.915 9.576,169.007 9.79,169.2C12.072,171.695 12.055,172.329 9.788,174.808ZM36.774,77.786C35.49,78.853 35.451,78.871 33.498,78.988C31.731,79.094 30.992,79.019 29.247,76.643C28.685,75.876 28.898,73.794 28.949,73.661C28.998,73.536 30.538,71.855 30.695,71.728C33.412,69.543 36.382,71.918 36.762,72.222C37.302,72.804 37.334,72.72 37.786,73.327C38.341,74.071 38.169,76.262 38.127,76.371C38.07,76.516 38.008,76.449 36.774,77.786ZM14.22,202.779C13.037,201.438 12.964,201.515 12.912,201.371L13.026,199.438C13.127,198.943 12.858,198.906 13.245,198.362C17.512,192.372 20.964,198.551 21.083,199.532C21.402,202.159 20.651,201.982 18.648,203.766C16.302,204.67 16.103,204.452 14.22,202.779ZM171.51,256.166C161.254,255.532 158.729,256.625 157.526,256.421C152.192,255.517 147.902,255.325 148.021,250.453C148.026,250.254 147.374,249.901 149.667,247.686C151.215,246.191 151.185,246.205 152.685,244.672C154.976,242.33 158.964,240.884 159.5,240.9C168.193,241.168 168.285,240.863 170.32,241.884C171.849,242.651 171.615,242.957 171.753,243.004C171.947,243.071 172.149,242.799 172.349,242.846C172.507,242.883 172.529,243.126 172.663,243.218C174.739,244.644 177.223,247.603 177.749,248.352C182.17,254.641 173.023,256.092 171.51,256.166ZM231.357,153.782C229.629,152.274 228.841,152.441 228.952,148.491C228.962,148.153 229.02,146.072 230.592,144.601C232.146,143.148 236.923,144.217 237.39,144.619C239.103,146.096 239.111,146.233 238.989,148.508C238.859,150.939 239.695,151.446 237.648,152.763C234.15,155.013 232.883,153.954 231.357,153.782ZM215.478,79.012C217.361,78.945 217.349,78.94 217.512,78.94C222.348,78.935 220.879,82.278 220.952,84.586C220.992,85.885 220.574,85.692 219.442,86.378C218.176,87.147 216.729,87.096 216.486,87.087C212.634,86.952 212.966,85.562 212.961,82.492C212.961,82.179 212.957,79.452 214.609,78.941C214.886,78.855 215.2,79.098 215.478,79.012ZM42.497,106.505C42.181,106.373 42.536,106.115 42.216,105.981C41.912,105.854 41.995,106.271 41.689,106.168C41.077,105.962 40.884,105.402 40.853,105.312C40.795,105.142 41.078,104.966 41.013,104.798C40.944,104.62 40.65,104.634 40.534,104.482C39.74,103.445 40.015,102.834 40.011,102.499C39.997,101.092 40.241,101.172 41.232,100.225C43.056,98.483 42.859,97.498 44.614,98.176C45.218,98.41 48.148,99.366 48.113,101.513C48.073,103.96 48.673,104.39 46.657,105.767C44.578,107.187 44.429,107.124 42.497,106.505ZM233.786,178.656C233.266,179.236 233.331,179.244 232.775,179.783C228.168,184.248 223.13,176.202 227.668,173.871C231.416,171.946 231.382,173.841 231.786,174.013C231.951,174.082 232.129,173.785 232.297,173.847C232.877,174.064 233.091,174.615 233.125,174.704C233.187,174.862 232.936,175.039 232.998,175.198C233.003,175.212 233.612,175.539 233.799,176.363C234.098,177.678 234.095,178.203 234.094,178.365C234.093,178.507 233.786,178.515 233.786,178.656Z"/>
        </g>
    </g>
</svg>
