<?xml version="1.0" encoding="UTF-8" standalone="no"?>
<!DOCTYPE svg PUBLIC "-//W3C//DTD SVG 1.1//EN" "http://www.w3.org/Graphics/SVG/1.1/DTD/svg11.dtd">
<svg width="100%" height="100%" viewBox="0 0 384 333" version="1.1" xmlns="http://www.w3.org/2000/svg" xmlns:xlink="http://www.w3.org/1999/xlink" xml:space="preserve" xmlns:serif="http://www.serif.com/" style="fill-rule:evenodd;clip-rule:evenodd;stroke-linejoin:round;stroke-miterlimit:2;">
    <g transform="matrix(1,0,0,1,72,61.5)">
        <g id="lone_mountain" transform="matrix(0.892123,0,0,1.148364,-14.264481,5.15002)">
            <path d="M138.574,25.816L137.702,26.654C132.905,37.658 97.646,103.91 95.702,102.205C92.491,99.389 91.447,97.841 89.383,101.428C67.994,138.597 66.142,139.34 62.609,140.757C14.127,160.2 -9.561,174.111 7.191,161.169C31.722,142.218 38.16,136.078 40.668,133.687C47.292,127.371 51.852,129.24 63.637,111.582C81.634,84.616 82.411,78.681 88.596,80.27C98.837,82.901 96.603,76.708 115.97,44.729C133.473,15.827 133.635,16.083 141.338,2.252C143.955,-2.447 158.261,35.768 172.271,43.983C191.361,55.176 188.023,58.47 199.036,77.723C211.03,98.691 209.696,103.935 222.514,103.877C240.068,103.799 231.713,117.34 264.752,142.211C266.049,143.187 277.346,151.692 281.275,153.99C283.124,155.072 288.166,160.231 298.315,166.841C310.996,175.101 242.112,148.491 211.486,146.076C187.234,144.163 179.877,119.617 172.304,125.283C139.028,150.181 135.309,151.718 136.405,148.479C137.389,145.575 143.055,128.837 146.605,111.533C146.707,111.037 139.06,92.831 137.532,92.43C134.196,91.553 121.328,107.166 127.245,92.391C132.681,78.816 132.75,79.01 138.235,65.387C143.959,51.17 138.182,50.608 139.176,28.527C139.517,27.551 139.859,26.576 140.2,25.601C139.188,25.173 139.217,25.054 138.574,25.816Z" style="fill-opacity:1;"/>
            <path d="M138.574,25.816L140.2,25.601C139.859,26.576 139.517,27.551 139.176,28.527C138.808,27.149 139.223,26.65 137.702,26.654L138.574,25.816Z" style="fill-opacity:0.78;"/>
            <path d="M138.574,25.816C139.217,25.054 139.188,25.173 140.2,25.601L138.574,25.816Z" style="fill-opacity:0.97;"/>
        </g>
    </g>
</svg>
