<?xml version="1.0" encoding="UTF-8" standalone="no"?>
<!DOCTYPE svg PUBLIC "-//W3C//DTD SVG 1.1//EN" "http://www.w3.org/Graphics/SVG/1.1/DTD/svg11.dtd">
<svg width="100%" height="100%" viewBox="0 0 384 333" version="1.1" xmlns="http://www.w3.org/2000/svg" xmlns:xlink="http://www.w3.org/1999/xlink" xml:space="preserve" xmlns:serif="http://www.serif.com/" style="fill-rule:evenodd;clip-rule:evenodd;stroke-linejoin:round;stroke-miterlimit:2;">
    <g transform="matrix(1,0,0,1,72,61.5)">
        <g id="marsh" transform="matrix(1,0,0,1,-2,62.5)">
            <path d="M192.968,84.513C192.715,103.094 192.704,103.129 193.202,104.663C193.644,106.025 195.235,105.894 195.283,104.464C195.461,99.177 194.169,95.189 198.411,80.471C198.447,80.347 203.729,67.103 205.95,63.837C206.608,62.87 214.232,53.407 215.443,53.213C217.474,52.888 217.204,54.148 215.983,55.771C209.782,64.009 206.568,75.55 206.057,77.383C204.387,83.378 203.96,83.248 203.066,89.432C202.608,92.598 201.719,95.138 201.679,96.503C201.594,99.442 200.489,107.815 200.433,110.494C200.419,111.174 201.081,113.477 197.502,114.507C196.403,114.824 189.253,115.674 188.559,112.474C187.827,109.103 189.158,108.197 187.122,96.56C184.067,79.098 185.043,78.222 186.499,78.322C188.621,78.467 187.29,91.797 189.541,90.558C191.466,89.498 187.808,78.367 191.539,57.507C191.991,54.98 192.165,55.051 192.746,52.566C193.606,48.888 190.185,48.105 190.875,43.566C191.159,41.702 193.476,30.162 193.978,28.648C195.472,24.147 198.151,24.768 198.989,22.738C199.384,21.78 199.753,18.111 201.54,18.231C204.019,18.397 201.218,22.72 202.641,25.418C203.232,26.539 204.596,26.551 202.692,36.535C202.119,39.539 201.807,39.431 201.351,42.475C200.415,48.734 197.707,47.584 195.76,53.592C194.447,57.643 194.89,60.534 193.519,73.502C192.938,78.999 193.204,78.983 192.968,84.513Z"/>
            <path d="M32.029,90.467C32.744,70.925 31.74,70.865 32.577,67.519C34.069,61.558 33.064,61.394 35.079,52.393C35.732,49.473 34.261,48.28 33.874,47.365C32.804,44.833 35.459,32.324 37.218,27.397C38.559,23.643 41.114,25.285 42.017,21.412C42.091,21.096 43.313,15.855 45.099,18.777C45.78,19.892 45.307,19.946 44.849,22.568C44.333,25.518 47.059,25.925 46.52,29.502C46.436,30.06 45.744,34.649 45.271,36.445C42.614,46.526 43.102,46.882 40.905,48.942C36.59,52.99 37.399,64.223 36.66,68.523C35.811,73.456 35.809,73.441 35.803,78.5C35.782,98.537 34.667,107.354 37.438,105.4C38.139,104.905 38.056,100.894 38.048,100.499C37.772,87.241 41.047,80.337 44.648,71.563C49.011,60.933 57.538,53.106 58.556,53.123C61.224,53.167 58.007,56.033 56.126,59.313C45.661,77.559 44.216,98.431 43.358,105.49C42.617,111.588 44.652,114.219 38.517,114.722C30.27,115.398 30.988,111.553 30.97,111.377C30.162,103.501 31.552,98.049 32.029,90.467Z"/>
            <path d="M104.603,60.796C105.169,61.035 105.262,60.8 105.685,61.253C105.963,61.551 110.227,67.364 110.659,68.435C111.306,70.043 112.328,72.578 115.893,89.454C116.937,94.398 117.793,106.097 117.899,106.201C118.084,106.383 119.594,107.408 119.748,103.532C120.191,92.409 120.354,92.435 122.748,81.549C124.461,73.76 124.911,73.492 125.507,73.776C125.742,73.887 127.862,75.863 127.922,78.474C128.184,89.859 126.224,89.697 125.78,100.518C125.654,103.59 124.794,103.44 124.727,106.509C124.662,109.44 126.442,114.179 116.493,113.642C110.586,113.322 111.847,110.997 111.388,107.514C110.532,101.02 110.78,101.024 110.249,94.524C110.033,91.888 109.305,89.985 109.206,88.521C108.811,82.658 108.733,82.041 104.893,65.422C104.277,62.756 102.66,62.365 104.603,60.796Z"/>
            <path d="M118.487,88.286C116.945,85.709 117.14,85.635 116.654,81.492C115.891,74.991 116.851,75.022 117.149,68.48C117.607,58.407 118.461,58.516 119.218,48.481C119.676,42.421 122.624,41.733 119.743,36.372C118.347,33.773 119.49,27.916 122.756,13.572C123.544,10.114 126.912,9.469 127.568,7.527C127.805,6.825 127.962,6.097 128.175,5.387C129.328,1.555 131.748,3.285 131.462,5.498C131.101,8.296 130.38,8.559 132.174,10.779C134.233,13.325 132.616,19.209 129.611,32.525C128.371,38.021 126.672,37.038 125.329,39.376C123.342,42.835 124.808,43.226 121.505,60.501C121.217,62.007 119.776,86.096 119.21,87.276C119.031,87.649 118.666,87.913 118.487,88.286Z"/>
            <path d="M171.361,75.569C170.059,72.564 170.039,72.583 169.928,72.321C166.709,64.666 162.221,62.719 164.576,61.72C165.581,61.294 175.506,68.739 182.079,86.658C184.382,92.938 186.712,107.86 185.883,112.66C185.552,114.578 178.921,115.829 177.569,111.479C175.962,106.306 175.699,106.436 173.222,101.636C168.618,92.71 163.62,91.408 163.755,89.554C163.965,86.674 169.557,91.7 171.127,92.963C179.056,99.34 178.878,105.405 179.932,106.023C180.194,106.176 182.564,106.758 180.87,102.346C176.311,90.467 175.149,82.329 171.361,75.569Z"/>
            <path d="M24.901,87.401C26.931,94.936 27.633,94.784 28.08,102.55C28.654,112.533 29.366,113.847 26.465,114.285C19.091,115.397 21.042,111.405 16.804,103.337C13.176,96.428 12.866,96.573 7.082,90.658C5.874,89.423 7.719,88.489 9.468,89.568C11.768,90.987 18.258,97.204 19.187,98.743C21.626,102.785 22.064,107.877 23.826,105.816C25.042,104.394 21.315,97.702 20.346,93.537C18.783,86.825 18.548,86.144 12.77,72.385C10.441,66.839 4.643,62.27 7.568,61.774C9.393,61.464 20.265,72.764 24.901,87.401Z"/>
            <path d="M105.948,98.443C106.566,105.423 107.048,109.676 100.467,108.748C94.763,107.944 98.372,104.422 94.365,89.536C93.174,85.112 93.655,84.979 90.152,75.635C81.798,53.35 76.261,55.665 76.982,52.56C77.676,49.57 81.867,54.876 87.857,61.158C95.212,68.871 98.695,82.774 99.223,84.595C99.24,84.657 101.111,95.997 101.159,98.513C101.16,98.534 100.691,104.54 102.403,104.21C105.391,103.634 99.9,79.488 103.441,79.212C105.154,79.079 104.216,83.132 104.68,86.457C104.9,88.04 105.051,88.006 105.948,98.443Z"/>
            <path d="M51.903,101.588C49.836,108.813 49.796,111.933 47.48,111.773C45.262,111.62 45.696,108.973 45.723,108.515C46.399,97.427 49.174,96.166 49.734,91.525C49.901,90.141 50.462,85.486 58.391,76.407C64.412,69.513 66.395,70.808 71.583,73.315C77.079,75.97 82.982,82.417 83.16,82.711C86.895,88.875 91.35,100.476 87.506,100.613C83.128,100.769 85.404,95.211 78.171,84.723C77.224,83.35 72.414,75.266 66.582,74.008C64.25,73.505 62.804,76.599 59.782,81.661C55.231,89.287 52.108,100.949 51.903,101.588Z"/>
            <path d="M106.301,58.373C104.947,58.317 104.846,58.431 103.744,57.245C101.463,54.792 102.21,53.589 100.249,51.791C97.985,49.713 97.225,50.192 95.562,45.478C89.218,27.488 90.61,26.72 91.948,24.782C93.975,21.844 90.192,18.43 92.573,17.708C94.256,17.197 95.483,21.372 95.529,21.487C96.948,24.982 100.237,22.98 102.092,30.596C105.385,44.11 107.028,44.066 105.456,51.491C104.748,54.832 106.278,54.72 106.301,58.373Z"/>
            <path d="M136.904,87.551C136.393,90.795 134.555,98.176 134.383,98.429C132.879,100.636 128.31,101.794 128.891,97.548C131.881,75.701 137.15,68.724 138.713,66.654C142.229,61.998 141.559,61.472 146.578,56.587C149.599,53.646 150.591,52.61 151.381,53.595C152.673,55.208 142.455,63.262 136.904,87.551Z"/>
            <path d="M111.465,117.348C126.643,118.672 142.06,116.428 139.251,120.304C138.622,121.171 122.096,121.807 121.898,122.74C121.152,126.251 136.415,123.759 133.316,127.313C131.643,129.231 108.46,129.647 108.196,127.607C107.764,124.265 117.315,126.78 116.099,123.872C115.714,122.953 109.35,123.376 108.6,123.225C103.678,122.235 93.588,122.675 97.699,119.794C98.429,119.282 104.876,119.626 109.573,119.826L109.984,117.962C110.041,117.847 110.092,117.918 111.465,117.348Z"/>
            <path d="M182.437,119.044C188.588,118.159 210.754,118.666 211.452,118.782C219.959,120.186 222.628,118.707 222.748,120.451C222.946,123.338 212.423,122.295 211.518,122.205C210.145,122.069 204.698,122.944 204.376,123.432C203.033,125.465 210.832,124.808 211.336,125.606C212.484,127.423 207.8,127.676 207.589,127.731C205.276,128.338 205.284,128.186 199.5,128.189C188.544,128.194 188.502,126.49 188.888,125.708C189.557,124.353 196.926,125.849 196.671,123.441C196.562,122.417 190.998,122.539 190.499,122.55C189.221,122.578 179.201,122.797 174.564,121.379C173.509,121.057 172.882,119.501 175.446,119.263C178.951,118.938 178.913,119.26 182.437,119.044Z"/>
            <path d="M54.573,119.036C61.277,120.292 67.221,118.488 65.188,121.245C63.852,123.057 55.36,122.485 54.502,122.427C52.66,122.303 51.016,122.753 49.549,122.798C47.909,122.849 47.293,122.014 46.862,123.594C46.161,126.16 55.743,123.88 55.758,126.526C55.763,127.383 54.609,127.427 54.484,127.432C51.415,127.551 51.46,127.592 48.457,128.138C48.324,128.162 37.708,128.322 36.628,128.047C34.61,127.532 34.641,127.577 32.544,127.317C31.349,127.169 30.288,125.273 33.43,125.071C36.962,124.844 39.819,125.003 39.615,123.458C39.33,121.298 16.549,123.991 16.413,120.506C16.335,118.514 19.085,119.999 25.58,118.889C25.705,118.867 40.931,118.194 54.573,119.036Z"/>
            <path d="M160.52,105.012C160.951,105.009 167.082,104.96 165.347,107.38C164.425,108.667 151.284,108.37 152.594,110.456C153.769,112.324 167.071,111.366 167.184,113.531C167.287,115.526 165.491,115.146 148.498,115.25C146.154,115.265 139.512,115.678 139.288,113.543C138.962,110.441 149.335,112.404 147.36,109.611C146.792,108.807 131.163,108.309 130.539,107.466C128.388,104.558 134.317,105.032 156.5,105.009C158.533,105.006 158.503,105.005 160.52,105.012Z"/>
            <path d="M207.033,91.444C207.214,90.139 206.554,87.86 214.341,78.374C214.961,77.618 221.115,70.121 223.549,70.342C226.12,70.576 220.685,75.634 219.948,76.786C210.864,90.994 208.097,106.875 206.703,110.638C206.152,112.125 202.915,112.288 202.964,109.5C203.086,102.599 205.498,97.89 207.033,91.444Z"/>
            <path d="M130.961,69.551C130.941,69.686 130.688,73.53 129.518,73.566C129.444,73.569 125.003,72.153 126.912,63.593C127.528,60.833 127.998,60.675 129.396,55.474C131.34,48.245 141.599,33.581 143.352,33.985C145.687,34.524 141.757,38.35 139.279,44.409C135.84,52.819 131.312,65.638 131.226,66.463C131.2,66.71 131.206,66.692 130.961,69.551Z"/>
            <path d="M182.056,67.543C180.453,57.851 176.365,44.79 176.314,44.49C176.241,44.064 177.365,41.678 179.076,44.763C185.372,56.119 189.67,72.272 185.336,75.214C182.943,76.838 182.226,69.091 182.056,67.543Z"/>
            <path d="M142.973,96.561C142.28,99.271 142.26,100.025 139.472,99.714C136.785,99.414 137.54,96.832 138.873,91.587C141.273,82.15 147.565,75.786 148.664,74.674C148.707,74.631 155.556,67.077 154.818,71.56C154.664,72.499 150.095,75.952 148.109,81.363C147.527,82.951 143.695,89.85 142.973,96.561Z"/>
            <path d="M89.486,116.148C83.427,116.21 83.449,116.408 78.494,115.532C74.228,114.778 60.838,116.097 60.166,114.695C58.849,111.946 61.423,112.056 88.501,112.381C89.879,112.397 95.662,113.07 96.084,113.79C97.269,115.813 91.077,115.94 89.486,116.148Z"/>
            <path d="M57.637,99.634C62.792,94.583 68.694,91.28 69.745,92.182C71.297,93.516 68.808,94.236 67.36,95.335C59.546,101.269 59.086,106.305 56.519,110.513C55.473,112.227 52.907,112.018 52.482,111.52C52.284,111.287 51.936,105.666 57.637,99.634Z"/>
            <path d="M86.529,105.016C86.953,105.011 92.92,104.939 91.294,107.346C90.932,107.881 90.673,107.326 83.44,109.25C81.419,109.787 73.897,107.763 67.512,107.926C62.139,108.063 65.103,105.356 65.359,105.259C67.179,104.571 84.963,104.933 86.529,105.016Z"/>
            <path d="M215.266,107.393C215.028,107.843 213.71,111.584 211.532,111.857C206.649,112.47 212.516,102.397 214.888,99.87C218.562,95.953 228.404,89.25 227.271,93.413C226.778,95.226 221.58,94.583 215.266,107.393Z"/>
            <path d="M166.5,130.959C157.009,131.174 157.165,129.161 157.584,128.553C158.515,127.204 158.961,127.933 180.473,127.876C184.811,127.865 182.511,129.997 182.298,130.081C179.702,131.099 174.885,130.937 166.5,130.959Z"/>
            <path d="M232.5,112.165C234.394,112.196 242.569,111.659 240.302,114.325C239.147,115.683 229.625,115.202 222.499,115.304C222.144,115.309 218.632,115.36 218.08,114.971C216.86,114.111 217.23,112.741 219.477,112.373C220.291,112.239 227.681,112.208 232.5,112.165Z"/>
            <path d="M15.502,130.936C11.916,131.025 0.865,131.746 2.714,128.644C3.351,127.576 8.92,127.929 9.461,127.964C13.497,128.22 13.469,127.398 17.465,127.771C18.856,127.901 26.977,127.387 25.579,129.541C24.716,130.87 16.316,130.93 15.502,130.936Z"/>
            <path d="M89.529,83.639L90.486,84.51C91.187,87.416 95.366,101.483 92.504,100.304C91.004,99.686 91.112,95.211 89.164,88.62C89.056,88.256 88.03,84.783 88.908,83.883C89.063,83.724 89.374,83.798 89.529,83.639Z"/>
            <path d="M89.529,83.639C89.972,83.588 90.173,82.911 90.616,82.86C91.761,82.727 90.574,83.391 90.486,84.51L89.529,83.639Z"/>
        </g>
    </g>
</svg>
