<?xml version="1.0" encoding="UTF-8" standalone="no"?>
<!DOCTYPE svg PUBLIC "-//W3C//DTD SVG 1.1//EN" "http://www.w3.org/Graphics/SVG/1.1/DTD/svg11.dtd">
<svg width="100%" height="100%" viewBox="0 0 384 333" version="1.1" xmlns="http://www.w3.org/2000/svg" xmlns:xlink="http://www.w3.org/1999/xlink" xml:space="preserve" xmlns:serif="http://www.serif.com/" style="fill-rule:evenodd;clip-rule:evenodd;stroke-linejoin:round;stroke-miterlimit:2;">
    <g transform="matrix(1,0,0,1,72,61.5)">
        <g id="mist" transform="matrix(2.863806,0,0,2.863806,-4.983852,4.998231)">
            <g transform="matrix(1,0,0,1,0,1.729167)">
                <path d="M29.73,20.4C30.428,19.68 34.76,19.552 35.488,20C22.81,30.239 8.426,18.829 5.425,26.46C2.974,32.69 25.095,30.844 27.502,30.841C96.296,30.751 4.524,39.333 2.252,30.619C-2.25,13.36 24.302,26.002 29.73,20.4Z" style="fill-opacity:0.99;"/>
            </g>
            <g transform="matrix(1,0,0,1,3.804167,0)">
                <path d="M33.305,18.658C28.943,17.175 17.26,20.824 15.18,15.646C10.741,4.595 32.71,9.213 50.548,8.796C51.449,8.775 61.697,4.615 51.528,4.213C44.721,3.943 56.619,-0.947 58.009,4.663C61.019,16.813 22.761,7.468 17.793,12.831C13.366,17.61 30.374,14.856 30.475,14.859C31.215,14.882 36.643,15.049 39.625,16.237C47.023,19.186 35.934,19.968 35.488,20C34.76,19.552 34.033,19.105 33.305,18.658Z"/>
            </g>
            <g transform="matrix(1,0,0,1,0,1.729167)">
                <path d="M52.936,33.259C54.768,29.838 60.836,32.269 61.757,34.371C68.111,48.864 23.483,38.192 21.44,43.473C19.228,49.194 28.825,47.837 29.333,47.99C39.239,50.974 20.674,53.509 18.297,47.602C12.662,33.6 39.94,42.314 56.564,38.893C61.404,37.897 58.856,34.839 52.936,33.259Z"/>
            </g>
            <g transform="matrix(1,0,0,1,0,1.729167)">
                <path d="M43.5,25.163C38.031,23.422 42.235,21.966 42.503,21.952C68.36,20.584 68.395,22.484 70.564,21.903C76.997,20.18 76.944,20.759 83.463,20.77C91.782,20.783 72.766,25.765 68.526,25.164C56.06,23.397 56.132,24.904 43.5,25.163Z"/>
            </g>
            <g transform="matrix(1,0,0,1,0,1.729167)">
                <path d="M56.501,51.171C12.807,51.333 74.476,43.538 74.512,50.5C74.526,53.278 68.898,50.228 68.544,50.215C62.416,49.99 62.582,51.017 56.501,51.171Z"/>
            </g>
        </g>
    </g>
</svg>
