<?xml version="1.0" encoding="UTF-8" standalone="no"?>
<!DOCTYPE svg PUBLIC "-//W3C//DTD SVG 1.1//EN" "http://www.w3.org/Graphics/SVG/1.1/DTD/svg11.dtd">
<svg width="100%" height="100%" viewBox="0 0 384 333" version="1.1" xmlns="http://www.w3.org/2000/svg" xmlns:xlink="http://www.w3.org/1999/xlink" xml:space="preserve" xmlns:serif="http://www.serif.com/" style="fill-rule:evenodd;clip-rule:evenodd;stroke-linecap:round;stroke-linejoin:round;stroke-miterlimit:1.5;">
    <g transform="matrix(1,0,0,1,72,61.5)">
        <g id="mountains_snow" transform="matrix(2.979547,0,0,2.979547,-21.905696,7.492007)">
            <path d="M68.201,40.723C64.725,34.451 72.144,38.04 72.424,38.011C74.714,37.775 68.727,27.226 66.776,28.967C58.814,36.072 55.298,41.59 51.154,31.652C51.071,31.453 50.67,26.622 53.816,31.189C54.404,32.043 62.206,32.148 60.655,29.428C48.596,8.286 48.748,6.218 46.754,6.722C46.633,6.752 32.176,30.652 32.382,31.546C33.292,35.498 38.733,27.44 38.17,31.516C36.81,41.366 31.575,35.248 31.173,34.778C24.509,26.991 21.006,42.093 23.543,41.692C40.278,39.044 21.838,51.215 20.488,51.033C7.639,49.307 -4.174,64.554 2.633,53.583C3.407,52.336 4.663,53.878 16.216,41.256C17.034,40.363 16.334,39.975 24.709,28.715C26.522,26.277 28.996,30.968 31.615,26.572C40.916,10.959 44.905,4.603 47.627,2.289C48.543,1.509 49.753,4.841 51.034,6.73C55.394,13.155 61.638,31.63 65.97,25.769C71.578,18.182 72.542,39.768 91.272,52.88C101.213,59.84 85.829,52.931 85.4,52.738C79.441,50.062 79.594,49.218 76.584,49.783C71.606,50.716 68.478,45.184 68.084,44.487C70.933,43.049 70.935,42.791 70.936,42.514C70.936,42.514 68.419,40.867 68.201,40.723Z" style="fill-opacity:0.99;"/>
            <path d="M38.485,48.991C35.665,48.52 33.806,48.951 35.256,46.381C42.757,33.092 42.27,32.971 42.944,31.842C43.871,30.29 47.978,40.515 53.307,44.716C57.188,47.776 53.609,48.066 49.428,50.376C44.191,53.27 43.977,51.429 38.485,48.991Z"/>
            <path d="M58.595,46.784C61.439,45.731 64.594,40.482 66.863,47.46C69.182,54.593 63.513,50.955 56.998,48.01L58.595,46.784Z"/>
            <path d="M68.201,40.723C68.419,40.867 70.936,42.514 70.936,42.514C70.935,42.791 70.933,43.049 68.084,44.487C68.159,43.447 67.806,43.641 67.884,42.567C67.895,42.418 67.884,42.567 68.201,40.723Z" style="fill-opacity:0.4;"/>
            <path d="M58.595,46.784L56.998,48.01C57.181,47.72 55.833,46.676 57.693,46.905C58.314,46.981 58.104,46.723 58.595,46.784Z" style="fill-opacity:0.44;"/>
            <g transform="matrix(0.335621,0,0,0.335621,7.352021,-2.514478)">
                <path d="M82.557,79.291C82.879,78.004 88.746,74.832 100.882,68.764C102.626,67.892 110.881,60.502 115.101,58.226C114.878,59.157 112.433,69.348 112.006,69.775C102.235,79.547 137.306,63.69 139.311,61.685" style="fill:none;stroke:black;stroke-width:7.08px;"/>
            </g>
            <g transform="matrix(0.335621,0,0,0.335621,7.352021,-2.514478)">
                <path d="M36.148,127.029C38.117,124.666 47.364,124.325 57.396,116.801C61.021,114.082 60.958,116.581 63.464,120.34L66.498,122.363C73.764,120.381 75.802,117.12 82.557,113.742" style="fill:none;stroke:black;stroke-width:7.08px;"/>
            </g>
            <g transform="matrix(0.335621,0,0,0.335621,7.352021,-2.514478)">
                <path d="M190.381,106.182C183.639,107.868 175.311,116.196 174.201,117.306C173.897,117.61 163.658,111.18 156.503,110.733" style="fill:none;stroke:black;stroke-width:7.08px;"/>
            </g>
        </g>
    </g>
</svg>
