<?xml version="1.0" encoding="UTF-8" standalone="no"?>
<!DOCTYPE svg PUBLIC "-//W3C//DTD SVG 1.1//EN" "http://www.w3.org/Graphics/SVG/1.1/DTD/svg11.dtd">
<svg width="100%" height="100%" viewBox="0 0 384 333" version="1.1" xmlns="http://www.w3.org/2000/svg" xmlns:xlink="http://www.w3.org/1999/xlink" xml:space="preserve" xmlns:serif="http://www.serif.com/" style="fill-rule:evenodd;clip-rule:evenodd;stroke-linejoin:round;stroke-miterlimit:2;">
    <g transform="matrix(1,0,0,1,72,61.5)">
        <g id="mountains" transform="matrix(0.525917,0,0,0.902455,-21.17444,5.445033)">
            <path d="M151.619,89.725C137.404,104.173 137.986,104.506 123.739,118.74C120.756,121.721 88.378,154.072 84.38,153.804C82.747,153.695 83.87,152.761 93.955,135.716C97.714,129.362 88.417,122.811 84.243,118.831C82.895,117.546 81.487,117.632 70.058,137.291C57.577,158.76 52.661,153.407 10.438,173.348C-10.415,183.197 14.661,164.87 18.738,160.736C21.713,157.719 24.518,154.527 27.648,151.673C81.721,102.373 80.719,95.35 85.328,99.693C91.504,105.514 104.132,113.536 104.316,113.702C111.086,119.802 111.492,112.759 153.719,70.718C158.889,65.57 175.078,87.733 178.27,85.146C179.947,83.787 203.082,56.751 205.214,54.26C248.992,3.099 249.714,0.522 251.048,2.752C253.126,6.227 292.668,53.29 296.331,57.648C302,64.396 304.504,55.825 309.53,56.065C312.623,56.214 394.39,157.857 424.417,178.625C441.545,190.472 361.871,157.538 356.568,155.346C349.692,152.503 314.971,121.174 314.413,120.617C308.773,114.982 313.858,123.606 322.749,150.395C328.639,168.146 339.394,172.016 348.127,185.591C350.358,189.06 345.914,185.762 298.564,171.351C282.047,166.325 283.822,163.178 269.374,153.714C267.14,152.25 266.515,152.371 238.624,166.744C226.751,172.864 237.611,162.682 241.209,158.246C260.01,135.067 260.524,132.192 261.017,129.439C264.549,109.699 262.724,108.776 264.374,108.325C266.703,107.688 279.908,119.331 280.266,119.736C287.093,127.44 280.88,113.61 279.856,106.454C277.302,88.607 274.848,89.077 259.735,79.013C251.108,73.268 262.655,60.322 260.621,55.45C259.724,53.301 249.726,29.345 249.291,28.64C248.24,26.941 246.371,27.674 235.759,49.632C222.96,76.114 219.059,73.228 194.774,97.767C188.918,103.685 211.991,115.065 203.293,120.037C195.724,124.365 164.085,150.081 160.752,152.79C151.01,160.709 158.06,145.215 155.569,143.414C155.262,143.191 94.941,177.088 93.921,176.08C92.351,174.527 146.484,119.04 151.194,114.213C151.679,113.716 153.057,93.195 153.084,90.589C155.788,85.85 151.691,89.609 151.619,89.725Z" style="fill-opacity:1;"/>
            <path d="M437.799,104.209C442.043,110.747 455.126,123.67 456.737,125.262C459.641,128.13 459.862,133.705 471.585,126.639C479.354,121.956 479.675,125.616 486.352,131.675C505.986,149.494 504.985,150.35 524.745,168.213C530.982,173.852 539.148,179.955 531.563,176.211C517.864,169.45 469.828,149.876 469.352,150.355C468.156,151.56 484.618,173.522 478.437,170.839C449.244,158.162 430.003,141.943 426.257,138.786C419.35,132.964 418.563,134.322 411.686,128.295C407.286,124.438 414.723,112.841 413.627,110.445C403.743,88.838 401.919,88.221 400.753,89.781C394.687,97.896 378.317,129.036 373.972,121.298C372.928,119.439 362.446,109.155 363.802,107.7C400.077,68.766 402.318,66.569 404.783,70.263C407.261,73.977 435.107,101.544 437.799,104.209Z"/>
            <path d="M151.619,89.725C151.691,89.609 155.788,85.85 153.084,90.589C152.595,90.301 152.107,90.013 151.619,89.725Z" style="fill-opacity:0.71;"/>
        </g>
    </g>
</svg>
