<?xml version="1.0" encoding="UTF-8" standalone="no"?>
<!DOCTYPE svg PUBLIC "-//W3C//DTD SVG 1.1//EN" "http://www.w3.org/Graphics/SVG/1.1/DTD/svg11.dtd">
<svg width="100%" height="100%" viewBox="0 0 384 333" version="1.1" xmlns="http://www.w3.org/2000/svg" xmlns:xlink="http://www.w3.org/1999/xlink" xml:space="preserve" xmlns:serif="http://www.serif.com/" style="fill-rule:evenodd;clip-rule:evenodd;stroke-linejoin:round;stroke-miterlimit:2;">
    <g transform="matrix(1,0,0,1,72,61.5)">
        <g id="rapids" transform="matrix(0.752435,0,0,0.752435,-1.187129,24.000944)">
            <path d="M251.304,138.632C249.729,139.533 249.783,139.398 249.729,139.533C248.898,141.598 252.269,139.229 252.45,139.102C254.443,137.862 256.578,136.859 258.571,135.619C268.421,129.49 271.915,108.575 279.596,111.213C288.716,114.346 296.253,108.856 302.763,123.388C309.753,138.99 307.344,140.419 319.311,152.669C324.133,157.604 306.229,157.647 302.403,156.737C290.367,153.877 289.551,154.584 279.327,164.302C272.759,170.545 257.59,162.639 249.755,169.793C236.766,181.655 224.327,174.553 213.397,171.736C207.066,170.104 214.463,167.331 215.201,166.251C222.253,155.936 219.966,154.783 226.964,144.513C228.982,141.553 222.377,145.407 220.768,146.804C213.042,153.512 209.805,177.513 177.73,164.177C175.281,163.159 182.207,159.219 182.71,158.933C186.441,156.81 191.602,159.985 203.236,125.389C205.502,118.653 215.276,117.125 216.521,116.93C229.349,114.925 227.84,92.963 239.518,90.918C254.1,88.365 255.754,87.304 265.299,98.681C274.278,109.383 267.48,110.968 266.797,111.757C259.456,120.239 265.236,123.875 251.304,138.632Z"/>
            <path d="M95.491,26.849C115.444,28.118 105.758,43.593 115.419,48.636C124.827,53.548 127.518,51.977 132.369,66.556C132.81,67.882 134.117,67.286 139.391,82.562C141.752,89.399 169.065,55.831 157.367,75.419C151.223,85.707 153.945,100.844 131.555,96.1C123.004,94.288 119.954,108.918 104.209,93.809C103.007,92.655 93.945,93.419 92.721,92.246C84.021,83.912 80.81,78.938 68.281,87.047C56.211,94.858 55.469,86.331 37.528,85.082C35.518,84.942 35.756,83.303 46.986,61.744C50.125,55.717 64.89,53.188 66.585,52.898C69.954,52.321 75.53,27.883 86.488,27.913C91.143,27.926 91.066,28.043 95.491,26.849Z"/>
            <path d="M122.552,131.012C129.513,133.292 123.671,135.314 118.341,140.324C102.478,155.238 72.9,140.593 57.043,171.298C50.034,184.871 20.032,193.337 16.437,194.351C10.033,196.158 -4.409,204.078 5.241,195.205C17.004,184.388 16.382,183.789 32.735,172.998C46.211,164.106 38.632,157.022 53.372,147.287C73.711,133.854 79.715,146.381 97.232,134.196C107.552,127.016 117.465,129.944 122.552,131.012Z"/>
            <path d="M141.813,217.798C117.175,239.814 112.81,238.009 113.877,235.584C114.841,233.392 120.988,229.948 128.691,222.705C130.853,220.672 133.142,221.147 131.346,218.6C130.972,218.069 134.869,210.537 143.687,202.713C164.412,184.324 179.993,185.625 183.433,185.913C187.22,186.229 188.625,184.825 189.977,189.233C190.386,190.565 199.284,187.497 210.48,190.911C224.286,195.12 224.35,192.652 238.485,190.869C246.518,189.855 225.703,204.873 215.508,205.082C206.667,205.264 199.087,203.558 184.337,215.315C162.985,232.336 159.162,231.252 160.602,229.569C167.856,221.093 174.31,223.026 170.644,219.453C168.909,217.762 179.075,204.775 186.386,202.23C189.721,201.069 202.051,197.756 192.452,197.834C185.914,197.887 186.105,196.887 179.502,196.967C173.793,197.037 148.304,207.955 143.796,214.742C143.635,214.985 143.649,214.969 141.813,217.798Z"/>
            <path d="M126.506,164.841C127.09,165.014 127.744,164.819 128.328,164.992C132.628,166.264 116.993,178.357 112.481,179.095C93.836,182.143 99.143,191.356 84.747,202.791C67.788,216.262 60.18,213.169 56.438,215.376C39.209,225.543 36.382,221.642 37.686,220.784C41.127,218.52 77.012,194.907 78.622,189.564C81.615,179.634 79.649,177.775 88.721,172.979C109.093,162.211 115.834,164.956 126.506,164.841Z"/>
            <path d="M157.214,102.215C169.998,91.677 167.193,89.576 175.969,72.718C182.68,59.827 202.964,50.262 205.718,48.963C224.035,40.327 204.177,54.759 191.809,70.767C187.01,76.978 174.318,115.856 157.482,117.046C136.828,118.507 137.261,120.901 135.475,120.992C122.628,121.643 138.783,118.681 148.251,110.209C156.898,102.472 156.88,102.469 157.214,102.215Z"/>
            <path d="M269.446,30.007C274.108,29.086 274.043,29.694 278.392,28.241C282.721,26.795 296.34,23.235 292.445,26.46C275.021,40.889 258.549,35.702 238.801,60.771C215.333,90.564 209.207,89.274 210.495,86.499C217.494,71.414 218.223,71.434 221.56,70.918C226.601,70.137 229.23,65.006 222.243,64.965C219.442,64.949 223.622,58.222 223.936,57.716C239.615,32.486 262.118,32.287 269.446,30.007Z"/>
            <path d="M53.553,106.002C66.381,109.943 65.534,111.745 78.438,115.634C88.851,118.772 102.523,115.205 92.291,119.097C62.358,130.485 60.382,111.465 29.434,120.345C20.847,122.809 -13.35,138.269 13.246,121.202C22.129,115.501 26.066,117.321 24.252,112.6C21.773,106.144 51.151,106.013 53.553,106.002Z"/>
            <path d="M165.639,143.779C162.374,144.186 162.366,142.543 159.298,144.061C158.461,144.474 130.566,158.27 147.645,144.652C152.128,141.077 164.009,140.484 184.208,117.256C201.936,96.871 203.959,95.156 203.734,97.374C202.99,104.687 198.165,103.649 191.775,122.608C186.112,139.412 168.271,143.218 165.639,143.779Z"/>
            <path d="M165.495,33.997C158.67,34.865 153.252,40.557 148.195,39.95C145.814,39.665 174.003,15.343 174.23,15.19C192.169,3.098 199.506,2.061 214.477,1.784C221.2,1.66 203.474,7.995 202.441,8.365C184.017,14.949 177.106,33.14 165.495,33.997Z"/>
            <path d="M260.461,199.022C266.032,197.584 265.925,196.9 271.599,198.263C289.21,202.495 266.29,207.321 264.76,208.795C249.535,223.463 245.069,215.475 227.304,227.269C221.639,231.03 214.054,236.294 217.886,230.682C225.956,218.862 225.86,218.427 238.727,211.977C250.105,206.273 248.636,203.911 260.461,199.022Z"/>
            <path d="M294.448,62.008C313.265,62.068 288.416,65.804 269.805,85.768C266.173,89.665 265.618,86.982 262.241,83.796C260.926,82.556 250.161,83.946 251.156,81.395C257.391,65.405 290.55,63.206 294.448,62.008Z"/>
            <path d="M213.659,28.755C212.386,29.388 185.57,42.722 196.235,32.238C200.774,27.777 207.897,14.613 237.495,13.944C255.804,13.53 229.893,17.69 213.659,28.755Z"/>
            <path d="M139.774,29.782C118.88,43.662 116.693,34.296 117.797,32.906C119.216,31.119 120.596,33.206 142.232,18.195C142.797,17.804 159.077,6.509 150.809,17.757C145.929,24.397 145.637,23.987 139.774,29.782Z"/>
            <path d="M126.221,179.215C127.695,177.954 141.058,166.531 146.516,165.939C170.096,163.383 148.286,174.537 147.612,174.765C130.454,180.566 118.169,188.565 126.221,179.215Z"/>
            <path d="M282.491,181.993C281.809,181.969 273.653,181.675 274.356,179.405C274.59,178.653 280.988,174.991 281.589,174.647C297.14,165.745 304.315,178.504 300.416,180.316C298.585,181.167 298.265,177.686 282.491,181.993Z"/>
            <path d="M303.568,100.99C296.616,99.457 290.775,101.011 295.2,95.246C304.613,82.981 314.112,94.129 306.625,99.699C306.412,99.857 306.399,99.794 303.568,100.99Z"/>
            <path d="M78.506,91.006C88.494,91.796 91.798,99.813 83.5,100.054C81.988,100.098 67.309,95.941 70.756,93.913C76.932,90.279 77.785,91.183 78.506,91.006Z"/>
            <path d="M288.497,44.826C288.756,44.888 302.07,46.217 289.443,51.369C278.063,56.012 278.193,51.331 278.755,50.684C283.943,44.72 285.21,45.745 288.497,44.826Z"/>
            <path d="M117.756,203.647C106.33,211.904 113.514,198.993 115.397,198.287C124.378,194.917 118.039,203.274 117.756,203.647Z"/>
            <path d="M251.304,138.632C251.686,138.789 252.068,138.946 252.45,139.102C252.269,139.229 248.898,141.598 249.729,139.533C249.783,139.398 249.729,139.533 251.304,138.632Z" style="fill-opacity:0.92;"/>
        </g>
    </g>
</svg>
