<?xml version="1.0" encoding="UTF-8" standalone="no"?>
<!DOCTYPE svg PUBLIC "-//W3C//DTD SVG 1.1//EN" "http://www.w3.org/Graphics/SVG/1.1/DTD/svg11.dtd">
<svg width="100%" height="100%" viewBox="0 0 384 333" version="1.1" xmlns="http://www.w3.org/2000/svg" xmlns:xlink="http://www.w3.org/1999/xlink" xml:space="preserve" xmlns:serif="http://www.serif.com/" style="fill-rule:evenodd;clip-rule:evenodd;stroke-linejoin:round;stroke-miterlimit:2;">
    <g transform="matrix(1,0,0,1,72,61.5)">
        <g id="ridges" transform="matrix(0.483954,0,0,0.937887,-0.899724,28.944293)">
            <path d="M400.618,74.243C398.457,75.185 394.079,75.768 393.5,75.845C392.855,76.022 392.21,76.199 391.564,76.376C383.613,75.818 369.624,76.93 334.551,68.105C253.681,47.759 226.039,6.28 128.435,45.348C114.774,50.816 114.233,52.16 115.309,52.698C158.729,74.411 159.422,72.649 164.427,74.645C176.517,79.469 136.004,72.507 133.562,72.087C67.855,60.796 50.77,74.089 13.496,74.057C5.138,74.049 -4.273,78.422 2.675,73.71C11.586,67.667 16.444,79.777 127.715,23.948C191.389,-8 227.15,3.904 235.431,6.66C267.491,17.333 350.27,68.817 400.618,74.243Z"/>
            <path d="M421.481,120.005C419.208,121.384 419.295,121.242 416.5,121.658L415.5,121.642L414.5,121.689C413.834,122.15 413.169,122.612 412.503,123.073C324.935,123.474 279.532,94.83 256.516,94.998C237.153,95.138 235.805,87.167 176.439,107.364C174.416,108.052 136.831,120.113 123.494,119.978C121.651,119.959 121.743,120.907 100.549,121.995C98.223,122.114 34.698,125.375 71.519,119.911C179.678,103.86 186.358,56.543 267.475,69.936C293.195,74.183 337.324,105.744 404.477,116.92C405.841,117.147 416.964,118.998 421.481,120.005Z"/>
            <path d="M397.509,32.845C410.546,36.376 410.799,34.771 425.442,39.638C427.314,40.26 437.966,43.801 448.278,48.965C491.858,70.789 494.893,64.196 497.379,67.583C499.685,70.725 489.064,68.053 488.498,68.047C486.402,68.024 476.341,67.916 462.556,64.381C404.7,49.544 404.352,52.166 399.375,50.764C384.581,46.598 356.072,55.605 349.388,52.761C336.34,47.207 327.458,46.941 334.511,45.516C348.694,42.651 360.735,32.893 397.509,32.845Z"/>
            <path d="M421.481,120.005C421.849,119.999 445.965,120.654 425.414,122.374C418.852,122.923 419.059,123.041 412.503,123.073C413.169,122.612 413.834,122.15 414.5,121.689L415.5,121.642L416.5,121.658C419.295,121.242 419.208,121.384 421.481,120.005Z"/>
            <path d="M400.618,74.243C434.199,78.457 394.14,77.219 393.527,77.183C393.358,77.173 393.527,77.183 391.564,76.376C392.21,76.199 392.855,76.022 393.5,75.845C394.079,75.768 398.457,75.185 400.618,74.243Z"/>
        </g>
    </g>
</svg>
