<?xml version="1.0" encoding="UTF-8" standalone="no"?>
<!DOCTYPE svg PUBLIC "-//W3C//DTD SVG 1.1//EN" "http://www.w3.org/Graphics/SVG/1.1/DTD/svg11.dtd">
<svg width="100%" height="100%" viewBox="0 0 384 333" version="1.1" xmlns="http://www.w3.org/2000/svg" xmlns:xlink="http://www.w3.org/1999/xlink" xml:space="preserve" xmlns:serif="http://www.serif.com/" style="fill-rule:evenodd;clip-rule:evenodd;stroke-linejoin:round;stroke-miterlimit:2;">
    <g transform="matrix(1,0,0,1,72,61.5)">
        <g id="shoals" transform="matrix(0.598391,0,0,0.598391,27.970316,87.429984)">
            <path d="M217.507,35.844C224.913,37.962 231.28,38.011 232.491,38.02C239.394,38.073 260.341,45.168 262.73,51.384C271.456,74.084 203.24,76.37 203.11,90.497C203.084,93.433 214.513,99.68 215.628,100.29C259.725,124.391 146.997,156.718 87.565,132.355C66.131,123.568 96.66,126.484 105.208,117.239C107.154,115.134 108.472,109.495 73.4,100.737C2.344,82.995 70.521,62.566 74.522,61.933C99.798,57.937 167.602,35.815 217.507,35.844Z"/>
            <path d="M222.501,1.804C234.568,4.664 234.877,3.042 246.445,7.633C266.68,15.662 278.431,11.313 275.399,15.426C270.414,22.187 242.317,14.164 239.556,13.376C207.198,4.136 203.651,23.119 174.549,16.12C162.035,13.11 178.975,12.411 185.517,10.902C188.486,10.217 210.234,5.2 222.501,1.804Z"/>
            <path d="M122.356,175.776C112.115,174.569 103.161,170.984 101.565,170.346C72.762,158.815 72.011,173.914 44.446,171.978C38.931,171.591 34.048,166.817 40.522,166.857C60.688,166.981 59.703,161.648 79.567,158.911C91.002,157.336 91.062,158.123 107.438,164.644C126.73,172.326 137.764,169.107 140.645,170.215C149.798,173.736 134.149,175.319 133.443,175.39C127.823,173.985 127.731,173.621 122.356,175.776Z"/>
            <path d="M276.564,104.998C243.896,105.429 247.626,94.058 249.721,92.987C277.857,78.602 315.642,99.437 283.553,103.961C277.048,104.879 277.064,104.841 276.564,104.998Z"/>
            <path d="M213.556,166.994C183.045,166.963 183.415,161.644 184.259,159.374C187.442,150.812 235.274,153.274 225.306,163.316C223.457,165.18 216.567,166.058 213.556,166.994Z"/>
            <path d="M262.557,135.011C264.422,135.595 278.769,136.87 276.766,142.632C273.908,150.851 224.253,146.968 240.737,137.974C246.162,135.014 260.795,135.011 262.557,135.011Z"/>
            <path d="M31.5,117C35.234,117.016 34.985,117.205 38.437,117.915C71.403,124.697 32.523,132.822 18.395,127.75C-0.042,121.132 30.155,117.176 31.5,117Z"/>
            <path d="M27.516,35.009C35.739,35.684 36.122,33.616 52.434,40.65C54.421,41.506 72.55,43.6 64.636,45.787C57.479,47.765 44.1,43.316 42.396,42.75C24.483,36.793 -0.217,52.2 2.288,42.343C2.684,40.785 3.717,42.622 21.56,36.647C23.439,36.017 23.381,35.452 27.516,35.009Z"/>
            <path d="M104.487,24.003C104.9,24.051 115.575,25.607 117.051,27.751C124.174,38.097 74.833,36.472 82.726,28.706C90.481,21.077 91.997,24.802 104.487,24.003Z"/>
            <path d="M297.564,64.008C298.281,64.192 314.667,68.379 302.609,71.758C293.966,74.181 285.758,71.23 284.384,70.736C282.614,70.099 280.908,63.42 297.564,64.008Z"/>
            <path d="M122.356,175.776C127.731,173.621 127.823,173.985 133.443,175.39C129.746,176.855 129.735,176.097 122.356,175.776Z" style="fill-opacity:0.8;"/>
        </g>
    </g>
</svg>
