<?xml version="1.0" encoding="UTF-8" standalone="no"?>
<!DOCTYPE svg PUBLIC "-//W3C//DTD SVG 1.1//EN" "http://www.w3.org/Graphics/SVG/1.1/DTD/svg11.dtd">
<svg width="100%" height="100%" viewBox="0 0 384 333" version="1.1" xmlns="http://www.w3.org/2000/svg" xmlns:xlink="http://www.w3.org/1999/xlink" xml:space="preserve" xmlns:serif="http://www.serif.com/" style="fill-rule:evenodd;clip-rule:evenodd;stroke-linejoin:round;stroke-miterlimit:2;">
    <g transform="matrix(1,0,0,1,72,61.5)">
        <g id="shrub" transform="matrix(0.753893,0,0,0.572811,-1.245703,90.467564)">
            <path d="M71.474,141.035C71.839,140.939 72.231,140.981 72.596,140.885C78.599,139.312 65.895,124.892 78.574,120.679C89.178,117.156 92.699,131.004 93.196,125.437C93.598,120.936 93.169,121.008 94.007,116.459C96.408,103.438 109.187,104.445 112.723,114.409C115.444,122.074 113.633,122.343 114.067,122.873C115.359,124.453 115.495,122.843 119.744,118.78C120.948,117.629 136.459,106.771 132.209,135.453C132.16,135.786 132.203,137.249 136.409,135.284C137.155,134.935 145.608,133.683 147.667,138.415C150.765,145.533 140.574,150.798 143.615,152.144C162.38,160.451 120.74,166.815 125.126,161.342C136.75,146.838 119.774,163.015 118.457,162.939C113.786,162.672 129.374,136.68 120.573,147.584C110.831,159.653 114.244,161.363 113.306,162.279C108.751,166.73 109.447,132.659 105.697,138.602C104.835,139.968 109.57,171.977 103.32,161.617C102.876,160.882 99.529,155.335 95.534,154.226C90.478,152.824 95.986,155.905 98.678,160.397C101.933,165.831 90.79,162.311 90.721,162.243C90.44,161.969 71.111,145.093 86.054,160.725C89.361,164.184 73.319,163.659 66.389,161.934C63.973,161.332 65.354,158.585 66.43,158.371C76.779,156.309 63.005,155.881 61.3,152.622C56.346,143.155 60.774,141.438 71.474,141.035Z"/>
            <path d="M276.491,135.936C269.979,136.776 270.111,136.693 263.486,136.981C256.321,137.291 263.837,133.306 264.498,132.499C271.643,123.769 245.609,144.664 250.688,134.589C255.448,125.147 255.551,125.306 255.942,124.482C256.369,123.582 255.36,122.926 253.701,123.981C246.017,128.87 249.834,137.977 240.422,136.938C236.908,136.55 240.96,133.684 235.292,121.607C235.117,121.235 228.75,107.67 231.162,118.561C234.069,131.689 234.853,131.373 235.047,132.516C237.079,144.434 225.709,128.066 222.435,128.372C219.268,128.668 222.417,129.895 227.161,134.76C229.426,137.083 222.089,137.879 218.425,136.687C212.061,134.615 208.341,136.686 203.449,135.943C192.275,134.247 193.784,123.214 202.583,123.971C207.095,124.359 200.697,119.289 200.324,118.608C193.799,106.695 208.315,106.959 209.5,106.98C213.268,107.049 214.546,109.892 215.472,110.207C218.999,111.405 208.095,101.647 218.597,95.676C224.376,92.39 227.492,106.081 227.271,99.448C226.625,80.038 246.059,81.031 245.818,99.458C245.739,105.51 249.565,94.601 252.725,92.994C260.358,89.11 262.574,89.512 265.338,97.572C268.117,105.68 257.767,113.361 264.496,109.414C278.671,101.099 285.945,113.688 277.743,121.718C276.111,123.315 277.237,124.044 279.484,123.972C286.162,123.759 291.155,134.37 276.491,135.936Z"/>
            <path d="M41.003,58.5C41.058,57.854 41.344,54.509 42.674,50.574C45.192,43.127 56.904,43.014 55.618,65.474C55.21,72.611 59.494,56.718 66.531,55.999C75.802,55.052 69.356,73.147 68.853,74.556C67.573,78.151 75.261,71.175 75.726,70.753C84.586,62.714 85.802,76.976 81.114,81.264C73.88,87.881 87.883,79.437 91.299,82.711C95.42,86.661 85.545,91.516 84.733,91.915C80.802,93.848 86.784,94.271 87.262,94.728C91.42,98.706 76.486,98.971 75.484,98.989C73.619,99.023 72.248,99.25 73.349,97.488C75.26,94.43 69.856,97.541 69.596,97.692C59.369,103.58 68.362,91.429 68.132,90.647C67.372,88.061 60.017,98.52 59.601,98.697C54.352,100.94 55.017,88.915 52.021,80.74C51.689,79.836 48.734,79.793 50.216,83.633C51.527,87.031 50.822,88.267 51.068,91.562C51.105,92.057 52.063,94.214 52.079,94.523C52.642,105.223 44.797,93.442 42.317,91.879C42.16,91.78 35.469,88.737 40.588,93.42C50.87,102.828 35.708,97.727 35.594,97.77C29.556,100.014 29.422,99.504 22.556,98.095C15.896,96.727 21.232,94.245 22.444,94.243C27.715,94.234 21.607,91.74 21.4,91.656C18.564,90.498 10.882,83.303 16.542,82.995C25.18,82.526 34.829,88.299 28.001,82.941C27.119,82.249 20.464,77.026 19.925,71.485C18.885,60.801 38.214,81.646 34.499,74.501C32.732,71.102 33.213,70.982 31.652,67.429C28.238,59.66 37.339,58.512 40.238,63.88C44.516,71.802 40.841,61.115 41.003,58.5Z"/>
            <path d="M171.28,93.264C165.37,98.268 165.245,93.94 165.314,93.468C165.502,92.181 169.621,83.451 169.089,82.727C166.66,79.423 162.846,94.791 160.453,95.011C153.627,95.636 153.341,89.126 151.285,86.688C143.504,77.464 151.001,92.571 150.922,93.552C150.536,98.395 141.699,90.889 141.42,90.738C134.643,87.068 142.252,93.947 142.429,94.469C142.972,96.068 122.149,94.889 121.367,92.593C120.381,89.697 122.327,90.594 126.347,89.222C127.886,88.697 124.573,87.258 121.721,84.295C119.652,82.147 122.14,76.181 124.413,75.328C133.694,71.847 135.634,75.21 137.465,75.81C139.975,76.634 136.466,66.384 138.746,63.723C145.049,56.366 150.195,64.512 150.71,65.328C152.605,68.328 152.115,62.741 152.093,62.489C151.735,58.404 156.655,50.273 161.553,51.057C172.161,52.755 166.825,69.595 172.734,63.785C177.649,58.951 190.653,60.828 183.068,76.519C181.582,79.594 189.264,73.379 194.26,77.773C199.413,82.306 196.22,83.388 191.771,88.636C190.769,89.818 197.599,91.981 193.592,93.673C185.849,96.943 175.181,94.773 173.613,94.454C173.882,94.152 176.802,90.864 176.847,90.572C177.453,86.606 171.616,92.901 171.28,93.264Z"/>
            <path d="M248.035,30.805C247.116,33.428 246.025,34.592 247.552,34.119C247.552,34.119 249.518,32.027 249.689,31.845C250.31,31.277 255.523,26.51 259.589,28.289C271.562,33.524 257.787,45.777 263.487,44.414C264.022,44.286 267.864,43.367 270.239,45.758C276.094,51.651 264.147,56.685 266.047,57.869C274.649,63.228 252.775,63.193 251.539,63.191C248.933,63.187 252.862,62.036 252.677,59.437C252.411,55.707 248.894,63.784 245.355,62.958C242.201,62.223 252.971,46.459 246.581,52.613C243.682,55.404 240.358,62.211 240.293,62.276C237.186,65.344 236.99,51.72 236.958,51.432C236.907,50.968 236.326,45.733 236.265,45.637C233.16,40.787 234.307,61.768 233.533,62.533C231.874,64.173 224.473,56.023 224.391,55.991C219.788,54.199 225.87,60.473 226.154,60.766C227.766,62.429 224.473,64.022 220.413,62.713C216.087,61.317 206.983,63.091 203.767,59.276C199.973,54.775 213.233,55.634 208.921,53.064C202.845,49.442 203.443,42.248 204.749,40.719C209.128,35.59 210.192,38.389 216.463,40.833C219.313,41.944 214.443,31.325 218.729,27.77C222.951,24.268 223.41,26.801 227.61,30.281C229.129,31.539 230.528,18.421 236.451,18.088C246.826,17.505 245.843,25.971 248.035,30.805Z"/>
            <path d="M103.974,17.603C104.842,15.075 104.942,15.145 104.972,12.497C105.037,6.736 111.538,-0.68 115.253,2.779C126.517,13.268 116.913,26.816 122.659,20.783C129.851,13.233 135.533,15.399 136.655,17.401C139.946,23.274 135.982,27.273 134.693,30.548C133.614,33.289 139.269,30.677 140.605,31.261C151.143,35.872 135.483,43.302 136.349,44.577C136.644,45.01 137.401,44.963 137.687,45.401C138.237,46.241 138.182,48.47 125.388,47.936C121.156,47.759 128.947,43.472 128.143,41.64C127.119,39.306 121.3,47.354 120.573,47.652C113.19,50.677 120.554,35.643 120.088,34.644C117.653,29.426 114.587,47.455 112.443,48.011C106.626,49.521 106.202,43.132 103.478,41.537C99.992,39.497 102.791,42.907 104.639,46.467C105.544,48.21 101.698,48.083 87.498,48.03C83.348,48.014 83.875,44.853 85.411,44.354C92.063,42.192 80.545,41.8 80.099,35.546C79.446,26.368 90.608,31.129 91.498,31.509C95.099,33.045 91.887,30.125 90.674,26.43C85.032,9.245 98.828,11.674 102.578,19.427C102.701,19.637 105.695,24.753 105.419,20.493C105.402,20.235 105.312,20.279 103.974,17.603Z"/>
            <path d="M190.988,158.493C190.313,164.118 186.891,177.827 186.296,178.017C183.969,178.761 184.01,177.181 181.611,177.753C178.423,178.513 177.931,176.199 174.681,166.423C173.798,163.765 168.615,152.49 172.575,153.244C174.147,153.543 179.462,161.862 180.614,165.452C183.63,174.851 182.162,162.832 185.302,153.418C185.442,153 188.04,144.013 190.588,146.408C191.056,146.848 190.994,157.525 190.988,158.493Z"/>
            <path d="M157.67,120.301C157.848,120.685 157.222,121.159 157.401,121.543C157.532,121.826 159.544,121.755 159.557,121.515C159.59,120.944 158.446,120.753 158.478,120.182C158.443,119.867 159.148,119.79 159.113,119.475C158.814,116.817 156.962,116.6 159.688,111.598C162.44,106.547 168.344,113.061 165.131,120.337C164.278,122.268 165.146,123.914 163.471,124.029C150.107,124.943 151.644,116.366 154.553,117.299C157.225,118.156 157.595,120.167 157.67,120.301Z"/>
            <path d="M312.307,61.914C312.343,62.523 306.051,82.706 304.287,84.254C297.215,90.459 303.911,63.168 312.307,61.914Z"/>
            <path d="M294.034,76.493C293.599,70.304 292.96,70.51 291.916,64.479C289.602,51.115 302.11,72.473 298.618,83.564C296.127,91.472 294.127,77.161 294.034,76.493Z"/>
            <path d="M193.256,176.178C187.075,181.895 188.758,168.144 196.715,160.742C207.464,150.743 193.338,175.978 193.256,176.178Z"/>
            <path d="M14.519,136.492C11.956,125.177 6.475,113.078 14.268,121.713C18.164,126.031 20.984,143.993 15.484,138.521C15.356,138.394 15.412,138.37 14.519,136.492Z"/>
            <path d="M25.977,131.49C24.403,140.458 21.945,138.997 21.493,138.507C17.759,134.461 26.901,114.318 29.07,120.658C29.208,121.063 27.08,125.066 25.977,131.49Z"/>
            <path d="M174.411,37.612C174.339,36.27 173.588,22.409 178.422,21.301C181.949,20.493 179.18,22.989 178.994,26.54C178.908,28.195 179.225,29.864 179.04,31.511C178.856,33.148 178.099,32.83 177.879,34.533C177.505,37.423 177.301,38.058 174.411,37.612Z"/>
            <path d="M237.497,166.979C228.855,165.893 233.426,159.407 239.551,160.057C241.718,160.287 249.005,165.937 237.497,166.979Z"/>
            <path d="M301.952,114.834C302.428,113.756 304.675,105.697 308.403,104.173C312.054,102.681 307.458,110.76 307.075,113.446C306.27,119.09 303.268,121.768 302.529,117.481C302.297,116.133 302.382,116.191 301.952,114.834Z"/>
            <path d="M265.04,161.503C265.141,160.606 265.63,156.223 270.644,151.702C275.611,147.222 266.767,177.38 265.04,161.503Z"/>
            <path d="M281.715,72.947C294.488,74.773 293.093,88.144 289.441,84.57C288.832,83.975 289.154,83.755 282.686,76.342C281.479,74.959 281.915,74.873 281.715,72.947Z"/>
            <path d="M311.244,78.246C318.068,72.554 320.547,75.94 319.25,77.297C311.399,85.51 310.502,85.191 309.4,84.936C306.092,84.171 310.801,78.92 311.244,78.246Z"/>
            <path d="M166.546,168.071C178.433,173.321 174.491,176.738 173.603,176.912C170.837,177.455 160.044,168.555 164.353,168.06C165.079,167.977 165.82,168.154 166.546,168.071Z"/>
            <path d="M42.501,164.972C30.856,163.571 43.7,156.095 47.288,159.71C51.843,164.3 43.068,164.931 42.501,164.972Z"/>
            <path d="M107.402,177.04C112.824,175.156 116.707,177.27 115.685,179.587C112.948,185.791 99.963,180.256 107.402,177.04Z"/>
            <path d="M172.376,37.308C170.371,38.086 169.928,39.032 168.971,37.212C164.758,29.196 164.556,29.318 164.246,28.596C163.222,26.206 170.374,23.719 172.376,37.308Z"/>
            <path d="M13.159,138.159C10.822,139.381 10.496,139.05 3.709,134.268C-2.395,129.968 9.395,130.492 11.619,135.426C12.314,136.969 12.377,136.771 13.159,138.159Z"/>
            <path d="M315.513,113.034C320.634,114.087 316.135,115.846 312.295,119.267C309.303,121.933 307.202,117.32 310.724,114.757C312.869,113.197 312.922,113.372 315.513,113.034Z"/>
            <path d="M33.744,134.749C33.378,135.095 25.694,142.383 27.72,136.585C27.952,135.921 29.958,130.176 34.457,130.936C34.763,130.988 36.903,131.349 33.744,134.749Z"/>
            <path d="M195.34,176.7C196.389,172.01 201.479,170.948 202.554,170.689C207.127,169.59 203.453,177.591 195.34,176.7Z"/>
            <path d="M184.756,34.751C177.35,41.703 181.266,31.92 182.382,31.306C182.726,31.117 189.701,27.282 187.294,31.365C186.492,32.726 184.976,34.494 184.756,34.751Z"/>
            <path d="M260.749,160.258C264.348,164.676 261.789,167.661 259.76,165.268C259.413,164.859 257.476,162.574 256.186,159.599C256.039,159.261 256.454,156.29 260.749,160.258Z"/>
            <path d="M276.461,160.037C282.93,161.135 272.114,167.645 271.984,164.473C271.864,161.552 275.982,160.195 276.461,160.037Z"/>
            <path d="M300.569,117.507C299.616,123.98 295.916,113.77 295.935,113.524C295.972,113.036 298.445,110.316 300.569,117.507Z"/>
            <path d="M166.355,123.706C166.508,123.234 167.925,118.874 169.4,118.295C170.88,117.714 172.594,118.47 171.696,120.591C169.927,124.77 166.829,123.848 166.355,123.706Z"/>
            <path d="M211.553,78.057C217.797,80.495 209.093,83.864 208.317,80.567C207.711,77.993 208.905,78.386 211.553,78.057Z" style="fill-opacity:1;"/>
            <path d="M111.681,65.592C108.104,69.193 107.463,64.2 109.407,63.32C111.425,62.405 111.552,63.369 111.681,65.592Z" style="fill-opacity:1;"/>
            <path d="M56.708,113.42C55.568,118.521 52.435,114.071 53.736,112.727C55.12,111.298 55.355,112.047 56.708,113.42Z" style="fill-opacity:1;"/>
            <path d="M103.974,17.603C105.312,20.279 105.402,20.235 105.419,20.493C105.695,24.753 102.701,19.637 102.578,19.427C103.043,18.819 103.509,18.211 103.974,17.603Z" style="fill-opacity:0.18;"/>
            <path d="M248.035,30.805C248.586,31.152 249.138,31.499 249.689,31.845C249.518,32.027 247.552,34.119 247.552,34.119C246.025,34.592 247.116,33.428 248.035,30.805Z" style="fill-opacity:0.45;"/>
            <path d="M157.67,120.301L158.478,120.182C158.446,120.753 159.59,120.944 159.557,121.515C159.544,121.755 157.532,121.826 157.401,121.543C157.222,121.159 157.848,120.685 157.67,120.301Z"/>
        </g>
    </g>
</svg>
