<?xml version="1.0" encoding="UTF-8" standalone="no"?>
<!DOCTYPE svg PUBLIC "-//W3C//DTD SVG 1.1//EN" "http://www.w3.org/Graphics/SVG/1.1/DTD/svg11.dtd">
<svg width="100%" height="100%" viewBox="0 0 384 333" version="1.1" xmlns="http://www.w3.org/2000/svg" xmlns:xlink="http://www.w3.org/1999/xlink" xml:space="preserve" xmlns:serif="http://www.serif.com/" style="fill-rule:evenodd;clip-rule:evenodd;stroke-linejoin:round;stroke-miterlimit:2;">
    <g transform="matrix(1,0,0,1,72,61.5)">
        <g id="volcano" transform="matrix(0.659349,0,0,0.904178,-8.380745,46.661475)">
            <path d="M154.596,49.196C151.956,52.659 152.353,52.888 124.792,94.747C118.078,104.944 117.8,104.473 117.342,105.407C111.462,117.406 109.593,115.751 97.619,121.733C90.224,125.427 9.285,165.859 2.587,162.31C-0.967,160.428 5.461,161.748 41.655,130.676C90.864,88.431 92.384,89.499 124.193,42.237C142.793,14.601 138.608,6.477 166.563,2.915C224.85,-4.51 230.465,19.7 232.809,23.229C268.368,76.769 273.667,75.015 283.767,85.238C339.093,141.24 385.221,156.767 384.864,161.634C384.796,162.56 330.665,151.838 323.556,150.101C283.717,140.367 285.086,136.115 281.548,135.843C278.344,135.596 281.445,137.931 307.511,166.492C310.587,169.863 301.03,166.156 300.554,166.089C276.44,162.699 200.922,135.744 192.394,132.7C190.175,131.908 183.348,109.046 182.487,108.561C180.72,107.565 174.303,126.024 173.753,127.607C169.628,139.472 111.983,166.272 110.514,166.996C100.327,172.013 140.095,127.836 140.859,104.488C141.099,97.155 153.787,54.763 155.334,50.522C157.028,47.423 155.743,47.479 155.5,47.489C155.5,47.489 154.669,49.06 154.596,49.196ZM262.658,113.703C259.66,111.611 259.987,111.249 227.745,84.212C224.138,81.187 223.453,81.249 202.701,27.394C202.045,25.691 153.927,29.839 149.829,19.383C145.499,8.336 184.338,19.457 199.624,14.772C212.689,10.767 221.849,18.432 216.364,21.239C208.097,25.469 208.118,25.026 207.459,25.458C205.815,26.536 207.148,27.054 219.261,51.62C240.504,94.702 260.315,105.053 263.091,113.254L262.658,113.703Z"/>
            <path d="M154.596,49.196C154.669,49.06 155.5,47.489 155.5,47.489C155.743,47.479 157.028,47.423 155.334,50.522C155.088,50.08 154.842,49.638 154.596,49.196Z" style="fill-opacity:0.94;"/>
            <path d="M262.658,113.703L263.091,113.254C264.665,114.256 266.122,114.51 264.463,115.364C264.289,115.454 264.463,115.364 262.658,113.703Z" style="fill-opacity:0.99;"/>
        </g>
    </g>
</svg>
