<?xml version="1.0" encoding="UTF-8" standalone="no"?>
<!DOCTYPE svg PUBLIC "-//W3C//DTD SVG 1.1//EN" "http://www.w3.org/Graphics/SVG/1.1/DTD/svg11.dtd">
<svg width="100%" height="100%" viewBox="0 0 384 333" version="1.1" xmlns="http://www.w3.org/2000/svg" xmlns:xlink="http://www.w3.org/1999/xlink" xml:space="preserve" xmlns:serif="http://www.serif.com/" style="fill-rule:evenodd;clip-rule:evenodd;stroke-linejoin:round;stroke-miterlimit:2;">
    <g transform="matrix(1,0,0,1,72,61.5)">
        <g id="water_rocks" transform="matrix(0.757098,0,0,0.757098,-1.514196,32.397354)">
            <path d="M159.745,70.511C159.671,70.703 156.203,81.723 160.958,72.777C163.179,67.655 165.709,63.958 166.2,63.24C175.419,49.768 173.438,43.955 174.236,41.376C178.289,28.28 172.704,19.189 169.25,16.795C163.728,12.967 166.869,11.673 169.987,5.733C173.004,-0.014 176.064,3.323 183.511,3.921C198.492,5.123 202.629,48.896 215.567,45.92C241.807,39.884 228.706,65.81 245.274,76.967C261.83,88.117 233.972,81.04 221.286,88.034C211.945,93.185 203.943,93.137 203.662,93.025C182.77,84.681 171.1,100.387 150.724,89.027C133.06,79.18 131.352,86.701 123.396,83.754C107.706,77.942 106.676,80.011 106.287,78.636C104.896,73.723 135.392,75.411 117.371,68.763C113.096,67.186 120.555,53.895 131.52,51.867C144.853,49.402 133.405,32.99 157.721,20.986C164.801,17.49 164.988,20.085 170.295,25.677C171.848,27.315 169.67,50.266 169.041,51.267C163.293,60.416 162.898,60.141 159.745,70.511Z"/>
            <path d="M198.746,171.329C198.756,171.468 200.746,179.32 200.309,172.11C202.658,170.224 219.984,174.183 225.272,180.703C229.004,185.303 226.958,189.157 243.439,191.904C260.846,194.804 276.809,185.838 269.27,193.282C267.397,195.131 249.186,202.985 229.518,199.068C207.474,194.678 207.132,208.084 185.563,201.353C164.507,194.783 162.915,204.447 142.556,196.368C133.574,192.804 133.893,192.363 124.528,191.089C121.131,190.626 131.765,174.325 133.719,172.741C142.014,166.015 141.105,165.383 145.927,155.696C152.94,141.607 155.346,143.673 170.395,139.256C172.113,138.752 174.602,138.021 188.294,152.678C190.776,155.336 190.345,155.485 198.746,171.329Z"/>
            <path d="M82.46,109.108C79.698,110.338 60.218,119.011 44.707,111.036C34.772,105.928 34.03,108.809 23.38,105.72C18.857,104.408 35.77,73.173 43.598,77.29C58.316,85.029 56.172,88.995 57.378,88.265C63.509,84.553 45.027,74.073 46.218,70.383C49.842,59.157 50.769,57.676 62.543,58.053C64.361,58.111 64.32,58.382 81.763,70.196C94.241,78.646 83.389,90.896 103.621,102.309C110.517,106.2 94.358,107.247 90.331,109.011C87.189,107.239 87.107,108.059 83.5,107.798L82.613,108.5L82.46,109.108Z"/>
            <path d="M272.445,132.993C268.984,131.906 269.045,132.627 265.611,133.761C242.894,141.26 229.907,129.469 225.553,129.136C212.399,128.13 228.846,123.386 229.387,123.23C245.213,118.666 238.834,105.147 250.525,104.97C260.301,104.822 260.599,91.626 268.252,95.976C286.447,106.319 281.239,117.029 295.258,124.975C309.163,132.856 274.38,132.985 272.445,132.993Z"/>
            <path d="M107.501,122.16C90.941,123.697 91.789,126.918 75.444,130.09C41.562,136.664 42.878,120.859 8.498,120.126C-8.533,119.763 13.801,108.368 31.596,116.269C73.282,134.779 74.866,113.499 112.514,114.934C118.491,115.162 133.409,122.526 124.466,123.027C115.822,123.512 116.053,122.1 107.501,122.16Z"/>
            <path d="M227.512,144.995L226.5,144.113L225.5,143.928C222.833,143.934 220.167,143.939 217.5,143.945L216.5,143.979L215.5,143.992L214.5,143.997L213.5,143.97L212.5,143.924L211.5,143.859C210.887,144.243 210.273,144.627 209.66,145.01C209.245,144.835 202.908,142.163 205.761,140.942C230.834,130.206 247.986,150.929 271.552,144.902C274.385,144.178 294.005,131.738 318.196,146.921C319.188,147.544 318.024,150.237 303.559,147.087C286.887,143.457 265.703,162.443 238.712,149.051C233.315,146.373 233.608,145.738 227.512,144.995Z"/>
            <path d="M37.499,164.856C63.417,165.06 68.564,148.958 85.601,156.263C100.98,162.857 100.872,163.522 117.46,163.946C124.779,164.133 113.447,169.039 109.506,169.072C86.098,169.268 87.099,160.859 75.547,162.999C67.728,164.447 50.802,177.015 29.565,170.348C28.9,170.139 15.009,165.779 23.399,164.207C24.509,163.999 24.476,164.926 37.499,164.856Z"/>
            <path d="M189.503,106.148C184.818,106.089 184.84,106.002 184.443,106.085C162.172,110.75 161.574,110.476 140.567,101.344C134.543,98.725 122.099,99.171 125.677,95.669C131.735,89.74 151.399,98.705 153.441,99.636C170.252,107.301 179.475,93.509 206.623,104.272C217.315,108.511 198.3,106.082 189.503,106.148Z"/>
            <path d="M147.483,207C152.128,208.067 167.567,207.5 163.243,210.085C151.04,217.38 131.104,208.488 128.562,207.355C117.178,202.278 92.451,204.207 100.733,199.978C116.847,191.751 133.348,203.838 147.483,207Z"/>
            <path d="M292.498,60.172C283.189,58.295 283.211,58.443 274.568,54.342C274.193,54.165 248.354,63.493 248.461,56.499C248.505,53.612 254.576,56.961 263.589,51.646C274.32,45.316 275.085,47.686 286.441,52.63C295.335,56.502 319.423,47.027 303.263,57.026C302.064,57.767 302.029,57.592 292.498,60.172Z"/>
            <path d="M227.512,144.995C218.55,145.075 218.726,145.15 209.66,145.01C210.273,144.627 210.887,144.243 211.5,143.859L212.5,143.924L213.5,143.97L214.5,143.997L215.5,143.992L216.5,143.979L217.5,143.945C220.167,143.939 222.833,143.934 225.5,143.928L226.5,144.113L227.512,144.995Z"/>
            <path d="M159.745,70.511C160.149,71.267 160.553,72.022 160.958,72.777C156.203,81.723 159.671,70.703 159.745,70.511Z" style="fill-opacity:0.33;"/>
            <path d="M82.46,109.108L82.613,108.5L83.5,107.798C87.107,108.059 87.189,107.239 90.331,109.011C87.707,109.043 85.084,109.075 82.46,109.108Z" style="fill-opacity:0.78;"/>
            <path d="M198.746,171.329L200.309,172.11C200.746,179.32 198.756,171.468 198.746,171.329Z" style="fill-opacity:0.62;"/>
        </g>
    </g>
</svg>
