<?xml version="1.0" encoding="UTF-8" standalone="no"?>
<!DOCTYPE svg PUBLIC "-//W3C//DTD SVG 1.1//EN" "http://www.w3.org/Graphics/SVG/1.1/DTD/svg11.dtd">
<svg width="100%" height="100%" viewBox="0 0 384 333" version="1.1" xmlns="http://www.w3.org/2000/svg" xmlns:xlink="http://www.w3.org/1999/xlink" xml:space="preserve" xmlns:serif="http://www.serif.com/" style="fill-rule:evenodd;clip-rule:evenodd;stroke-linejoin:round;stroke-miterlimit:2;">
    <g transform="matrix(1,0,0,1,72,61.5)">
        <g id="waves" transform="matrix(0.515021,0,0,0.697218,-1.030043,17.76047)">
            <path d="M403.501,154.82C407.315,155.204 407.58,154.183 410.326,156.689C421.844,167.204 457.001,173.038 457.496,173.029C494.192,172.371 436.046,180.163 435.506,180.163C418.798,180.17 418.938,178.944 417.494,178.961C382.236,179.368 384.413,169.57 381.496,170.106C351.268,175.666 330.072,155.004 322.215,143.742C317.054,136.345 286.946,166.792 277.71,158.265C273.055,153.967 272.418,156.291 266.605,158.755C254.806,163.757 212.957,154.804 225.533,154.797C235.192,154.793 234.924,152.871 244.516,153.01C246.199,153.034 294.538,139.402 284.393,137.679C280.018,136.935 267.497,132.857 264.72,131.054C251.835,122.688 231.47,120.543 244.527,120.796C260.287,121.102 260.346,117.752 261.342,118.671C264.865,121.919 273.196,127.479 276.446,127.894C296.028,130.396 297.778,135.196 313.247,123.21C330.498,109.844 330.981,123.01 349.628,134.283C377.601,151.194 377.321,153.534 403.501,154.82Z"/>
            <path d="M252.498,242.183C240.944,239.007 240.612,240.692 229.564,236.346C216.661,231.27 204.53,218.281 202.7,216.322C199.284,212.664 194.399,218.802 188.606,220.759C181.646,223.11 181.953,224.17 174.503,224.122C172.041,224.106 173.612,230.912 144.502,230.986C135.858,231.008 136.05,231.188 127.567,230.079C108.182,227.547 84.19,226.945 103.552,224.787C182.961,215.937 199.147,175.998 212.332,188.69C246.056,221.152 277.24,224.999 280.487,225.001C300.438,225.013 298.097,233.103 317.475,237.908C335.985,242.498 338.013,242.724 347.477,242.775C358.725,242.835 334.32,248.03 331.508,248.125C304.166,249.048 303.583,250.51 278.532,239.4C276.617,238.55 276.65,241.086 252.498,242.183Z"/>
            <path d="M6.558,121.591C8.522,120.838 8.353,120.84 8.522,120.838C33.232,120.548 72.626,101.488 88.234,89.202C105.784,75.387 106.299,94.241 137.621,110.263C178.35,131.097 184.256,115.083 189.308,119.728C214.591,142.974 257.22,133.425 234.368,138.085C202.028,144.68 190.958,134.141 190.731,134.017C183.084,129.833 182.853,136.85 174.604,140.702C168.42,143.591 152.558,142.26 151.445,141.985C139.105,138.937 136.611,136.41 134.55,136.113C125.738,134.844 106.64,127.622 97.209,113.751C89.08,101.796 78.095,118.981 64.606,124.746C53.788,129.37 45.874,125.023 45.459,125.119C26.555,129.462 26.083,126.196 5.429,123.606L6.558,121.591Z"/>
            <path d="M246.36,96.781C219.611,92.43 212.831,78.545 208.233,74.888C206.574,73.569 179.897,90.688 160.526,89.166C158.67,89.02 140.623,87.602 137.37,86.781C128.472,84.535 128.247,85.763 127.569,85.353C113.854,77.07 149.244,95.194 200.687,56.71C216.662,44.76 217.991,56.25 229.768,65.192C258.589,87.074 274.95,80.929 281.424,84.627C284.529,86.4 303.922,97.478 324.498,96.53C339.588,95.835 299.006,106.217 278.391,97.752C267.866,93.43 267.648,94.92 256.445,96.391C256.421,96.381 251.896,95.712 251.5,95.654C248.787,96.105 248.946,96.126 246.36,96.781Z"/>
            <path d="M321.502,46.82C323.366,46.444 332.2,44.659 343.232,37.192C359.383,26.261 361.988,19.686 376.335,32.681C379.176,35.254 387.019,42.357 421.458,48.801C438.098,51.915 414.196,52.158 413.505,52.166C396.674,52.337 396.871,49.795 395.456,50.125C378.89,53.989 370.445,45.41 363.546,41.403C361.629,40.289 349.428,43.871 348.791,44.785C344.732,50.61 344.522,50.422 331.639,56.78C311.053,66.941 310.155,61.148 287.624,58.11C281.146,57.236 289.64,54.879 290.519,54.853C304.81,54.434 309.24,47.253 321.502,46.82Z"/>
            <path d="M407.501,205.166C373.851,205.171 374.285,200.524 371.437,201.088C362.955,202.769 363.055,201.702 354.453,200.96C343.318,200 326.765,186.263 326.455,186.352C318.006,188.758 318.223,189.033 317.478,189.128C312.767,189.73 291.119,187.641 299.635,185.937C315.696,182.724 315.044,181.361 329.408,173.313C334.21,170.623 346.518,195.719 379.523,190.872C385.903,189.935 385.311,198.057 418.428,201.609C434.757,203.361 414.701,203.218 407.501,205.166Z"/>
            <path d="M175.499,25.188C174.144,24.815 147.312,21.423 165.52,20.85C193.157,19.98 216.25,-0.76 223.28,2.948C229.863,6.42 228.942,7.753 239.3,12.934C260.041,23.309 290.586,21.138 267.45,24.199C221.772,30.243 219.494,7.506 210.761,15.801C202.769,23.393 199.522,24.181 175.499,25.188Z"/>
            <path d="M75.5,40.827C93.549,38.059 92.976,22.886 108.26,32.995C135.872,51.257 140.055,45.947 152.378,48.879C166.604,52.264 147.948,52.158 147.476,52.155C124.095,52.022 123.497,53.767 102.372,43.76C98.543,41.947 84.742,50.768 79.39,48.76C73.04,46.379 71.859,50.724 68.486,51.078C66.582,51.277 49.143,53.104 44.572,50.349C42.355,49.012 45.553,49.134 75.5,40.827Z"/>
            <path d="M449.434,110.611L450.573,112.602C434.163,117.159 409.81,106.822 406.524,105.427C405.947,105.182 393.802,110.415 390.5,110.13C385.871,109.73 386.045,110.498 381.456,111.154C379.89,111.378 365.916,113.377 361.675,111.078C350.669,105.112 369.587,114.091 400.721,95.955C411.443,89.709 413.977,104.088 449.434,110.611Z"/>
            <path d="M112.559,181.418L111.432,183.392C100.738,184.023 94.78,186.538 76.559,178.351C71.801,176.213 69.845,184.114 57.534,181.385C55.589,180.955 55.983,187.454 32.694,183.012C18.392,180.284 39.924,185.239 68.587,169.639C72.226,167.659 72.935,164.19 84.274,170.976C97.476,178.877 97.284,179.449 112.559,181.418Z"/>
            <path d="M152.427,153.616L153.56,155.582C138.315,159.831 118.17,148.804 100.517,149.196C93.739,149.347 105.975,144.81 106.543,144.6C120.709,139.347 120.255,150.86 134.567,148.926C141.979,147.925 141.214,151.604 152.427,153.616Z"/>
            <path d="M171.503,248.168C169.656,248.088 152.876,247.354 148.564,245.367C143.597,243.079 155.855,242.868 156.523,242.857C157.408,242.842 162.092,242.761 167.551,241.876C172.85,241.018 182.637,235.867 186.612,237.224C199.944,241.775 200.611,239.563 201.202,240.605C203.267,244.244 174.636,247.314 171.503,248.168Z"/>
            <path d="M295.563,38.989C294.798,39.006 246.496,35.605 287.488,33.862C302.352,33.23 301.776,22.783 315.444,28.637C317.847,29.666 335.382,31.91 320.436,34.086C313.722,35.063 313.323,31.647 307.287,35.059C306.426,35.546 302.94,37.516 295.563,38.989Z"/>
            <path d="M211.499,102.172C195.343,98.721 174.534,103.243 190.529,98.563C202.74,94.989 202.347,94.537 203.392,94.244C210.364,92.29 209.302,96.573 216.368,98.897C219.987,100.087 211.955,102.06 211.499,102.172Z"/>
            <path d="M384.511,64.151C381.01,63.777 379.203,65.936 368.561,61.356C366.738,60.572 357.923,63.382 361.283,60.342C369.198,53.183 370.474,57.97 386.448,61.588C391.262,62.678 384.762,64.096 384.511,64.151Z"/>
            <path d="M210.489,170.992C209.395,170.951 186.492,170.093 197.537,166.582C207.859,163.301 207.702,167.635 213.445,167.878C226.878,168.448 210.828,170.939 210.489,170.992Z"/>
            <path d="M188.495,145.13C180.124,143.196 169.983,141.264 178.505,141.559C192.781,142.051 210.636,141.587 196.461,144.203C192.429,144.947 192.601,144.652 188.495,145.13Z"/>
            <path d="M68.506,139.192C64.52,138.702 60.253,139.813 63.647,137.687C69.315,134.136 76.329,134.739 77.452,134.835C90.433,135.952 70.032,138.811 68.506,139.192Z"/>
            <path d="M246.36,96.781C248.946,96.126 248.787,96.105 251.5,95.654C251.896,95.712 256.421,96.381 256.445,96.391C251.703,98.262 246.506,96.788 246.36,96.781Z" style="fill-opacity:0.81;"/>
            <path d="M6.558,121.591L5.429,123.606C5.143,123.517 1.859,122.5 1.859,122.5C1.859,121.633 6.175,121.595 6.558,121.591Z" style="fill-opacity:0.86;"/>
            <path d="M152.427,153.616C152.777,153.617 162.035,153.664 156.437,155.364C155.517,155.644 154.481,155.302 153.56,155.582L152.427,153.616Z" style="fill-opacity:0.87;"/>
            <path d="M112.559,181.418C112.844,181.505 116.114,182.5 116.114,182.5C116.114,183.354 111.813,183.389 111.432,183.392L112.559,181.418Z" style="fill-opacity:0.87;"/>
            <path d="M449.434,110.611C449.816,110.613 454.129,110.635 454.128,111.5C454.128,111.5 450.858,112.514 450.573,112.602L449.434,110.611Z" style="fill-opacity:0.86;"/>
        </g>
    </g>
</svg>
