<?xml version="1.0" encoding="UTF-8" standalone="no"?>
<!DOCTYPE svg PUBLIC "-//W3C//DTD SVG 1.1//EN" "http://www.w3.org/Graphics/SVG/1.1/DTD/svg11.dtd">
<svg width="100%" height="100%" viewBox="0 0 384 333" version="1.1" xmlns="http://www.w3.org/2000/svg" xmlns:xlink="http://www.w3.org/1999/xlink" xml:space="preserve" xmlns:serif="http://www.serif.com/" style="fill-rule:evenodd;clip-rule:evenodd;stroke-linejoin:round;stroke-miterlimit:2;">
    <g transform="matrix(1,0,0,1,72,61.5)">
        <g id="whirlpool" transform="matrix(0.864134,0,0,0.864134,-2.82152,22.226698)">
            <path d="M173.485,22.999C162.309,24.539 162.383,23.878 161.438,24.084C143.56,27.99 96.427,37.752 87.103,77.507L86.073,78.5C85.88,83.223 84.926,83.317 87.008,87.505C87.264,89.532 87.042,89.355 87.511,91.492C89.347,99.858 89.414,86.688 89.959,84.528C102.159,36.251 211.882,15.513 252.02,75.73C261.913,90.572 261.64,114.362 257.224,101.625C241.661,56.735 182.329,47.848 151.861,56.998C151.742,57.123 149.297,60.32 153.52,58.373C185.891,55.249 208.805,72.263 212.761,75.2C268.621,116.676 212.522,192.76 126.66,189.15C114.272,188.629 129.631,187.718 141.563,184.635C216.869,165.173 216.429,118.309 214.895,112.445C200.817,58.605 128.004,71.957 117.794,86.749C91.211,125.262 163.854,131.321 164.861,111.547C165.849,92.142 138.621,100.754 144.788,105.193C155.775,113.101 135.353,111.796 132.679,109.302C109.357,87.549 171.334,72.864 190.318,96.657C215.31,127.978 171.218,161.562 132.551,167.976C72.736,177.897 32.33,148.041 25.238,142.801C-12.282,115.076 6.001,78.487 6.164,90.519C6.473,113.48 27.56,130.273 30.632,132.277C77.248,162.677 102.366,155.534 121.444,154.012C140.142,152.521 164.204,137.337 152.531,141.653C107.38,158.346 25.599,137.048 31.882,75.557C36.348,31.852 110.511,11.706 85.275,26.025C34.183,55.017 34.918,113.967 100.474,129.217C100.674,129.28 111.817,131.361 102.491,127.544C54.152,108.073 57.952,59.315 102.579,32.63C135.057,13.209 169.388,14.092 171.568,13.913C230.157,9.09 260.886,42.736 260.117,44.345C256.916,51.036 254.402,28.964 195.493,23.063C194.828,22.73 194.164,22.396 193.5,22.063C185.847,21.887 186.009,21.858 178.5,21.773L177.5,21.788L176.5,21.822L175.5,21.886L174.5,21.97L173.485,22.999Z"/>
            <path d="M251.786,141.357C252.706,148.911 244.477,186.051 197.595,197.729C196.603,197.976 178.906,202.384 184.816,197.925C186.725,196.485 186.807,197.053 211.587,184.645C222.926,178.967 237.312,160.639 239.199,158.234C249.467,145.153 249.667,122.866 251.103,139.566C251.158,140.202 251.731,140.72 251.786,141.357Z"/>
            <path d="M87.443,2.003C104.283,2.088 104.831,1.621 105.049,2.624C105.642,5.356 94.241,5.866 93.446,6.085C52.479,17.336 34.898,39.774 34.589,39.829C30.433,40.573 35.844,32.747 36.197,32.236C54.513,5.744 74.208,6.176 87.443,2.003Z"/>
            <path d="M71.495,188.153C53.411,183.362 51.549,188.756 24.712,173.044C20.499,170.578 3.802,152.125 18.266,161.977C56.436,187.975 104.211,182.914 89.458,187.424C88.083,187.844 87.109,188.142 71.495,188.153Z"/>
            <path d="M281.178,92.5C278.265,101.692 278.753,88.038 263.687,71.333C256.081,62.899 266.506,69.028 266.755,69.194C279.016,77.333 279.079,84.682 281.178,92.5Z"/>
            <path d="M116.446,202.016C117.405,202.018 126.326,202.04 128.313,203.71C136.581,210.663 116.596,210.021 115.452,209.984C114.81,209.964 102.401,206.936 116.446,202.016Z"/>
            <path d="M263.004,121.433C264.205,116.771 264.184,116.797 264.301,116.398C264.572,115.481 272.694,109.045 271.989,125.554C271.956,126.345 266.191,136.937 263.004,121.433Z"/>
            <path d="M8.009,65.572C8.077,64.605 8.555,57.834 14.415,55.284C23.557,51.306 13.499,78.988 8.009,65.572Z"/>
            <path d="M125.441,4.004C125.953,4.061 131.465,4.676 130.775,7.611C130.716,7.861 126.587,11.458 120.44,10.954C107.186,9.867 124.789,4.213 125.441,4.004Z"/>
            <path d="M173.485,22.999L174.5,21.97L175.5,21.886L176.5,21.822L177.5,21.788L178.5,21.773C186.009,21.858 185.847,21.887 193.5,22.063C194.164,22.396 194.828,22.73 195.493,23.063C188.157,23.042 180.821,23.021 173.485,22.999Z"/>
            <path d="M87.103,77.507C87.071,80.84 87.04,84.172 87.008,87.505C84.926,83.317 85.88,83.223 86.073,78.5L87.103,77.507Z" style="fill-opacity:0.77;"/>
            <path d="M102.491,127.544C111.817,131.361 100.674,129.28 100.474,129.217C101.146,128.659 101.819,128.101 102.491,127.544Z" style="fill-opacity:0.22;"/>
            <path d="M151.861,56.998C152.486,57.946 152.503,57.726 153.52,58.373C149.297,60.32 151.742,57.123 151.861,56.998Z" style="fill-opacity:0.93;"/>
        </g>
    </g>
</svg>
