<?xml version="1.0" encoding="UTF-8" standalone="no"?>
<!DOCTYPE svg PUBLIC "-//W3C//DTD SVG 1.1//EN" "http://www.w3.org/Graphics/SVG/1.1/DTD/svg11.dtd">
<svg width="100%" height="100%" viewBox="0 0 384 333" version="1.1" xmlns="http://www.w3.org/2000/svg" xmlns:xlink="http://www.w3.org/1999/xlink" xml:space="preserve" xmlns:serif="http://www.serif.com/" style="fill-rule:evenodd;clip-rule:evenodd;stroke-linejoin:round;stroke-miterlimit:2;">
    <g transform="matrix(1,0,0,1,72,61.5)">
        <g id="woods_con" transform="matrix(0.774194,0,0,0.694814,-1.548387,12.242343)">
            <path d="M75.761,34.112C75.25,34.098 69.657,33.935 69.397,33.583C68.694,32.635 79.807,18.08 82.008,5.454C84.066,-6.344 86.743,11.678 91.31,22.579C93.597,28.039 94.877,27.79 95.696,29.383C99.104,36.014 92.122,33.173 91.235,34.106C90.074,35.327 91.878,37.465 92.055,38.524C93.626,47.914 104.007,58.316 103.926,59.538C103.814,61.224 97.009,62.002 96.376,62.074C95.156,62.214 93.489,63.466 101.329,76.603C105.834,84.152 115.037,89.593 108.482,90.062C98.72,90.761 98.76,90.507 89.454,87.689C85.305,86.432 88.821,107.834 89.105,109.56C89.534,112.17 92.57,111.975 93.266,112.705C95.911,115.477 88.603,115.132 75.499,115.079C67.531,115.046 76.288,111.709 76.56,111.605C79.011,110.671 78.874,99.56 78.861,98.496C78.739,88.53 81.134,85.914 78.447,87.155C64.979,93.375 57.109,88.814 56.778,88.301C56,87.091 61.725,81.789 63.318,79.39C72.455,65.625 70.886,64.71 71.88,63.68C74.234,61.241 68.007,62.04 67.502,62.024C55.133,61.644 73.095,54.076 76.124,34.644C76.003,34.467 75.882,34.29 75.761,34.112Z"/>
            <path d="M249.041,136.507C249.432,139.106 249.449,139.035 250.401,141.549C250.991,143.107 255.121,142.798 254.522,144.507C253.319,147.943 238.828,145.849 237.475,145.653C230.238,144.607 239.946,142.439 240.038,140.451C240.767,124.728 241.027,124.745 240.939,123.381C240.835,121.755 238.202,122.057 233.584,123.706C229.616,125.124 217.061,123.772 219.757,120.71C226.148,113.451 226.709,113.914 231.331,105.403C232.386,103.459 231.722,102.927 229.502,102.972C222.471,103.114 222.508,99.176 224.689,97.716C231.031,93.474 232.672,88.338 233.982,85.722C234.798,84.09 238.427,81.052 232.497,81.05C225.65,81.048 228.39,77.959 228.701,77.7C229.87,76.725 237.623,70.258 238.739,61.54C239.047,59.131 230.545,60.43 233.676,56.651C238.353,51.004 238.386,50.935 243.284,36.409C247.543,23.777 247.999,46.8 255.794,56.261C259.909,61.256 250.906,58.742 251.265,61.541C252.24,69.142 259.262,76.615 260.275,77.693C263.646,81.28 252.876,80.288 253.692,82.448C256.274,89.286 264.183,97.526 265.288,98.677C267.833,101.328 264.76,100.841 261.427,102.346C259.546,103.195 259.535,102.285 257.457,102.421C254.319,102.626 264.001,115.282 264.762,116.278C266.143,118.083 271.991,120.978 270.273,122.302C267.196,124.675 259.695,124.052 257.487,124.051C253.5,124.05 251.382,122.371 250.533,122.274C248.057,121.993 249.027,133.959 249.041,136.507Z"/>
            <path d="M184.51,222.975C184.168,222.934 179.176,222.338 181.724,219.684C196.001,204.813 194.245,202.406 192.614,202.145C184.713,200.884 185.351,199.141 185.76,198.682C187.025,197.262 197.203,185.838 198.276,178.46C198.663,175.797 186.896,178.487 193.682,171.688C204.969,160.378 204.116,138.476 207.681,147.4C209.638,152.3 207.519,153.102 216.323,169.605C218.565,173.808 222.998,174.749 218.599,176.672C217.729,177.053 212.22,175.794 214.311,180.582C220.708,195.233 229.096,200.686 224.601,200.943C219.302,201.246 217.446,200.036 218.273,202.544C222.537,215.47 236.873,222.957 227.507,223.031C219.834,223.092 217.48,223.437 212.442,221.656C207.775,220.007 209.803,230.664 209.955,231.459C211.383,238.96 212.626,239.627 213.27,239.972C215.91,241.388 218.387,241.11 216.266,243.293C214.524,245.087 185.282,245.172 199.392,240.041C201.76,239.18 203.736,220.837 200.459,221.249C200.13,221.29 200.272,221.485 196.578,222.693C195.853,222.93 192.331,222.94 184.51,222.975Z"/>
            <path d="M9.503,158.98C-2.997,157.463 12.627,153.488 16.265,141.439C17.066,138.789 4.94,141.441 10.666,135.663C11.612,134.709 17.334,128.935 19.758,121.548C20.553,119.128 10.32,120.966 15.241,116.249C24.806,107.082 23.431,84.979 28.723,101.408C30.014,105.416 29.588,109.172 36.257,116.708C39.43,120.292 30.894,119.028 31.242,121.547C31.988,126.946 41.829,137.577 40.228,139.24C38.916,140.603 31.772,138.751 35.235,142.721C37.467,145.279 35.906,146.394 42.764,153.236C49.932,160.387 38.407,158.235 37.65,159.552C37.421,159.949 37.751,159.91 40.321,164.608C42.622,168.815 55.273,176.031 43.507,176.057C34.261,176.077 34.475,174.837 30.541,174.272C29.11,174.067 29.049,175.2 29.041,175.347C28.969,176.656 28.207,190.631 31.466,191.558C40.618,194.161 28.808,194.02 28.5,194.016C26.091,193.987 14.733,194.879 16.575,192.557C17.314,191.625 20.457,192.366 20.91,189.562C21.107,188.34 23.368,174.32 20.551,174.099C19.342,174.004 19.585,175.907 5.507,175.978C5.181,175.98 1.719,175.997 2.315,173.434C2.458,172.819 3.1,173.506 7.716,167.689C12.724,161.379 12.411,161.176 12.896,160.675C15.099,158.397 9.58,158.977 9.503,158.98Z"/>
            <path d="M87.502,264.972C83.524,264.678 79.809,265.501 82.739,262.719C84.733,260.825 85.367,261.289 85.898,258.533C86.092,257.527 88.376,245.686 85.537,245.726C80.8,245.792 80.983,247.388 70.536,247.009C65.665,246.832 67.256,244.125 70.695,240.691C71.542,239.845 77.177,234.22 79.313,228.452C80.096,226.337 68.234,227.428 71.759,223.713C72.881,222.531 81.801,213.13 82.697,206.534C83.013,204.213 73.464,205.573 76.786,201.736C92.683,183.369 88.561,164.416 92.705,176.411C95.432,184.304 95.321,191.199 105.275,201.693C109.22,205.852 98.097,202.753 99.687,207.429C104.504,221.596 116.103,226.347 107.555,226.918C107.187,226.943 102.769,227.239 103.248,228.542C105.601,234.944 116.045,245.169 115.276,246.319C115.172,246.474 106.371,248.703 104.67,248.003C101.202,246.576 95.218,245.111 95.071,247.385C95.002,248.443 94.503,256.159 96.345,260.582C96.545,261.062 105.122,265.077 98.497,265.069C97.448,265.068 97.589,264.993 96.503,264.982C95.783,264.975 95.836,264.981 87.502,264.972Z"/>
            <path d="M130.436,148.064C126.628,149.772 126.587,148.293 122.431,147.923C117.371,147.472 126.011,142.552 131.919,130.48C132.114,130.083 131.848,129.968 126.566,129.079C120.922,128.129 126.18,126.166 129.31,121.386C129.857,120.551 134.232,113.869 135.321,110.453C136.011,108.29 127.485,109.263 130.149,106.314C137.675,97.986 140.541,81.299 141.637,80.937C142.268,80.728 143.664,80.266 145.029,88.531C147.408,102.937 158.771,107.203 150.408,109.097C144.999,110.323 156.938,125.428 157.394,125.666C157.794,125.874 162.061,130.374 153.464,129.701C150.601,129.477 154.088,135.193 154.337,135.6C160.614,145.887 162.359,144.433 162.707,145.404C164.764,151.137 147.915,147.812 146.71,147.969C145.561,148.119 145.954,158.632 145.961,159.51C145.964,159.96 145.994,163.806 148.472,164.548C159.274,167.784 129.962,168.5 133.275,165.339C135.331,163.378 136.058,164.556 138.027,162.446C140.802,159.795 140.507,159.543 140.727,155.471C141.17,147.28 141.509,143.14 136.5,144.888L135.912,145.5L134.5,145.756L133.5,145.858L132.5,146.072C131.992,146.564 132.004,147.45 131.495,147.943C131.495,147.943 130.521,148.054 130.436,148.064Z"/>
            <path d="M290,187.504C289.987,187.012 289.838,181.561 289.757,181.353C289.438,180.536 271.609,182.25 275.416,178.43C278.725,175.111 278.948,175.445 281.738,171.712C283.429,169.449 288.059,166.578 281.432,165.944C273.339,165.169 294.271,150.589 284.426,149.946C278.933,149.587 289.224,143.995 291.898,129.552C293.34,121.766 296.023,130.3 296.046,130.518C297.675,145.768 308.684,148.635 301.406,150.047C296.323,151.033 306.461,161.911 307.222,162.727C310.792,166.558 299.989,165.036 302.744,168.3C305.166,171.168 304.986,172.462 305.771,173.269C311.011,178.658 312.486,178.578 311.287,180.326C311.051,180.67 304.71,182.158 304.495,182.145C301.341,181.95 299.087,180.826 298.462,180.724C296.314,180.377 295.909,192.783 298.653,194.232C306.191,198.21 291.59,196.918 289.487,196.975C289.214,196.983 282.666,197.163 286.767,194.912C290.65,192.779 290.025,192.079 290,187.504Z"/>
            <path d="M130.436,148.064C130.521,148.054 131.495,147.943 131.495,147.943C132.004,147.45 131.992,146.564 132.5,146.072L133.5,145.858L134.5,145.756L135.912,145.5L136.5,144.888C141.509,143.14 141.17,147.28 140.727,155.471C140.507,159.543 140.802,159.795 138.027,162.446C138.006,152.672 137.925,151.452 137.861,150.498C137.536,145.613 135.24,148.009 130.436,148.064Z"/>
            <path d="M263.012,235.501C263.071,235.017 263.682,230.002 265.514,229.944C268.122,229.861 267.589,244.612 265.46,245.025C262.042,245.689 262.995,237.297 263.012,235.501Z"/>
            <path d="M42.365,226.265C35.58,227.945 39.85,209.778 42.111,213.735C43.974,216.996 42.375,226.183 42.365,226.265Z"/>
            <path d="M147.662,232.199C147.587,231.205 146.817,221.084 148.729,219.785C152.311,217.35 150.858,228.701 150.757,229.488C150.421,232.111 150.229,232.852 147.662,232.199Z"/>
            <path d="M195.604,111.683C190.365,111.293 193.136,108.762 193.022,103.504C192.927,99.161 195.956,98.695 196.752,101.371C197.57,104.121 196.87,104.271 196.354,105.432C195.624,107.074 195.965,107.109 195.604,111.683Z"/>
            <path d="M72.582,164.639C69.607,164.62 70.062,163.357 70,156.5C69.956,151.557 72.881,153.367 72.985,154.361C73.071,155.179 73.277,157.141 72.582,164.639Z"/>
            <path d="M272.744,243.754C264.391,250.36 273.05,233.274 276.284,237.696C276.616,238.149 277.047,238.738 272.744,243.754Z"/>
            <path d="M255.242,240.75C254.29,239.595 254.327,239.709 254.29,239.595C251.946,232.539 263.139,241.584 260.526,244.527C258.88,246.38 257.043,242.888 255.242,240.75Z"/>
            <path d="M187.245,109.631C185.349,105.826 185.238,105.913 185.161,105.555C185.048,105.03 187.681,101.722 190.639,109.443C190.737,109.697 190.362,115.485 187.245,109.631Z"/>
            <path d="M145.57,232.596C140.015,232.53 139.8,224.64 141.557,225.161C146.172,226.528 145.266,227.762 145.57,232.596Z"/>
            <path d="M254.289,189.38C254.492,189.712 254.807,189.966 255.01,190.298C255.191,190.594 254.602,190.695 255.888,194.546C256.037,194.992 256.78,195.051 256.929,195.496C257.059,198.237 256.518,199.685 256.39,200.026C253.247,200.05 254.388,198.582 254.126,195.49C253.686,190.282 254.163,190.314 254.289,189.38Z" style="fill-opacity:0.98;"/>
            <path d="M44.628,227.016C44.514,226.501 43.816,223.35 46.715,220.752C50.233,217.599 50.979,224.339 44.628,227.016Z" style="fill-opacity:1;"/>
            <path d="M154.245,227.244C160.777,221.796 155.92,232.237 153.566,232.737C150.716,233.341 154.023,227.627 154.245,227.244Z" style="fill-opacity:1;"/>
            <path d="M35.753,221.243C35.976,221.629 39.327,227.417 36.414,226.775C34.25,226.298 29.238,215.838 35.753,221.243Z" style="fill-opacity:1;"/>
            <path d="M66.751,160.245C69.831,165.439 67.016,165.461 66.686,165.237C64.391,163.682 60.601,155.122 66.751,160.245Z" style="fill-opacity:1;"/>
            <path d="M250.769,194.223C254.989,200.048 250.659,199.947 250.406,199.598C250.052,199.111 245.334,189.563 250.769,194.223Z"/>
            <path d="M197.318,111.642C198.488,108.401 197.949,108.077 199.729,106.991C204.638,103.996 201.366,114.529 197.318,111.642Z"/>
            <path d="M74.301,164.652C75.532,161.278 75.118,161.08 76.666,159.697C80.304,156.448 78.865,167.89 74.301,164.652Z"/>
            <path d="M260.598,199.618C259.757,198.756 259.435,199.441 258.525,198.508C258.478,198.46 258.42,198.4 258.71,197.682C260.17,194.072 261.176,193.767 261.554,193.653C265.237,192.536 260.863,199.213 260.598,199.618Z" style="fill-opacity:0.98;"/>
            <path d="M254.289,189.38C258.262,185.437 256.937,194.245 256.929,195.496C256.78,195.051 256.037,194.992 255.888,194.546C254.602,190.695 255.191,190.594 255.01,190.298C254.807,189.966 254.492,189.712 254.289,189.38Z" style="fill-opacity:0.91;"/>
            <path d="M177.69,168.597C174.078,172.19 173.434,167.221 175.409,166.324C177.445,165.399 177.566,166.376 177.69,168.597Z" style="fill-opacity:1;"/>
        </g>
    </g>
</svg>
