<?xml version="1.0" encoding="UTF-8" standalone="no"?>
<!DOCTYPE svg PUBLIC "-//W3C//DTD SVG 1.1//EN" "http://www.w3.org/Graphics/SVG/1.1/DTD/svg11.dtd">
<svg width="100%" height="100%" viewBox="0 0 384 333" version="1.1" xmlns="http://www.w3.org/2000/svg" xmlns:xlink="http://www.w3.org/1999/xlink" xml:space="preserve" xmlns:serif="http://www.serif.com/" style="fill-rule:evenodd;clip-rule:evenodd;stroke-linejoin:round;stroke-miterlimit:2;">
    <g transform="matrix(1,0,0,1,72,61.5)">
        <g id="woods_dec" transform="matrix(1,0,0,1,0.077679,-0.056328)">
            <g transform="matrix(0.489796,0,0,0.489796,-0.979592,12.673469)">
                <path d="M259.009,153.521C258.777,149.963 262.178,139.769 257.781,134.267C245.017,118.297 245.598,115.43 243.318,117.225C238.081,121.349 230.135,121.413 225.767,116.266C224.181,114.396 224.975,111.869 220.425,113.331C209.064,116.981 197.049,102.9 208.848,91.688C210.416,90.197 206.544,89.29 203.719,87.245C201.67,85.762 197.825,78.011 199.302,73.422C202.557,63.306 203.713,63.591 213.392,59.262C216.03,58.082 220.549,61.383 221.531,60.546C224.17,58.297 224.28,57.488 221.743,55.223C220.455,54.073 209.872,44.625 219.756,33.722C227.23,25.478 234.823,31.299 235.025,24.472C235.566,6.239 251.127,9.163 252.429,9.659C258.983,12.156 258.053,3.697 265.497,2.48C283.838,-0.521 283.894,13.931 285.537,16.464C286.352,17.721 299.399,11.85 304.721,27.407C308.904,39.636 298.59,40.638 299.327,44.553C300.163,48.996 315.245,37.751 323.71,56.415C326.417,62.383 318.331,70.27 322.422,71.674C334.987,75.986 334.666,91.453 328.563,97.563C322.9,103.231 316.145,100.101 317.705,104.424C319.533,109.491 312.607,124.17 294.374,114.705C293.471,114.236 292.068,110.901 290.974,112.8C282.16,128.094 273.84,133.414 273.954,139.504C274.431,164.922 278.766,163.808 281.265,165.762C283.98,167.886 284.269,172.563 277.569,170.336C273.209,168.887 272.741,168.133 269.255,171.214C266.058,174.041 263.151,168.213 260.431,169.317C259.536,169.681 251.03,173.134 248.419,170.582C243.339,165.616 259.013,169.3 259.009,153.521ZM261.003,120.505C261.043,121.537 262.375,127.91 256.733,123.225C254.532,121.397 249.114,115.753 251.363,114.332C265.746,105.247 240.919,91.506 248.425,90.259C249.336,90.108 258.722,102.668 259.798,94.541C262.184,76.524 261.986,100.916 261.982,101.499C261.911,110.247 262.653,110.271 261.265,115.393C260.559,117.996 260.885,117.929 261.003,120.505ZM279.234,118.23C276.915,120.522 276.921,120.403 274.699,122.881C272.311,125.545 273.532,121.867 272.339,118.574C272.302,118.473 270.538,100.221 273.67,103.098C277.801,106.891 281.399,102.529 281.865,104.262C282.651,107.184 282.006,107.489 284.356,109.682C285.121,110.395 285.234,111.401 285.229,111.427C284.951,112.91 284.63,112.651 279.234,118.23Z"/>
                <path d="M398.5,256.988C397.874,257.144 397.192,256.761 396.566,256.917C394.335,257.475 399.328,262.924 395.257,267.276C382.656,280.745 372.163,265.883 367.765,269.805C366.873,270.601 352.506,289.882 352.322,290.425C349.549,298.568 351.318,298.74 351.987,310.456C352.317,316.237 355.184,318.707 355.761,319.204C355.891,319.316 361.97,322.269 363.219,323.737C367.401,328.657 355.267,327.155 354.528,327.063C350.676,326.586 349.871,322.992 346.229,327.223C342.243,331.852 338.212,324.189 335.435,325.33C329.174,327.902 329.092,328.537 322.543,327.024C320.373,326.523 320.947,324.064 322.381,323.313C329.966,319.343 334.819,320.058 334.967,298.501C335.046,287.031 328.507,287.949 320.317,272.614C319.353,270.81 319.265,266.756 315.279,270.238C309.533,275.259 293.438,272.731 293.078,265.543C292.797,259.931 292.52,259.569 296.357,255.397C299.733,251.726 293.463,255.724 286.402,252.721C278.307,249.279 266.229,233.212 286.378,219.307C289.633,217.062 288.843,216.004 292.569,214.641C296.946,213.04 289.63,207.503 293.277,199.399C297.16,190.771 297.396,190.257 306.426,187.315C311.309,185.724 312.967,189.954 315.691,185.607C317.336,182.981 320.727,183.705 320.916,181.605C321.778,172.045 319.753,170.404 329.264,163.227C330.634,162.194 339.741,155.323 350.623,161.301C351.088,161.557 358.126,167.3 359.087,172.555C360.158,178.41 363.095,175.197 364.454,175.061C373.383,174.162 384.422,185.847 375.776,195.723C371.151,201.006 385.28,196.963 389.567,198.328C406.372,203.678 400.413,220.029 399.248,221.286C395.25,225.602 400.937,223.927 403.283,225.757C403.765,226.133 410.021,228.802 412.73,235.402C412.905,235.829 417.101,254.641 398.5,256.988ZM337.014,271.504C337.001,273.193 337.75,283.2 334.693,280.261C321.318,267.4 324.346,265.409 320.321,257.592C318.778,254.595 316.527,253.213 319.447,253.083C324.52,252.858 328.342,271.576 334.355,256.421C334.612,255.773 337.958,250.345 338.214,253.548C338.931,262.496 337.648,266.36 337.298,267.416C337.195,267.727 337.277,267.718 337.014,271.504ZM354.493,260.974C362.715,259.984 367.774,248.598 365.021,256.406C363.562,260.545 361.946,260.183 362.673,264.457C363.115,267.056 350.016,280.684 350.115,277.75C350.161,276.373 348.472,276.528 348.887,260.572C348.93,258.918 350.435,260.411 354.493,260.974Z"/>
                <path d="M149.974,135.111C152.418,135.229 152.257,133.575 154.581,134.288C158.384,135.454 159.741,133.996 163.266,136.784C173.341,144.752 169.414,152.198 168.988,154.542C167.764,161.281 161.842,160.316 164.226,162.664C169.402,167.763 169.25,168.203 168.922,175.546C168.606,182.627 158.927,183.632 158.801,183.797C155.897,187.601 155.967,187.794 151.424,189.316C143.804,191.87 139.928,186.521 138.554,186.291C136.91,186.015 137.467,187.049 125.781,202.742C116.701,214.935 120.908,218.51 120.966,226.506C120.989,229.691 121.693,229.472 122.07,232.529C122.848,238.835 123.185,238.958 128.286,242.716C130.423,244.29 127.023,248.608 122.714,245.249C119.243,242.543 118.783,244.149 117.237,246.272C113.253,251.742 110.935,243.173 108.309,245.215C104.744,247.986 92.775,247.426 100.604,242.668C106.693,238.966 105.856,233.7 106.284,232.408C107.937,227.426 106.214,220.555 107.261,217.39C110.707,206.97 104.195,202.926 97.318,192.611C95.275,189.547 93.778,185.464 91.341,187.249C87.53,190.039 72.966,189.722 74.059,182.459C74.891,176.935 70.373,180.952 64.601,177.339C47.76,166.796 65.257,147.083 72.577,150.311C72.846,150.43 80.554,153.829 75.217,147.745C71.798,143.848 68.421,146.777 64.287,136.594C59.025,123.635 73.05,114.219 76.523,113.959C81.773,113.565 82.627,114.96 85.785,110.747C87.758,108.114 92.601,109.899 90.657,104.43C87.096,94.408 100.826,81.779 108.514,82.016C121.861,82.429 126.003,87.757 128.333,94.575C129.799,98.863 136.341,93.442 138.677,99.411C140.098,103.041 140.675,102.787 144.553,103.073C150.277,103.495 156.441,114.897 154.717,119.594C153.785,122.133 154.229,127.766 148.59,130.634C145.839,132.033 148.552,132.482 149.974,135.111ZM119.141,180.495C118.886,178.08 116.514,171.526 120.578,176.408C125.609,182.45 132.322,175.052 133.599,172.566C135.337,169.183 136.643,172.441 135.717,174.586C131.289,184.841 130.866,188.014 121.306,197.257C117.96,200.492 119.082,187.332 119.141,180.495ZM109.013,179.504C108.938,193.033 109.673,197.389 106.721,194.264C105.928,193.424 96.516,185.026 99.052,183.048C99.578,182.637 102.83,180.102 98.226,174.738C95.291,171.318 92.055,170.709 95.613,168.724C98.735,166.982 100.543,176.687 105.586,174.672C106.236,174.413 110.681,164.486 109.279,172.487C108.66,176.014 108.941,175.968 109.013,179.504Z"/>
                <path d="M395.024,88.505C395.339,85.873 394.9,85.7 396.752,83.726C402.169,77.952 407.478,79.053 408.609,78.921C411.462,78.589 409.875,77.278 410.075,74.448C410.565,67.501 420.956,57.22 430.584,60.291C444.316,64.671 442.094,73.615 445.564,74.015C449.884,74.514 450.01,73.915 454.612,76.311C462.386,80.359 452.551,92.07 461.396,89.261C464.515,88.271 470.853,93.644 472.01,95.743C476.111,103.187 467.927,108.745 472.567,109.112C482.088,109.866 497.203,123.016 481.273,138.24C478.078,141.293 473.065,138.881 475.768,142.295C478.949,146.313 477.796,151.338 477.698,151.579C472.971,163.12 457.312,161.607 454.724,159.248C452.598,157.31 451.924,156.924 450.226,159.27C449.223,160.657 437.845,176.382 437.701,176.621C434.195,182.432 436.75,196.809 437.057,198.536C438.492,206.614 443.532,205.748 444.026,208.535C444.145,209.204 444.431,212.947 435.567,209.334C432.725,208.175 430.066,214.143 426.728,211.235C421.663,206.821 420.366,213.132 414.377,210.697C410.192,208.995 421.487,205.134 422.011,197.46C423.223,179.714 424.048,176.979 420.221,172.741C409.109,160.437 410.009,154.019 405.26,158.226C399.565,163.27 388.517,159.798 388.08,154.552C387.729,150.349 389.525,150.609 389.725,149.565C390.284,146.65 388.493,148.142 385.5,148.396C380.663,148.806 368.844,144.511 371.048,130.446C372.673,120.08 386.117,120.883 383.224,117.722C382.676,117.123 378.977,113.08 378.974,108.496C378.967,95.527 392.946,94.125 394.648,93.954C395.083,93.911 395.503,93.869 395.024,88.505ZM422.611,144.717C423.111,145.002 423.611,145.286 424.111,145.57C423.121,154.96 425.915,168.88 421.711,164.273C419.956,162.35 419.236,163.328 417.78,161.265C411.442,152.291 412.831,151.462 411.235,149.735C408.912,147.22 408.432,146.039 411.628,144.717C412.719,144.266 415.514,151.629 419.261,148.223C419.261,148.223 422.343,144.998 422.611,144.717ZM433.973,157.5C434.067,147.734 433.719,147.22 434.465,147.231C436.587,147.263 437.559,157.714 447.313,147.135C451.665,142.415 446.682,159.932 436.399,166.315C432.995,168.428 434.039,165.126 433.973,157.5ZM422.611,144.717C424.061,142.967 424.063,140.537 425.095,142.63C425.652,143.76 425.064,143.713 424.111,145.57C423.611,145.286 423.111,145.002 422.611,144.717Z"/>
                <path d="M170.502,257.003C175.135,256.427 176.844,254.801 173.449,251.551C165.032,243.496 174.366,221.479 186.428,225.666C191.76,227.517 191.994,225.1 192.043,219.505C192.078,215.472 198.152,204.813 207.504,205.051C211.058,205.142 216.713,202.873 223.673,213.393C225.735,216.509 224.31,219.727 226.392,219.923C230.112,220.273 231.71,218.576 233.97,224.378C234.955,226.906 241.977,225.171 244.689,230.386C249.837,240.289 248.645,243.539 243.753,248.703C241.364,251.225 246.629,250.107 246.935,253.455C247.244,256.834 248.149,256.494 251.471,256.905C258.828,257.816 271.292,278.862 250.607,285.934C247.667,286.939 252.041,292.099 248.226,296.261C238.507,306.862 230.486,294.786 227.708,299.613C219.799,313.354 214.362,311.644 214.982,327.456C215.007,328.1 215.484,327.963 215.994,335.458C216.48,342.595 223.866,347.136 223.933,347.429C224.546,350.072 219.864,350.723 217.417,349.703C215.193,348.776 214.428,346.726 212.004,350.191C209.835,353.291 205.388,347.636 203.314,349.23C199.526,352.143 188.21,349.586 197.581,344.632C202.872,341.835 201.069,334.152 202.667,329.573C203.126,328.258 205.327,321.952 198.219,312.744C193.593,306.751 193.223,307.101 189.631,300.414C187.4,296.258 184.397,306.216 172.387,299.685C166.527,296.498 170.821,288.519 167.577,287.346C159.34,284.366 158.981,283.908 156.291,275.585C155.697,273.75 156.102,258.36 170.502,257.003ZM194.534,292.529L195.489,292.212C202.904,294.901 205.096,278.587 205.195,286.557C205.237,289.901 204.607,306.726 203.553,307.567C201.893,308.891 200.634,305.466 194.775,299.263C193.015,297.399 194.073,295.989 194.534,292.529ZM213.999,302.514C214.622,289.818 213.319,289.131 214.536,288.899C216.912,288.444 217.438,295.315 225.246,289.193C237.522,279.567 217.294,305.44 215.552,305.729C213.426,306.082 214.348,304.867 213.999,302.514ZM194.534,292.529C194.362,292.432 190.222,290.093 193.456,290.3C194.14,290.344 195.358,292.031 195.489,292.212L194.534,292.529Z"/>
                <path d="M40.001,286.501C39.585,283.141 39.624,283.152 37.739,280.297C29.162,267.307 30.126,266.743 29.276,265.695C24.125,259.341 27.138,267.39 27.22,267.599C28.054,269.709 23.976,272.418 21.436,271.962C12.966,270.44 12.907,268.961 11.88,260.406C11.646,258.458 -4.855,254.463 4.665,238.598C8.959,231.442 13.928,234.051 16.248,232.202C18.402,230.485 21.746,231.248 19.315,229.721C16.518,227.965 17.144,227.426 15.188,224.739C9.665,217.149 13.166,203.813 25.499,201.495C34.777,199.751 31.476,190.164 44.54,187.99C49.055,187.239 55.508,193.94 56.257,194.718C57.554,196.065 57.682,202.374 59.462,202.276C61.043,202.188 72.836,201.538 75.008,214.542C75.93,220.061 71.421,225.016 70.778,225.723C67.822,228.972 77.072,230.366 79.59,231.324C83.394,232.772 88.178,242.095 86.698,246.582C83.971,254.849 81.756,253.214 78.504,256.503C76.41,258.622 84.505,265.54 70.425,270.324C63.997,272.509 61.514,265.41 58.326,271.396C52.83,281.715 50.049,280.455 49.958,285.503C49.954,285.753 49.048,300.034 54.609,303.321C58.918,305.869 55.992,309.724 52.713,307.238C48.615,304.131 47.519,309.882 43.677,307.222C41.245,305.539 41.092,308.616 33.399,307.955C28.18,307.507 37.209,303.192 38.254,301.37C40.635,297.221 39.976,287.916 40.001,286.501ZM41.001,262.5C40.86,270.715 43.586,279.263 39.293,272.827C38.341,271.4 31.74,266.943 34.077,265.065C35.998,263.522 35.435,263.022 37.627,261.704C38.478,261.193 41.108,254.531 42.028,257.666C42.139,258.045 41.752,257.956 41.001,262.5ZM48.963,265.503C48.956,265.294 48.469,261.012 50.384,261.72C53.571,262.897 53.256,263.643 56.622,264.088C60.076,264.545 52.017,272.482 51.751,272.762C48.044,276.677 48.873,271.392 48.963,265.503Z"/>
                <path d="M112.996,298.488C113.031,299.771 112.815,299.749 111.852,314.491C111.803,315.24 109.707,325.727 106.592,325.937C91.796,326.936 92.324,324.152 91.213,322.748C88.04,318.738 82.376,316.779 87.527,316.878C97.563,317.071 99.22,325.061 99.568,320.537C99.628,319.763 96.392,310.423 94.761,308.29C94.561,308.029 93.604,302.076 98.742,307.261C102.142,310.693 101.72,310.891 103.956,315.207C107.078,321.236 103.936,309.333 108.307,298.419C108.469,298.016 110.067,294.024 111.51,294.031C113.586,294.04 112.645,295.123 112.996,298.488Z"/>
                <path d="M251.5,375.158C242.662,374.733 242.495,375.052 241.699,374.28C241.31,373.902 237.115,369.833 237.801,368.734C239.962,365.271 250.21,373.271 247.835,368.399C247.454,367.618 243.947,360.424 243.232,358.552C242.174,355.786 248.497,356.524 251.18,363.755C254.256,372.047 252.289,360.936 256.315,350.402C257.954,346.115 261.556,350.156 259.733,355.605C257.969,360.881 258.499,371.954 260.807,365.749C262.613,360.894 269.575,356.755 269.584,359.488C269.589,360.91 262.935,372.21 262.302,373.286C261.415,374.793 259.471,372.304 258.346,373.161C256.62,374.476 252.066,375.083 251.5,375.158Z"/>
                <path d="M217.485,171.941C216.043,171.957 201.618,172.11 199.45,171.917C197.153,171.712 192.966,166.977 194.421,165.427C197.196,162.472 197.418,165.344 201.593,168.343C206.042,171.538 202.377,166.362 199.255,158.56C199.134,158.26 199.308,155.124 201.726,157.164C207.382,161.935 206.12,162.942 206.62,163.325C209.066,165.194 207.826,162.287 207.955,153.498C208.047,147.281 211.547,146.517 212.045,149.535C213.109,155.986 212.39,155.959 212.867,162.456C213.351,169.058 214.941,161.29 219.687,156.721C220.82,155.63 222.693,156.423 221.737,158.589C221.31,159.556 220.726,160.45 220.328,161.429C220.01,162.213 215.836,171.73 219.697,167.853C224.757,162.773 227.827,165.586 226.674,167.582C223.87,172.436 223.168,172.053 217.485,171.941Z"/>
                <path d="M401.503,331.015C410.364,332.182 406.291,337.981 401.505,338.029C389.813,338.146 386.613,341.469 382.289,330.56C382.111,330.11 382.489,324.699 388.323,330.839C390.888,333.538 390.834,317.68 395.249,321.774C396.249,322.702 395.409,332.942 397.451,332.31C399.51,331.672 399.328,331.289 401.503,331.015Z"/>
                <path d="M440.298,289.752C439.951,276.674 444.44,268.087 445.326,266.393C447.236,262.737 450.148,265.287 448.727,269.601C447.266,274.038 448.314,277.351 447.781,280.573C447.424,282.735 447.117,285.047 447.065,285.437C446.388,290.549 447.094,290.619 445.351,295.432C442.348,303.724 442.028,292.891 440.298,289.752Z"/>
                <path d="M292.499,335.969C287.713,335.669 287.203,336.696 283.775,333.229C281.764,331.195 282.855,328.339 285.538,327.995C287.807,327.705 292.395,332.727 290.365,327.553C289.126,324.398 293.681,317.613 295.709,323.41C297.392,328.223 297.029,328.27 297.194,328.675C297.615,329.713 304.383,327.275 302.696,331.576C300.334,337.596 295.836,335.997 292.499,335.969Z"/>
                <path d="M165.498,357.97C164.826,357.89 157.472,357.009 158.348,353.442C158.961,350.943 159.934,351.953 164.33,351.087C165.369,350.882 164.896,345.104 167.498,344.988C170.193,344.867 169.285,346.218 170.935,350.36C171.558,351.925 177.477,349.762 174.679,354.609C171.989,359.27 170.85,357.679 165.498,357.97Z" style="fill-opacity:0.99;"/>
                <path d="M434.738,280.261C437.854,283.917 439.067,287.074 439.081,296.452C439.081,296.986 436.771,299.68 433.793,292.379C428.167,278.585 427.775,278.541 428.281,277.366C428.505,276.846 429.378,275.177 434.738,280.261Z"/>
                <path d="M449.074,294.514C449.348,289.721 449.118,289.696 451.317,285.388C452.49,283.091 458.398,277.858 460.59,278.026C462.018,278.135 462.9,279.611 453.289,294.375C452.74,295.219 449.885,301.333 449.074,294.514Z"/>
                <path d="M119.253,308.252C119.571,307.983 123.06,305.027 124.227,306.734C124.964,307.812 115.015,328.242 113.3,323.619C110.868,317.063 118.345,309.207 119.253,308.252Z"/>
                <path d="M461.502,298.956C460.976,298.962 455.166,299.025 455.075,297.56C454.646,290.685 475.183,287.866 469.235,294.257C468.889,294.629 468.609,294.279 464.282,298.242C463.416,299.035 463.311,298.709 461.502,298.956Z"/>
                <path d="M474.543,217.504C470.005,231.203 467.663,204.554 473.595,201.649C474.096,201.404 477.794,204.91 475.299,211.409C475.123,211.868 474.934,212.362 474.543,217.504Z"/>
                <path d="M139.505,249.958C131.011,248.849 140.145,240.678 142.461,240.984C143.728,241.151 152.969,247.488 144.545,248.996C141.988,249.454 142.123,249.725 139.505,249.958Z"/>
                <path d="M90.5,283.978C76.881,282.326 97.692,272.555 99.708,280.417C100.061,281.797 98.475,283.074 98.278,283.233C96.814,284.411 90.565,283.978 90.5,283.978Z"/>
                <path d="M429.493,298.98C426.898,298.591 426.602,298.848 425.307,296.617C422.917,292.502 418.155,291.718 421.393,290.332C428.684,287.209 432.657,295.642 433.111,296.603C434.403,299.345 432.446,298.71 429.493,298.98Z"/>
                <path d="M127.501,318.041C137.227,318.816 127.599,322.794 126.779,323.78C121.802,329.76 116.596,324.567 120.739,320.793C123.166,318.583 126.921,318.114 127.501,318.041Z"/>
                <path d="M294.497,171.97C286.011,170.734 294.587,165.704 294.651,165.602C297.099,161.679 298.167,164.225 301.25,167.72C301.672,168.199 303.694,171.404 294.497,171.97Z"/>
                <path d="M268.507,375C257.376,375.729 274.304,363.517 275.739,369.405C275.983,370.406 273.091,374.35 268.507,375Z"/>
                <path d="M465.619,212.309C470.082,216.885 467.65,224.23 464.717,221.277C464.422,220.979 464.629,220.909 462.307,216.618C462.142,216.313 460.785,213.804 461.314,212.405C462.257,209.916 463.037,211.499 465.619,212.309Z"/>
                <path d="M475.963,220.042C477.971,212.014 478.528,212.282 479.592,211.657C487.267,207.145 481.006,217.207 480.75,217.619C480.628,217.815 480.64,217.803 479.272,220.094C477.646,220.926 477.542,221.034 475.963,220.042Z"/>
                <path d="M480.975,221.155C483.631,217.46 483.493,217.161 484.458,217.084C485.044,217.036 490.988,216.556 491.687,218.408C492.993,221.866 485.715,223.826 480.975,221.155Z"/>
                <path d="M255.44,197.973C251.596,196.404 249.513,195.446 252.747,192.793C256.751,189.509 264.025,196.884 255.44,197.973Z"/>
                <path d="M422.611,144.717C424.061,142.967 424.063,140.537 425.095,142.63C425.652,143.76 425.064,143.713 424.111,145.57C423.611,145.286 423.111,145.002 422.611,144.717Z" style="fill-opacity:0.76;"/>
                <path d="M194.534,292.529C194.362,292.432 190.222,290.093 193.456,290.3C194.14,290.344 195.358,292.031 195.489,292.212L194.534,292.529Z" style="fill-opacity:0.91;"/>
            </g>
        </g>
    </g>
</svg>
